<svg width="70" height="70" viewBox="0 0 70 70" fill="none" xmlns="http://www.w3.org/2000/svg">
<g filter="url(#filter0_d_929_6720)">
<path fillRule="evenodd" clipRule="evenodd" d="M60 33C60 46.8071 48.8071 58 35 58C21.193 58 10 46.8071 10 33C10 19.193 21.193 8 35 8C48.8071 8 60 19.193 60 33ZM34.2677 27.2677C35.244 26.2915 35.244 24.7085 34.2677 23.7323C33.2915 22.756 31.7085 22.756 30.7323 23.7323L23.4497 31.0148C23.4123 31.0522 23.3758 31.0907 23.3408 31.13C22.825 31.588 22.5 32.256 22.5 33C22.5 33.744 22.825 34.412 23.3408 34.87C23.3758 34.9093 23.4123 34.9478 23.4497 34.9852L30.7323 42.2678C31.7085 43.2441 33.2915 43.2441 34.2677 42.2678C35.244 41.2915 35.244 39.7085 34.2677 38.7322L31.0355 35.5H45C46.3807 35.5 47.5 34.3808 47.5 33C47.5 31.6192 46.3807 30.5 45 30.5H31.0355L34.2677 27.2677Z" fill="white"/>
</g>
<defs>
<filter id="filter0_d_929_6720" x="0" y="0" width="70" height="70" filterUnits="userSpaceOnUse" color-interpolation-filters="sRGB">
<feFlood flood-opacity="0" result="BackgroundImageFix"/>
<feColorMatrix in="SourceAlpha" type="matrix" values="0 0 0 0 0 0 0 0 0 0 0 0 0 0 0 0 0 0 127 0" result="hardAlpha"/>
<feOffset dy="2"/>
<feGaussianBlur stdDeviation="5"/>
<feComposite in2="hardAlpha" operator="out"/>
<feColorMatrix type="matrix" values="0 0 0 0 0 0 0 0 0 0 0 0 0 0 0 0 0 0 0.3 0"/>
<feBlend mode="normal" in2="BackgroundImageFix" result="effect1_dropShadow_929_6720"/>
<feBlend mode="normal" in="SourceGraphic" in2="effect1_dropShadow_929_6720" result="shape"/>
</filter>
</defs>
</svg>
