<svg width="30" height="30" viewBox="0 0 30 30" fill="none" xmlns="http://www.w3.org/2000/svg">
<g clip-path="url(#clip0_1100_7126)">
<path d="M29.5312 5.15625H0.46875V24.8438H29.5312V5.15625Z" stroke="#212129" stroke-miterlimit="10"/>
<path d="M7.5 17.3438C9.0533 17.3438 10.3125 16.0846 10.3125 14.5312C10.3125 12.9779 9.0533 11.7188 7.5 11.7188C5.9467 11.7188 4.6875 12.9779 4.6875 14.5312C4.6875 16.0846 5.9467 17.3438 7.5 17.3438Z" stroke="#212129" stroke-miterlimit="10"/>
<path d="M22.5 17.3438C24.0533 17.3438 25.3125 16.0846 25.3125 14.5312C25.3125 12.9779 24.0533 11.7188 22.5 11.7188C20.9467 11.7188 19.6875 12.9779 19.6875 14.5312C19.6875 16.0846 20.9467 17.3438 22.5 17.3438Z" stroke="#212129" stroke-miterlimit="10"/>
<path d="M26.7188 24.8438L25.3125 20.1562H15H4.6875L3.28125 24.8438" stroke="#212129" stroke-miterlimit="10"/>
<path d="M28.125 7.03125H2.34375V8.90625H28.125V7.03125Z" stroke="#212129" stroke-miterlimit="10"/>
<path d="M17.8125 13.125H12.1875V15.9375H17.8125V13.125Z" stroke="#212129" stroke-miterlimit="10"/>
</g>
<defs>
<clipPath id="clip0_1100_7126">
<rect width="30" height="30" fill="white"/>
</clipPath>
</defs>
</svg>
