<svg width="30" height="30" viewBox="0 0 30 30" fill="none" xmlns="http://www.w3.org/2000/svg">
<path d="M0 8.50879V28.1966H30V8.50879H0ZM28.125 14.82H17.8128V16.695H28.125V26.3215H1.875V16.6951H12.1877V14.8201H1.875V10.3838H28.125V14.82Z" fill="#212129"/>
<path d="M12.6304 4.65985C13.2401 4.05194 14.0719 3.67881 15.0002 3.6784C15.9286 3.67881 16.7604 4.05194 17.3701 4.65985C17.978 5.26911 18.3511 6.1009 18.3516 7.0302H20.2266C20.2262 4.14258 17.887 1.80375 15.0002 1.80334C12.1136 1.80375 9.77438 4.14252 9.77391 7.0302H11.6489C11.6494 6.1009 12.0224 5.26911 12.6304 4.65985Z" fill="#212129"/>
<path d="M16.4065 14.089H13.594V17.839H16.4065V14.089Z" fill="#212129"/>
</svg>
