<svg id="Group_13491" data-name="Group 13491" xmlns="http://www.w3.org/2000/svg" width="43.74" height="45.007" viewBox="0 0 43.74 45.007">
  <path id="Path_3914" data-name="Path 3914" d="M29.924,24.506a.934.934,0,0,0,.938.938,1.935,1.935,0,0,1,1.932,1.932.938.938,0,0,0,1.875,0,3.81,3.81,0,0,0-3.807-3.807A.94.94,0,0,0,29.924,24.506Zm15.265,3.807a.934.934,0,0,0,.938-.938A15.278,15.278,0,0,0,30.862,12.11a.938.938,0,0,0,0,1.875,13.4,13.4,0,0,1,13.39,13.39A.94.94,0,0,0,45.189,28.313Z" transform="translate(-8.125 -6.381)" fill="#fff"/>
  <path id="Path_3915" data-name="Path 3915" d="M37.073,26.994a.938.938,0,1,0,1.875,0,9.544,9.544,0,0,0-9.536-9.536.938.938,0,1,0,0,1.875A7.669,7.669,0,0,1,37.073,26.994ZM29.412,6a.938.938,0,1,0,0,1.875A19.146,19.146,0,0,1,48.541,26.994a.938.938,0,0,0,1.875,0A21.021,21.021,0,0,0,29.412,6Zm9.161,30.877-1.228.666a5.4,5.4,0,0,1-6.376-.928l-9.9-9.9a5.417,5.417,0,0,1-.928-6.385l.666-1.219a7.223,7.223,0,0,0,.8-4.5,7.228,7.228,0,0,0-7.173-6.217A7.219,7.219,0,0,0,9.29,10.51L8.812,11C6.281,13.529,5.99,17.889,7.987,23.29c1.885,5.157,5.682,10.746,10.67,15.734,7.6,7.6,16.071,11.983,22.147,11.983a8.04,8.04,0,0,0,5.879-2.128l.488-.488A7.257,7.257,0,0,0,49.3,43.253a7.263,7.263,0,0,0-10.727-6.376Z" transform="translate(-6.676 -6)" fill="#fff"/>
</svg>
