<svg width="40" height="40" viewBox="0 0 40 40" fill="none" xmlns="http://www.w3.org/2000/svg">
<g clip-path="url(#clip0_1711_139)">
<path d="M22.6554 34.2519C30.5176 32.7094 35.6408 25.0853 34.0983 17.2231C32.5558 9.36091 24.9317 4.23777 17.0695 5.78027C9.20731 7.32278 4.08417 14.9468 5.62668 22.809C7.16918 30.6712 14.7932 35.7944 22.6554 34.2519Z" fill="url(#paint0_linear_1711_139)"/>
<path d="M20 34.7212C11.8835 34.7212 5.27885 28.1182 5.27885 20C5.27885 11.8818 11.8835 5.27885 20 5.27885C28.1164 5.27885 34.7211 11.8818 34.7211 20C34.7211 28.1182 28.1164 34.7212 20 34.7212ZM20 5.70677C12.1186 5.70677 5.70677 12.1186 5.70677 20C5.70677 27.8814 12.1186 34.2932 20 34.2932C27.8814 34.2932 34.2932 27.8814 34.2932 20C34.2932 12.1186 27.8814 5.70677 20 5.70677Z" fill="url(#paint1_linear_1711_139)"/>
<path d="M39.416 21.7152C39.2126 21.5661 39.1056 21.3837 39.1179 21.2048C39.1284 21.0242 39.2564 20.8593 39.4774 20.7348C39.8141 20.5472 39.9982 20.2859 39.9982 19.9982C39.9982 19.7106 39.8124 19.4493 39.4774 19.2617C39.2564 19.1389 39.1284 18.9723 39.1179 18.7917C39.1056 18.6128 39.2126 18.4304 39.416 18.2813C39.7264 18.0533 39.8772 17.771 39.8404 17.4868C39.8053 17.201 39.5879 16.966 39.2318 16.8222C38.9968 16.7275 38.8495 16.5784 38.8162 16.4013C38.7829 16.2241 38.8653 16.0312 39.0495 15.8576C39.3283 15.5928 39.4423 15.2929 39.3722 15.014C39.3002 14.7352 39.0565 14.5282 38.6829 14.4318C38.4374 14.3669 38.2725 14.2389 38.2182 14.067C38.1621 13.8969 38.2199 13.6934 38.3813 13.4988C38.625 13.2006 38.7022 12.8885 38.5952 12.6219C38.49 12.3553 38.2217 12.1799 37.8411 12.1308C37.5903 12.0975 37.4097 11.9905 37.3325 11.8274C37.2571 11.6661 37.2887 11.4574 37.4237 11.2434C37.6289 10.9172 37.664 10.598 37.5272 10.3455C37.3886 10.0929 37.101 9.9544 36.7169 9.95265C36.4644 9.95265 36.2715 9.86671 36.175 9.71589C36.0786 9.56506 36.0838 9.35461 36.1908 9.12487C36.3451 8.7934 36.3487 8.48474 36.2031 8.25324C36.0435 8.00245 35.7366 7.88144 35.328 7.93406C35.0649 7.96387 34.8562 7.89723 34.7457 7.7464C34.6457 7.60785 34.63 7.40617 34.7036 7.17643C34.8088 6.84672 34.7825 6.55209 34.6317 6.34339C34.4476 6.0926 34.1021 6.0014 33.6987 6.10312C33.4321 6.16976 33.2059 6.12241 33.0796 5.97159C32.9762 5.84707 32.9411 5.65591 32.9832 5.43143C33.0428 5.10698 32.9919 4.83514 32.8341 4.64398C32.6272 4.39495 32.2554 4.33532 31.8502 4.49316C31.5837 4.59663 31.3434 4.57208 31.2013 4.42125C31.0961 4.30901 31.0452 4.13013 31.0575 3.91617C31.0751 3.60575 31.0014 3.35321 30.8401 3.18309C30.6051 2.93406 30.2157 2.90775 29.8159 3.12697C29.6861 3.19712 29.5616 3.23395 29.4458 3.23395C29.1652 3.23395 28.9828 3.01824 28.9583 2.65345C28.9232 2.13785 28.6373 1.80463 28.2287 1.80463C28.0358 1.80463 27.8288 1.88179 27.6271 2.0256C27.4868 2.12732 27.3413 2.18344 27.2098 2.18344C26.9642 2.18344 26.7801 1.98877 26.7169 1.66608C26.6257 1.19958 26.3434 0.908452 25.9769 0.908452C25.7576 0.908452 25.5296 1.01368 25.3192 1.2101C25.1701 1.34865 25.014 1.42231 24.8667 1.42231C24.6457 1.42231 24.4651 1.2557 24.3704 0.966327C24.2336 0.550683 23.9548 0.303401 23.625 0.303401C23.3795 0.303401 23.1375 0.436688 22.927 0.690985C22.7832 0.864608 22.6131 0.961065 22.4518 0.961065C22.2554 0.961065 22.0747 0.81901 21.9555 0.568221C21.7836 0.206944 21.5135 -0.00175476 21.2136 -0.00175476C20.9418 -0.00175476 20.684 0.168361 20.4875 0.475271C20.2157 0.901437 19.7808 0.901437 19.5089 0.475271C19.3125 0.168361 19.0547 -0.00175476 18.7829 -0.00175476C18.4847 -0.00175476 18.2147 0.20519 18.0428 0.568221C17.9253 0.81901 17.7429 0.961065 17.5465 0.961065C17.3851 0.961065 17.2168 0.864608 17.0712 0.690985C16.8608 0.436688 16.6187 0.303401 16.3714 0.303401C16.0417 0.303401 15.7629 0.552437 15.6279 0.966327C15.5331 1.2557 15.3508 1.42231 15.1315 1.42231C14.9842 1.42231 14.8281 1.34865 14.6791 1.2101C14.4686 1.01368 14.2406 0.908452 14.0214 0.908452C13.6566 0.908452 13.3725 1.19958 13.2813 1.66608C13.2182 1.99053 13.034 2.18344 12.7885 2.18344C12.657 2.18344 12.5132 2.12908 12.3711 2.0256C12.1694 1.88004 11.9625 1.80463 11.7696 1.80463C11.3609 1.80463 11.0751 2.13785 11.0417 2.65345C11.0172 3.01648 10.8348 3.23395 10.5524 3.23395C10.4384 3.23395 10.3104 3.19712 10.1824 3.12697C9.78253 2.90775 9.3932 2.93406 9.15819 3.18309C8.9986 3.35145 8.92319 3.60575 8.94072 3.91617C8.953 4.13013 8.90214 4.30901 8.79691 4.42125C8.65661 4.57032 8.41459 4.59663 8.14802 4.49316C7.7429 4.33532 7.37285 4.39495 7.16415 4.64574C7.00631 4.83514 6.95545 5.10873 7.01508 5.43143C7.05717 5.65416 7.0221 5.84707 6.91863 5.97159C6.79411 6.12241 6.56612 6.17152 6.29954 6.10312C5.89618 6.0014 5.54893 6.0926 5.36654 6.34339C5.21396 6.55209 5.18941 6.84672 5.29463 7.17643C5.36829 7.40617 5.35251 7.60785 5.25254 7.7464C5.14381 7.89723 4.93336 7.96387 4.67029 7.93406C4.26166 7.8832 3.95475 8.00245 3.79516 8.255C3.64784 8.48474 3.6531 8.79516 3.80744 9.12487C3.91442 9.35461 3.91968 9.56506 3.82322 9.71589C3.72676 9.86847 3.5356 9.95265 3.2813 9.95265C2.89723 9.95265 2.60786 10.0947 2.47106 10.3455C2.33252 10.598 2.36934 10.9155 2.57454 11.2434C2.70958 11.4574 2.74114 11.6661 2.66398 11.8274C2.58681 11.9905 2.40793 12.0993 2.15714 12.1308C1.77482 12.1799 1.50824 12.3553 1.40126 12.6219C1.29604 12.8902 1.37145 13.2006 1.61522 13.4988C1.77657 13.6934 1.83269 13.8969 1.77832 14.067C1.7222 14.2371 1.55735 14.3669 1.31357 14.4318C0.941775 14.53 0.696247 14.7352 0.626096 15.014C0.554192 15.2929 0.668187 15.5928 0.94879 15.8576C1.13294 16.0312 1.21536 16.2241 1.18204 16.4013C1.14872 16.5784 1.0014 16.7275 0.766398 16.8222C0.408629 16.966 0.192915 17.201 0.156086 17.4868C0.119256 17.7727 0.271834 18.0551 0.582252 18.2831C0.785689 18.4321 0.892669 18.6145 0.880393 18.7934C0.86987 18.9723 0.741845 19.1389 0.52087 19.2634C0.184146 19.4511 0 19.7124 0 20C0 20.2876 0.1859 20.5489 0.52087 20.7366C0.741845 20.8593 0.86987 21.026 0.880393 21.2066C0.890916 21.3855 0.785689 21.5661 0.582252 21.7169C0.271834 21.9449 0.12101 22.2273 0.156086 22.5131C0.192915 22.799 0.408629 23.034 0.764644 23.1778C0.999649 23.2725 1.14697 23.4216 1.18029 23.5987C1.21361 23.7759 1.13118 23.9688 0.947036 24.1424C0.666433 24.4072 0.552438 24.7071 0.624342 24.986C0.696247 25.2648 0.940021 25.4718 1.31182 25.5682C1.55559 25.6314 1.72045 25.7611 1.77657 25.933C1.83094 26.1049 1.77482 26.3066 1.61347 26.5012C1.36969 26.7994 1.29428 27.1115 1.39951 27.3781C1.50649 27.6447 1.77306 27.8201 2.15538 27.8692C2.40617 27.9025 2.58681 28.0095 2.66222 28.1726C2.73939 28.3357 2.70607 28.5426 2.57278 28.7566C2.36759 29.0828 2.33076 29.4002 2.46931 29.6528C2.60786 29.9053 2.89548 30.0438 3.27955 30.0456C3.53209 30.0456 3.72501 30.1315 3.82147 30.2824C3.91792 30.4349 3.91266 30.6436 3.80568 30.8734C3.65135 31.2048 3.64784 31.5135 3.79341 31.7432C3.953 31.994 4.25991 32.115 4.66854 32.0642C4.92985 32.0326 5.1403 32.101 5.25079 32.2518C5.35075 32.3904 5.36654 32.5921 5.29288 32.8218C5.18765 33.1515 5.21396 33.4462 5.36478 33.6549C5.54718 33.9056 5.89442 33.9968 6.29779 33.8951C6.56436 33.8267 6.7906 33.8758 6.91687 34.0267C7.02034 34.1512 7.05367 34.3441 7.01333 34.5668C6.9537 34.8913 7.00456 35.1631 7.1624 35.3543C7.36934 35.6033 7.74114 35.6647 8.14627 35.5051C8.41108 35.4016 8.6531 35.4279 8.79516 35.577C8.90039 35.6892 8.953 35.8681 8.93897 36.0821C8.92143 36.3907 8.99684 36.645 9.15644 36.8152C9.39144 37.0642 9.78078 37.0905 10.1806 36.8713C10.3104 36.8011 10.4349 36.7643 10.5507 36.7643C10.833 36.7643 11.0154 36.98 11.04 37.343C11.0751 37.8586 11.3609 38.1919 11.7678 38.1919C11.9607 38.1919 12.1677 38.1147 12.3693 37.9691C12.5114 37.8674 12.6552 37.813 12.7867 37.813C13.0323 37.813 13.2164 38.006 13.2796 38.3304C13.3707 38.7969 13.6531 39.0863 14.0196 39.0863C14.2389 39.0863 14.4669 38.9828 14.6773 38.7846C14.8264 38.6461 14.9825 38.5724 15.1298 38.5724C15.3508 38.5724 15.5314 38.739 15.6261 39.0284C15.7629 39.444 16.04 39.6913 16.3697 39.6913C16.6152 39.6913 16.8572 39.558 17.0695 39.3037C17.215 39.1301 17.3834 39.0337 17.5447 39.0337C17.7411 39.0337 17.9218 39.1757 18.041 39.4265C18.2129 39.7878 18.483 39.9965 18.7811 39.9965C19.053 39.9965 19.3108 39.8281 19.5072 39.5195C19.779 39.0933 20.214 39.0933 20.4858 39.5195C20.6822 39.8264 20.94 39.9965 21.2119 39.9965C21.5118 39.9965 21.7801 39.7878 21.9519 39.4265C22.0712 39.1775 22.2518 39.0337 22.4483 39.0337C22.6096 39.0337 22.7797 39.1301 22.9235 39.3037C23.134 39.5563 23.376 39.6913 23.6215 39.6913C23.9512 39.6913 24.2301 39.444 24.3669 39.0284C24.4616 38.739 24.644 38.5724 24.8632 38.5724C25.0105 38.5724 25.1666 38.6461 25.3157 38.7846C25.5261 38.9811 25.7541 39.0863 25.9733 39.0863C26.3399 39.0863 26.6222 38.7969 26.7134 38.3304C26.7766 38.006 26.9607 37.813 27.2062 37.813C27.3378 37.813 27.4816 37.8674 27.6236 37.9691C27.8253 38.1147 28.0323 38.1919 28.2252 38.1919C28.6321 38.1919 28.9197 37.8586 28.9548 37.343C28.9793 36.98 29.1617 36.7643 29.4423 36.7643C29.5563 36.7643 29.6843 36.8011 29.8123 36.8713C30.2122 37.0905 30.6015 37.0642 30.8365 36.8152C30.9961 36.645 31.0716 36.3925 31.054 36.0821C31.0417 35.8681 31.0926 35.6892 31.1978 35.577C31.3399 35.4279 31.5801 35.4016 31.8467 35.5051C32.2518 35.6629 32.6236 35.6033 32.8306 35.3543C32.9884 35.1631 33.0393 34.8913 32.9797 34.5668C32.9376 34.3441 32.9726 34.1512 33.0761 34.0267C33.2024 33.8758 33.4269 33.8285 33.6952 33.8951C34.0986 33.9968 34.4458 33.9056 34.6282 33.6549C34.779 33.4462 34.8053 33.1498 34.7001 32.8218C34.6264 32.5921 34.6422 32.3904 34.7422 32.2518C34.8509 32.1028 35.0614 32.0344 35.3244 32.0642C35.7348 32.1168 36.0417 31.994 36.1996 31.7432C36.3451 31.5135 36.3416 31.2031 36.1873 30.8734C36.0803 30.6436 36.0751 30.4332 36.1715 30.2824C36.268 30.1315 36.4591 30.0473 36.7134 30.0456C37.0975 30.0456 37.3869 29.9035 37.5237 29.6528C37.6622 29.4002 37.6254 29.0828 37.4202 28.7566C37.2852 28.5426 37.2536 28.3339 37.329 28.1726C37.4062 28.0095 37.5851 27.9025 37.8358 27.8692C38.2182 27.8201 38.4847 27.6447 38.5917 27.3781C38.697 27.1098 38.6215 26.7994 38.3778 26.5012C38.2164 26.3048 38.1585 26.1031 38.2147 25.933C38.2708 25.7611 38.4356 25.6331 38.6794 25.5682C39.0512 25.4718 39.2967 25.2631 39.3686 24.986C39.4388 24.7071 39.3248 24.4072 39.046 24.1424C38.8618 23.9688 38.7794 23.7759 38.8127 23.5987C38.846 23.4216 38.9933 23.2725 39.2283 23.1778C39.5861 23.0358 39.8018 22.799 39.8369 22.5131C39.8737 22.2273 39.7212 21.9449 39.4125 21.7169L39.416 21.7152ZM19.9982 37.1764C10.5279 37.1764 2.82182 29.4704 2.82182 20C2.82182 10.5296 10.5296 2.82357 20 2.82357C29.4704 2.82357 37.1764 10.5296 37.1764 20C37.1764 29.4704 29.4704 37.1764 20 37.1764H19.9982Z" fill="url(#paint2_linear_1711_139)"/>
<path d="M39.416 21.7152C39.2126 21.5661 39.1056 21.3837 39.1179 21.2048C39.1284 21.0242 39.2564 20.8593 39.4774 20.7348C39.8141 20.5472 39.9982 20.2859 39.9982 19.9982C39.9982 19.7106 39.8124 19.4493 39.4774 19.2617C39.2564 19.1389 39.1284 18.9723 39.1179 18.7917C39.1056 18.6128 39.2126 18.4304 39.416 18.2813C39.7264 18.0533 39.8772 17.771 39.8404 17.4868C39.8053 17.201 39.5879 16.966 39.2318 16.8222C38.9968 16.7275 38.8495 16.5784 38.8162 16.4013C38.7829 16.2241 38.8653 16.0312 39.0495 15.8576C39.3283 15.5928 39.4423 15.2929 39.3722 15.014C39.3002 14.7352 39.0565 14.5282 38.6829 14.4318C38.4374 14.3669 38.2725 14.2389 38.2182 14.067C38.1621 13.8969 38.2199 13.6934 38.3813 13.4988C38.625 13.2006 38.7022 12.8885 38.5952 12.6219C38.49 12.3553 38.2217 12.1799 37.8411 12.1308C37.5903 12.0975 37.4097 11.9905 37.3325 11.8274C37.2571 11.6661 37.2887 11.4574 37.4237 11.2434C37.6289 10.9172 37.664 10.598 37.5272 10.3455C37.3886 10.0929 37.101 9.9544 36.7169 9.95265C36.4644 9.95265 36.2715 9.86671 36.175 9.71589C36.0786 9.56506 36.0838 9.35461 36.1908 9.12487C36.3451 8.7934 36.3487 8.48474 36.2031 8.25324C36.0435 8.00245 35.7366 7.88144 35.328 7.93406C35.0649 7.96387 34.8562 7.89723 34.7457 7.7464C34.6457 7.60785 34.63 7.40617 34.7036 7.17643C34.8088 6.84672 34.7825 6.55209 34.6317 6.34339C34.4476 6.0926 34.1021 6.0014 33.6987 6.10312C33.4321 6.16976 33.2059 6.12241 33.0796 5.97159C32.9762 5.84707 32.9411 5.65591 32.9832 5.43143C33.0428 5.10698 32.9919 4.83514 32.8341 4.64398C32.6272 4.39495 32.2554 4.33532 31.8502 4.49316C31.5837 4.59663 31.3434 4.57208 31.2013 4.42125C31.0961 4.30901 31.0452 4.13013 31.0575 3.91617C31.0751 3.60575 31.0014 3.35321 30.8401 3.18309C30.6051 2.93406 30.2157 2.90775 29.8159 3.12697C29.6861 3.19712 29.5616 3.23395 29.4458 3.23395C29.1652 3.23395 28.9828 3.01824 28.9583 2.65345C28.9232 2.13785 28.6373 1.80463 28.2287 1.80463C28.0358 1.80463 27.8288 1.88179 27.6271 2.0256C27.4868 2.12732 27.3413 2.18344 27.2098 2.18344C26.9642 2.18344 26.7801 1.98877 26.7169 1.66608C26.6257 1.19958 26.3434 0.908452 25.9769 0.908452C25.7576 0.908452 25.5296 1.01368 25.3192 1.2101C25.1701 1.34865 25.014 1.42231 24.8667 1.42231C24.6457 1.42231 24.4651 1.2557 24.3704 0.966327C24.2336 0.550683 23.9548 0.303401 23.625 0.303401C23.3795 0.303401 23.1375 0.436688 22.927 0.690985C22.7832 0.864608 22.6131 0.961065 22.4518 0.961065C22.2554 0.961065 22.0747 0.81901 21.9555 0.568221C21.7836 0.206944 21.5135 -0.00175476 21.2136 -0.00175476C20.9418 -0.00175476 20.684 0.168361 20.4875 0.475271C20.2157 0.901437 19.7808 0.901437 19.5089 0.475271C19.3125 0.168361 19.0547 -0.00175476 18.7829 -0.00175476C18.4847 -0.00175476 18.2147 0.20519 18.0428 0.568221C17.9253 0.81901 17.7429 0.961065 17.5465 0.961065C17.3851 0.961065 17.2168 0.864608 17.0712 0.690985C16.8608 0.436688 16.6187 0.303401 16.3714 0.303401C16.0417 0.303401 15.7629 0.552437 15.6279 0.966327C15.5331 1.2557 15.3508 1.42231 15.1315 1.42231C14.9842 1.42231 14.8281 1.34865 14.6791 1.2101C14.4686 1.01368 14.2406 0.908452 14.0214 0.908452C13.6566 0.908452 13.3725 1.19958 13.2813 1.66608C13.2182 1.99053 13.034 2.18344 12.7885 2.18344C12.657 2.18344 12.5132 2.12908 12.3711 2.0256C12.1694 1.88004 11.9625 1.80463 11.7696 1.80463C11.3609 1.80463 11.0751 2.13785 11.0417 2.65345C11.0172 3.01648 10.8348 3.23395 10.5524 3.23395C10.4384 3.23395 10.3104 3.19712 10.1824 3.12697C9.78253 2.90775 9.3932 2.93406 9.15819 3.18309C8.9986 3.35145 8.92319 3.60575 8.94072 3.91617C8.953 4.13013 8.90214 4.30901 8.79691 4.42125C8.65661 4.57032 8.41459 4.59663 8.14802 4.49316C7.7429 4.33532 7.37285 4.39495 7.16415 4.64574C7.00631 4.83514 6.95545 5.10873 7.01508 5.43143C7.05717 5.65416 7.0221 5.84707 6.91863 5.97159C6.79411 6.12241 6.56612 6.17152 6.29954 6.10312C5.89618 6.0014 5.54893 6.0926 5.36654 6.34339C5.21396 6.55209 5.18941 6.84672 5.29463 7.17643C5.36829 7.40617 5.35251 7.60785 5.25254 7.7464C5.14381 7.89723 4.93336 7.96387 4.67029 7.93406C4.26166 7.8832 3.95475 8.00245 3.79516 8.255C3.64784 8.48474 3.6531 8.79516 3.80744 9.12487C3.91442 9.35461 3.91968 9.56506 3.82322 9.71589C3.72676 9.86847 3.5356 9.95265 3.2813 9.95265C2.89723 9.95265 2.60786 10.0947 2.47106 10.3455C2.33252 10.598 2.36934 10.9155 2.57454 11.2434C2.70958 11.4574 2.74114 11.6661 2.66398 11.8274C2.58681 11.9905 2.40793 12.0993 2.15714 12.1308C1.77482 12.1799 1.50824 12.3553 1.40126 12.6219C1.29604 12.8902 1.37145 13.2006 1.61522 13.4988C1.77657 13.6934 1.83269 13.8969 1.77832 14.067C1.7222 14.2371 1.55735 14.3669 1.31357 14.4318C0.941775 14.53 0.696247 14.7352 0.626096 15.014C0.554192 15.2929 0.668187 15.5928 0.94879 15.8576C1.13294 16.0312 1.21536 16.2241 1.18204 16.4013C1.14872 16.5784 1.0014 16.7275 0.766398 16.8222C0.408629 16.966 0.192915 17.201 0.156086 17.4868C0.119256 17.7727 0.271834 18.0551 0.582252 18.2831C0.785689 18.4321 0.892669 18.6145 0.880393 18.7934C0.86987 18.9723 0.741845 19.1389 0.52087 19.2634C0.184146 19.4511 0 19.7124 0 20C0 20.2876 0.1859 20.5489 0.52087 20.7366C0.741845 20.8593 0.86987 21.026 0.880393 21.2066C0.890916 21.3855 0.785689 21.5661 0.582252 21.7169C0.271834 21.9449 0.12101 22.2273 0.156086 22.5131C0.192915 22.799 0.408629 23.034 0.764644 23.1778C0.999649 23.2725 1.14697 23.4216 1.18029 23.5987C1.21361 23.7759 1.13118 23.9688 0.947036 24.1424C0.666433 24.4072 0.552438 24.7071 0.624342 24.986C0.696247 25.2648 0.940021 25.4718 1.31182 25.5682C1.55559 25.6314 1.72045 25.7611 1.77657 25.933C1.83094 26.1049 1.77482 26.3066 1.61347 26.5012C1.36969 26.7994 1.29428 27.1115 1.39951 27.3781C1.50649 27.6447 1.77306 27.8201 2.15538 27.8692C2.40617 27.9025 2.58681 28.0095 2.66222 28.1726C2.73939 28.3357 2.70607 28.5426 2.57278 28.7566C2.36759 29.0828 2.33076 29.4002 2.46931 29.6528C2.60786 29.9053 2.89548 30.0438 3.27955 30.0456C3.53209 30.0456 3.72501 30.1315 3.82147 30.2824C3.91792 30.4349 3.91266 30.6436 3.80568 30.8734C3.65135 31.2048 3.64784 31.5135 3.79341 31.7432C3.953 31.994 4.25991 32.115 4.66854 32.0642C4.92985 32.0326 5.1403 32.101 5.25079 32.2518C5.35075 32.3904 5.36654 32.5921 5.29288 32.8218C5.18765 33.1515 5.21396 33.4462 5.36478 33.6549C5.54718 33.9056 5.89442 33.9968 6.29779 33.8951C6.56436 33.8267 6.7906 33.8758 6.91687 34.0267C7.02034 34.1512 7.05367 34.3441 7.01333 34.5668C6.9537 34.8913 7.00456 35.1631 7.1624 35.3543C7.36934 35.6033 7.74114 35.6647 8.14627 35.5051C8.41108 35.4016 8.6531 35.4279 8.79516 35.577C8.90039 35.6892 8.953 35.8681 8.93897 36.0821C8.92143 36.3907 8.99684 36.645 9.15644 36.8152C9.39144 37.0642 9.78078 37.0905 10.1806 36.8713C10.3104 36.8011 10.4349 36.7643 10.5507 36.7643C10.833 36.7643 11.0154 36.98 11.04 37.343C11.0751 37.8586 11.3609 38.1919 11.7678 38.1919C11.9607 38.1919 12.1677 38.1147 12.3693 37.9691C12.5114 37.8674 12.6552 37.813 12.7867 37.813C13.0323 37.813 13.2164 38.006 13.2796 38.3304C13.3707 38.7969 13.6531 39.0863 14.0196 39.0863C14.2389 39.0863 14.4669 38.9828 14.6773 38.7846C14.8264 38.6461 14.9825 38.5724 15.1298 38.5724C15.3508 38.5724 15.5314 38.739 15.6261 39.0284C15.7629 39.444 16.04 39.6913 16.3697 39.6913C16.6152 39.6913 16.8572 39.558 17.0695 39.3037C17.215 39.1301 17.3834 39.0337 17.5447 39.0337C17.7411 39.0337 17.9218 39.1757 18.041 39.4265C18.2129 39.7878 18.483 39.9965 18.7811 39.9965C19.053 39.9965 19.3108 39.8281 19.5072 39.5195C19.779 39.0933 20.214 39.0933 20.4858 39.5195C20.6822 39.8264 20.94 39.9965 21.2119 39.9965C21.5118 39.9965 21.7801 39.7878 21.9519 39.4265C22.0712 39.1775 22.2518 39.0337 22.4483 39.0337C22.6096 39.0337 22.7797 39.1301 22.9235 39.3037C23.134 39.5563 23.376 39.6913 23.6215 39.6913C23.9512 39.6913 24.2301 39.444 24.3669 39.0284C24.4616 38.739 24.644 38.5724 24.8632 38.5724C25.0105 38.5724 25.1666 38.6461 25.3157 38.7846C25.5261 38.9811 25.7541 39.0863 25.9733 39.0863C26.3399 39.0863 26.6222 38.7969 26.7134 38.3304C26.7766 38.006 26.9607 37.813 27.2062 37.813C27.3378 37.813 27.4816 37.8674 27.6236 37.9691C27.8253 38.1147 28.0323 38.1919 28.2252 38.1919C28.6321 38.1919 28.9197 37.8586 28.9548 37.343C28.9793 36.98 29.1617 36.7643 29.4423 36.7643C29.5563 36.7643 29.6843 36.8011 29.8123 36.8713C30.2122 37.0905 30.6015 37.0642 30.8365 36.8152C30.9961 36.645 31.0716 36.3925 31.054 36.0821C31.0417 35.8681 31.0926 35.6892 31.1978 35.577C31.3399 35.4279 31.5801 35.4016 31.8467 35.5051C32.2518 35.6629 32.6236 35.6033 32.8306 35.3543C32.9884 35.1631 33.0393 34.8913 32.9797 34.5668C32.9376 34.3441 32.9726 34.1512 33.0761 34.0267C33.2024 33.8758 33.4269 33.8285 33.6952 33.8951C34.0986 33.9968 34.4458 33.9056 34.6282 33.6549C34.779 33.4462 34.8053 33.1498 34.7001 32.8218C34.6264 32.5921 34.6422 32.3904 34.7422 32.2518C34.8509 32.1028 35.0614 32.0344 35.3244 32.0642C35.7348 32.1168 36.0417 31.994 36.1996 31.7432C36.3451 31.5135 36.3416 31.2031 36.1873 30.8734C36.0803 30.6436 36.0751 30.4332 36.1715 30.2824C36.268 30.1315 36.4591 30.0473 36.7134 30.0456C37.0975 30.0456 37.3869 29.9035 37.5237 29.6528C37.6622 29.4002 37.6254 29.0828 37.4202 28.7566C37.2852 28.5426 37.2536 28.3339 37.329 28.1726C37.4062 28.0095 37.5851 27.9025 37.8358 27.8692C38.2182 27.8201 38.4847 27.6447 38.5917 27.3781C38.697 27.1098 38.6215 26.7994 38.3778 26.5012C38.2164 26.3048 38.1585 26.1031 38.2147 25.933C38.2708 25.7611 38.4356 25.6331 38.6794 25.5682C39.0512 25.4718 39.2967 25.2631 39.3686 24.986C39.4388 24.7071 39.3248 24.4072 39.046 24.1424C38.8618 23.9688 38.7794 23.7759 38.8127 23.5987C38.846 23.4216 38.9933 23.2725 39.2283 23.1778C39.5861 23.0358 39.8018 22.799 39.8369 22.5131C39.8737 22.2273 39.7212 21.9449 39.4125 21.7169L39.416 21.7152ZM19.9982 37.1764C10.5279 37.1764 2.82182 29.4704 2.82182 20C2.82182 10.5296 10.5296 2.82357 20 2.82357C29.4704 2.82357 37.1764 10.5296 37.1764 20C37.1764 29.4704 29.4704 37.1764 20 37.1764H19.9982Z" fill="url(#paint3_linear_1711_139)"/>
<path d="M23.483 30.7524L23.155 30.0894L22.422 29.9825L22.9533 29.4651L22.8271 28.7355L23.483 29.081L24.1389 28.7355L24.0126 29.4651L24.5423 29.9825L23.8109 30.0894L23.483 30.7524Z" fill="#30302F"/>
<path d="M16.517 30.7524L16.1891 30.0894L15.4577 29.9825L15.9874 29.4651L15.8611 28.7355L16.517 29.081L17.1729 28.7355L17.0466 29.4651L17.578 29.9825L16.845 30.0894L16.517 30.7524Z" fill="#30302F"/>
<path d="M20 31.5749L19.672 30.9102L18.9407 30.805L19.4704 30.2876L19.3441 29.558L20 29.9018L20.6559 29.558L20.5296 30.2876L21.0593 30.805L20.328 30.9102L20 31.5749Z" fill="#30302F"/>
<path d="M23.483 9.5072L23.155 10.1701L22.422 10.2771L22.9533 10.7927L22.8271 11.5223L23.483 11.1785L24.1389 11.5223L24.0126 10.7927L24.5423 10.2771L23.8109 10.1701L23.483 9.5072Z" fill="#30302F"/>
<path d="M16.517 9.5072L16.1891 10.1701L15.4577 10.2771L15.9874 10.7927L15.8611 11.5223L16.517 11.1785L17.1729 11.5223L17.0466 10.7927L17.578 10.2771L16.845 10.1701L16.517 9.5072Z" fill="#30302F"/>
<path d="M20 8.68468L19.672 9.3476L18.9407 9.45458L19.4704 9.97194L19.3441 10.7015L20 10.356L20.6559 10.7015L20.5296 9.97194L21.0593 9.45458L20.328 9.3476L20 8.68468Z" fill="#30302F"/>
<path d="M13.2936 21.852C12.9639 21.852 12.6605 21.7994 12.3834 21.6941C12.1063 21.5889 11.866 21.4381 11.6626 21.2434C11.4574 21.0488 11.2995 20.8208 11.1855 20.5577C11.0716 20.2946 11.0154 20.007 11.0154 19.6931C11.0154 19.3792 11.0716 19.0915 11.1855 18.8285C11.2995 18.5654 11.4591 18.3374 11.6661 18.1428C11.873 17.9481 12.115 17.7973 12.3939 17.692C12.6727 17.5868 12.9779 17.5342 13.3129 17.5342C13.6829 17.5342 14.0161 17.5956 14.3125 17.7183C14.6089 17.8411 14.8579 18.02 15.0614 18.255L14.4405 18.8267C14.2897 18.6671 14.1249 18.5496 13.946 18.4725C13.7671 18.3953 13.5724 18.3567 13.362 18.3567C13.1515 18.3567 12.9744 18.3883 12.8078 18.4514C12.6412 18.5146 12.4974 18.6057 12.3746 18.725C12.2536 18.8443 12.1606 18.9863 12.094 19.1477C12.0291 19.3108 11.9958 19.4914 11.9958 19.6896C11.9958 19.8878 12.0291 20.0631 12.094 20.2262C12.1589 20.3893 12.2536 20.5314 12.3746 20.6524C12.4956 20.7734 12.6394 20.8664 12.8043 20.9295C12.9691 20.9926 13.1515 21.0242 13.3497 21.0242C13.5479 21.0242 13.7268 20.9944 13.9074 20.9312C14.088 20.8681 14.2634 20.7646 14.4353 20.6173L14.9842 21.3153C14.758 21.4854 14.4949 21.617 14.195 21.7082C13.8951 21.7994 13.5952 21.845 13.2971 21.845L13.2936 21.852ZM14.0986 21.1961V19.6282H14.9807V21.3223L14.0986 21.1978V21.1961Z" fill="#30302F"/>
<path d="M17.9025 21.852C17.5728 21.852 17.2676 21.7976 16.987 21.6906C16.7064 21.5837 16.4644 21.4328 16.2592 21.2382C16.054 21.0435 15.8962 20.8155 15.7822 20.5524C15.6682 20.2894 15.6121 20.0035 15.6121 19.6931C15.6121 19.3827 15.6682 19.0968 15.7822 18.8337C15.8962 18.5707 16.0558 18.3427 16.2627 18.148C16.4697 17.9533 16.7117 17.8025 16.9905 17.6955C17.2694 17.5886 17.571 17.5342 17.8972 17.5342C18.2234 17.5342 18.5303 17.5886 18.8074 17.6955C19.0845 17.8025 19.3248 17.9533 19.5282 18.148C19.7334 18.3427 19.893 18.5707 20.0088 18.8302C20.1245 19.0915 20.1824 19.3774 20.1824 19.6913C20.1824 20.0053 20.1245 20.2894 20.0088 20.5524C19.893 20.8173 19.7334 21.0452 19.5282 21.2382C19.323 21.4311 19.0828 21.5819 18.8074 21.6889C18.5303 21.7959 18.2304 21.8502 17.9042 21.8502L17.9025 21.852ZM17.8972 21.0295C18.0849 21.0295 18.2568 20.9979 18.4128 20.9348C18.5707 20.8716 18.7075 20.7804 18.8267 20.6612C18.946 20.5419 19.0389 20.4016 19.1038 20.2385C19.1687 20.0754 19.202 19.8948 19.202 19.6966C19.202 19.4984 19.1687 19.3178 19.1038 19.1547C19.0389 18.9916 18.946 18.8513 18.8302 18.732C18.7127 18.6128 18.5742 18.5216 18.4163 18.4584C18.2585 18.3953 18.0849 18.3637 17.8972 18.3637C17.7096 18.3637 17.5377 18.3953 17.3816 18.4584C17.2238 18.5216 17.087 18.6128 16.9677 18.732C16.8485 18.8513 16.7555 18.9933 16.6906 19.1547C16.6257 19.3178 16.5924 19.4984 16.5924 19.6966C16.5924 19.8948 16.6257 20.0719 16.6906 20.2368C16.7555 20.4016 16.8485 20.5437 16.9642 20.6629C17.0817 20.7822 17.2203 20.8734 17.3781 20.9365C17.5377 20.9996 17.7096 21.0312 17.8972 21.0312V21.0295Z" fill="#30302F"/>
<path d="M20.9085 21.7801V17.6061H21.8748V20.9926H23.967V21.7801H20.9085Z" fill="#30302F"/>
<path d="M24.5107 21.7801V17.6061H26.4065C26.859 17.6061 27.2589 17.692 27.6043 17.8657C27.9498 18.0393 28.2199 18.2795 28.4146 18.59C28.6093 18.9004 28.7075 19.2687 28.7075 19.6931C28.7075 20.1175 28.6093 20.4805 28.4146 20.7927C28.2199 21.1049 27.9498 21.3469 27.6043 21.5205C27.2589 21.6941 26.859 21.7801 26.4065 21.7801H24.5107ZM25.477 20.9874H26.3592C26.638 20.9874 26.8783 20.9348 27.0835 20.8295C27.2887 20.7243 27.4465 20.5735 27.5605 20.3788C27.6745 20.1841 27.7306 19.9561 27.7306 19.6931C27.7306 19.43 27.6745 19.1968 27.5605 19.0038C27.4465 18.8109 27.2887 18.6619 27.0835 18.5566C26.8783 18.4514 26.638 18.3988 26.3592 18.3988H25.477V20.9874Z" fill="#30302F"/>
</g>
<defs>
<linearGradient id="paint0_linear_1711_139" x1="19.8605" y1="34.2567" x2="19.8605" y2="-0.797637" gradientUnits="userSpaceOnUse">
<stop stop-color="#B87A2A"/>
<stop offset="0.1" stop-color="#C68D39"/>
<stop offset="0.37" stop-color="#E7BD60"/>
<stop offset="0.5" stop-color="#F5D06F"/>
<stop offset="0.63" stop-color="#E7BD60"/>
<stop offset="0.9" stop-color="#C68D39"/>
<stop offset="1" stop-color="#B87A2A"/>
</linearGradient>
<linearGradient id="paint1_linear_1711_139" x1="20" y1="5.88741" x2="20" y2="40.0754" gradientUnits="userSpaceOnUse">
<stop stop-color="#B87A2A"/>
<stop offset="0.1" stop-color="#C68D39"/>
<stop offset="0.37" stop-color="#E7BD60"/>
<stop offset="0.5" stop-color="#F5D06F"/>
<stop offset="0.63" stop-color="#E7BD60"/>
<stop offset="0.9" stop-color="#C68D39"/>
<stop offset="1" stop-color="#B87A2A"/>
</linearGradient>
<linearGradient id="paint2_linear_1711_139" x1="39.2231" y1="20" x2="-5.04209" y2="20" gradientUnits="userSpaceOnUse">
<stop stop-color="#B87A2A"/>
<stop offset="0.1" stop-color="#C68D39"/>
<stop offset="0.37" stop-color="#E7BD60"/>
<stop offset="0.5" stop-color="#F5D06F"/>
<stop offset="0.63" stop-color="#E7BD60"/>
<stop offset="0.9" stop-color="#C68D39"/>
<stop offset="1" stop-color="#B87A2A"/>
</linearGradient>
<linearGradient id="paint3_linear_1711_139" x1="39.2231" y1="20" x2="-5.04209" y2="20" gradientUnits="userSpaceOnUse">
<stop stop-color="#B87A2A"/>
<stop offset="0.1" stop-color="#C68D39"/>
<stop offset="0.37" stop-color="#E7BD60"/>
<stop offset="0.5" stop-color="#F5D06F"/>
<stop offset="0.63" stop-color="#E7BD60"/>
<stop offset="0.9" stop-color="#C68D39"/>
<stop offset="1" stop-color="#B87A2A"/>
</linearGradient>
<clipPath id="clip0_1711_139">
<rect width="40" height="40" fill="white"/>
</clipPath>
</defs>
</svg>
