<svg width="100" height="100" viewBox="0 0 100 100" fill="none" xmlns="http://www.w3.org/2000/svg">
<g clip-path="url(#clip0_1128_14616)">
<path d="M56.6387 85.6297C76.2943 81.7734 89.1021 62.7133 85.2458 43.0578C81.3896 23.4022 62.3295 10.5944 42.674 14.4507C23.0184 18.3069 10.2106 37.367 14.0669 57.0225C17.9231 76.6781 36.9832 89.4859 56.6387 85.6297Z" fill="url(#paint0_linear_1128_14616)"/>
<path d="M50.0001 86.8029C29.709 86.8029 13.1973 70.2955 13.1973 50C13.1973 29.7045 29.709 13.1971 50.0001 13.1971C70.2913 13.1971 86.803 29.7045 86.803 50C86.803 70.2955 70.2913 86.8029 50.0001 86.8029ZM50.0001 14.2669C30.2965 14.2669 14.2671 30.2964 14.2671 50C14.2671 69.7036 30.2965 85.7331 50.0001 85.7331C69.7038 85.7331 85.7332 69.7036 85.7332 50C85.7332 30.2964 69.7038 14.2669 50.0001 14.2669Z" fill="url(#paint1_linear_1128_14616)"/>
<path d="M98.54 54.288C98.0314 53.9153 97.7639 53.4593 97.7946 53.0121C97.8209 52.5605 98.141 52.1484 98.6934 51.8371C99.5353 51.3679 99.9956 50.7147 99.9956 49.9956C99.9956 49.2766 99.5309 48.6233 98.6934 48.1541C98.141 47.8472 97.8209 47.4307 97.7946 46.9791C97.7639 46.5319 98.0314 46.0759 98.54 45.7033C99.316 45.1333 99.6931 44.4274 99.601 43.7171C99.5133 43.0024 98.9697 42.4149 98.0796 42.0554C97.4921 41.8186 97.1238 41.446 97.0405 41.0031C96.9572 40.5603 97.1633 40.078 97.6236 39.644C98.3208 38.9819 98.6058 38.2322 98.4304 37.5351C98.2506 36.8379 97.6412 36.3206 96.7073 36.0794C96.0935 35.9172 95.6813 35.5971 95.5454 35.1675C95.4051 34.7422 95.5498 34.2336 95.9532 33.7469C96.5626 33.0016 96.7555 32.2211 96.4881 31.5547C96.225 30.8883 95.5542 30.4498 94.6028 30.3271C93.9758 30.2438 93.5242 29.9763 93.3313 29.5686C93.1428 29.1652 93.2217 28.6434 93.5593 28.1085C94.0723 27.293 94.1599 26.4951 93.818 25.8637C93.4716 25.2324 92.7525 24.886 91.7924 24.8816C91.161 24.8816 90.6787 24.6668 90.4376 24.2897C90.1964 23.9127 90.2096 23.3865 90.477 22.8122C90.8629 21.9835 90.8716 21.2118 90.5077 20.6331C90.1087 20.0061 89.3415 19.7036 88.3199 19.8351C87.6622 19.9097 87.1405 19.7431 86.8643 19.366C86.6143 19.0196 86.5749 18.5154 86.759 17.9411C87.0221 17.1168 86.9563 16.3802 86.5793 15.8585C86.1189 15.2315 85.2552 15.0035 84.2467 15.2578C83.5803 15.4244 83.0147 15.306 82.6991 14.929C82.4404 14.6177 82.3527 14.1398 82.4579 13.5786C82.607 12.7674 82.4798 12.0879 82.0852 11.61C81.5679 10.9874 80.6384 10.8383 79.6256 11.2329C78.9591 11.4916 78.3585 11.4302 78.0033 11.0531C77.7403 10.7725 77.6131 10.3253 77.6438 9.79041C77.6877 9.01437 77.5035 8.38301 77.1001 7.95772C76.5126 7.33514 75.5393 7.26937 74.5396 7.81742C74.2152 7.9928 73.9039 8.08487 73.6145 8.08487C72.913 8.08487 72.457 7.54559 72.3956 6.63363C72.308 5.34461 71.5933 4.51156 70.5717 4.51156C70.0894 4.51156 69.5721 4.70448 69.0679 5.064C68.7171 5.3183 68.3532 5.4586 68.0244 5.4586C67.4106 5.4586 66.9502 4.97193 66.7924 4.16519C66.5644 2.99894 65.8585 2.27112 64.9421 2.27112C64.3941 2.27112 63.8241 2.53419 63.298 3.02524C62.9253 3.37161 62.5351 3.55576 62.1668 3.55576C61.6143 3.55576 61.1628 3.13924 60.926 2.41581C60.584 1.3767 59.8869 0.758496 59.0626 0.758496C58.4488 0.758496 57.8437 1.09171 57.3176 1.72745C56.9581 2.16151 56.5328 2.40266 56.1294 2.40266C55.6384 2.40266 55.1868 2.04752 54.8886 1.42054C54.459 0.517352 53.7838 -0.00439453 53.034 -0.00439453C52.3544 -0.00439453 51.7099 0.420895 51.2189 1.18817C50.5393 2.25359 49.4519 2.25359 48.7724 1.18817C48.2813 0.420895 47.6368 -0.00439453 46.9572 -0.00439453C46.2119 -0.00439453 45.5367 0.512968 45.107 1.42054C44.8132 2.04752 44.3572 2.40266 43.8662 2.40266C43.4628 2.40266 43.0419 2.16151 42.678 1.72745C42.1519 1.09171 41.5468 0.758496 40.9286 0.758496C40.1043 0.758496 39.4072 1.38108 39.0696 2.41581C38.8329 3.13924 38.3769 3.55576 37.8288 3.55576C37.4605 3.55576 37.0703 3.37161 36.6976 3.02524C36.1715 2.53419 35.6015 2.27112 35.0535 2.27112C34.1415 2.27112 33.4313 2.99894 33.2033 4.16519C33.0454 4.97631 32.5851 5.4586 31.9712 5.4586C31.6424 5.4586 31.2829 5.32268 30.9277 5.064C30.4235 4.7001 29.9062 4.51156 29.4239 4.51156C28.4023 4.51156 27.6877 5.34461 27.6043 6.63363C27.543 7.5412 27.087 8.08487 26.3811 8.08487C26.0961 8.08487 25.776 7.9928 25.456 7.81742C24.4563 7.26937 23.483 7.33514 22.8955 7.95772C22.4965 8.37863 22.308 9.01437 22.3518 9.79041C22.3825 10.3253 22.2553 10.7725 21.9923 11.0531C21.6415 11.4258 21.0365 11.4916 20.37 11.2329C19.3572 10.8383 18.4321 10.9874 17.9104 11.6143C17.5158 12.0879 17.3886 12.7718 17.5377 13.5786C17.6429 14.1354 17.5552 14.6177 17.2966 14.929C16.9853 15.306 16.4153 15.4288 15.7489 15.2578C14.7404 15.0035 13.8723 15.2315 13.4163 15.8585C13.0349 16.3802 12.9735 17.1168 13.2366 17.9411C13.4207 18.5154 13.3813 19.0196 13.1314 19.366C12.8595 19.7431 12.3334 19.9097 11.6757 19.8351C10.6542 19.708 9.88688 20.0061 9.4879 20.6375C9.11961 21.2118 9.13276 21.9879 9.51859 22.8122C9.78604 23.3865 9.79919 23.9127 9.55805 24.2897C9.31691 24.6712 8.839 24.8816 8.20326 24.8816C7.24307 24.8816 6.51964 25.2367 6.17766 25.8637C5.83129 26.4951 5.92336 27.2887 6.43634 28.1085C6.77394 28.6434 6.85286 29.1652 6.65994 29.5686C6.46703 29.9763 6.01982 30.2481 5.39284 30.3271C4.43704 30.4498 3.77061 30.8883 3.50316 31.5547C3.24009 32.2255 3.42862 33.0016 4.03806 33.7469C4.44142 34.2336 4.58173 34.7422 4.44581 35.1675C4.30551 35.5928 3.89337 35.9172 3.28394 36.0794C2.35444 36.325 1.74062 36.8379 1.56524 37.5351C1.38548 38.2322 1.67047 38.9819 2.37197 39.644C2.83234 40.078 3.03841 40.5603 2.9551 41.0031C2.8718 41.446 2.50351 41.8186 1.91599 42.0554C1.02157 42.4149 0.482287 43.0024 0.390214 43.7171C0.298141 44.4318 0.679586 45.1377 1.45563 45.7076C1.96422 46.0803 2.23167 46.5363 2.20098 46.9835C2.17468 47.4307 1.85461 47.8472 1.30217 48.1585C0.460365 48.6277 0 49.2809 0 50C0 50.719 0.464749 51.3723 1.30217 51.8414C1.85461 52.1484 2.17468 52.5649 2.20098 53.0165C2.22729 53.4637 1.96422 53.9153 1.45563 54.2923C0.679586 54.8623 0.302525 55.5682 0.390214 56.2829C0.482287 56.9975 1.02157 57.585 1.91161 57.9446C2.49912 58.1813 2.86741 58.554 2.95072 58.9968C3.03402 59.4397 2.82796 59.9219 2.36759 60.356C1.66608 61.0181 1.38109 61.7678 1.56086 62.4649C1.74062 63.162 2.35005 63.6794 3.27955 63.9205C3.88899 64.0784 4.30112 64.4028 4.44142 64.8325C4.57734 65.2622 4.43704 65.7664 4.03367 66.2531C3.42424 66.9984 3.23571 67.7788 3.49877 68.4453C3.76622 69.1117 4.43266 69.5501 5.38846 69.6729C6.01543 69.7562 6.46703 70.0237 6.65556 70.4314C6.84847 70.8392 6.76517 71.3565 6.43195 71.8914C5.91898 72.7069 5.8269 73.5005 6.17327 74.1319C6.51964 74.7632 7.23869 75.1096 8.19888 75.114C8.83024 75.114 9.31252 75.3288 9.55367 75.7059C9.79481 76.0873 9.78166 76.6091 9.51421 77.1834C9.12838 78.0121 9.11961 78.7837 9.48351 79.3581C9.8825 79.9851 10.6498 80.2876 11.6713 80.1605C12.3246 80.0815 12.8508 80.2525 13.127 80.6296C13.3769 80.976 13.4163 81.4802 13.2322 82.0545C12.9691 82.8788 13.0349 83.6154 13.412 84.1371C13.8679 84.7641 14.7361 84.9921 15.7445 84.7378C16.4109 84.5668 16.9765 84.6896 17.2922 85.0666C17.5509 85.3779 17.6342 85.8602 17.5333 86.417C17.3843 87.2282 17.5114 87.9077 17.906 88.3856C18.4234 89.0082 19.3529 89.1617 20.3657 88.7627C21.0277 88.504 21.6328 88.5698 21.9879 88.9425C22.251 89.2231 22.3825 89.6703 22.3474 90.2052C22.3036 90.9768 22.4921 91.6126 22.8911 92.0379C23.4786 92.6605 24.4519 92.7262 25.4516 92.1782C25.776 92.0028 26.0873 91.9107 26.3767 91.9107C27.0826 91.9107 27.5386 92.45 27.6 93.3576C27.6877 94.6466 28.4023 95.4796 29.4195 95.4796C29.9018 95.4796 30.4192 95.2867 30.9234 94.9228C31.2785 94.6685 31.638 94.5326 31.9669 94.5326C32.5807 94.5326 33.041 95.0149 33.1989 95.826C33.4269 96.9923 34.1328 97.7157 35.0491 97.7157C35.5972 97.7157 36.1671 97.457 36.6933 96.9616C37.0659 96.6152 37.4562 96.4311 37.8244 96.4311C38.3769 96.4311 38.8285 96.8476 39.0652 97.571C39.4072 98.6101 40.1 99.2283 40.9242 99.2283C41.5381 99.2283 42.1431 98.8951 42.6736 98.2594C43.0375 97.8253 43.4584 97.5842 43.8618 97.5842C44.3529 97.5842 44.8045 97.9393 45.1026 98.5663C45.5323 99.4695 46.2075 99.9912 46.9528 99.9912C47.6324 99.9912 48.2769 99.5703 48.768 98.7987C49.4476 97.7332 50.5349 97.7332 51.2145 98.7987C51.7055 99.5659 52.3501 99.9912 53.0296 99.9912C53.7794 99.9912 54.4502 99.4695 54.8799 98.5663C55.178 97.9437 55.6296 97.5842 56.1207 97.5842C56.524 97.5842 56.9493 97.8253 57.3088 98.2594C57.835 98.8907 58.44 99.2283 59.0538 99.2283C59.8781 99.2283 60.5752 98.6101 60.9172 97.571C61.154 96.8476 61.61 96.4311 62.158 96.4311C62.5263 96.4311 62.9165 96.6152 63.2892 96.9616C63.8153 97.4526 64.3853 97.7157 64.9334 97.7157C65.8497 97.7157 66.5556 96.9923 66.7836 95.826C66.9414 95.0149 67.4018 94.5326 68.0156 94.5326C68.3444 94.5326 68.704 94.6685 69.0591 94.9228C69.5633 95.2867 70.0807 95.4796 70.563 95.4796C71.5801 95.4796 72.2992 94.6466 72.3869 93.3576C72.4483 92.45 72.9042 91.9107 73.6058 91.9107C73.8907 91.9107 74.2108 92.0028 74.5309 92.1782C75.5305 92.7262 76.5039 92.6605 77.0914 92.0379C77.4904 91.6126 77.6789 90.9812 77.635 90.2052C77.6044 89.6703 77.7315 89.2231 77.9946 88.9425C78.3497 88.5698 78.9504 88.504 79.6168 88.7627C80.6296 89.1573 81.5591 89.0082 82.0765 88.3856C82.4711 87.9077 82.5982 87.2282 82.4491 86.417C82.3439 85.8602 82.4316 85.3779 82.6903 85.0666C83.006 84.6896 83.5672 84.5712 84.238 84.7378C85.2464 84.9921 86.1145 84.7641 86.5705 84.1371C86.9476 83.6154 87.0133 82.8744 86.7503 82.0545C86.5661 81.4802 86.6056 80.976 86.8555 80.6296C87.1273 80.2569 87.6535 80.0859 88.3111 80.1605C89.3371 80.292 90.1043 79.9851 90.4989 79.3581C90.8629 78.7837 90.8541 78.0077 90.4683 77.1834C90.2008 76.6091 90.1877 76.0829 90.4288 75.7059C90.6699 75.3288 91.1478 75.1184 91.7836 75.114C92.7438 75.114 93.4672 74.7588 93.8092 74.1319C94.1556 73.5005 94.0635 72.7069 93.5505 71.8914C93.2129 71.3565 93.134 70.8348 93.3225 70.4314C93.5154 70.0237 93.9626 69.7562 94.5896 69.6729C95.5454 69.5501 96.2119 69.1117 96.4793 68.4453C96.7424 67.7745 96.5538 66.9984 95.9444 66.2531C95.541 65.762 95.3963 65.2578 95.5367 64.8325C95.6769 64.4028 96.0891 64.0828 96.6985 63.9205C97.628 63.6794 98.2418 63.1576 98.4216 62.4649C98.597 61.7678 98.312 61.0181 97.6149 60.356C97.1545 59.9219 96.9484 59.4397 97.0317 58.9968C97.115 58.554 97.4833 58.1813 98.0708 57.9446C98.9653 57.5894 99.5046 56.9975 99.5922 56.2829C99.6843 55.5682 99.3029 54.8623 98.5312 54.2923L98.54 54.288ZM49.9956 92.9411C26.3197 92.9411 7.05454 73.6759 7.05454 50C7.05454 26.3241 26.3241 7.05892 50 7.05892C73.6759 7.05892 92.9411 26.3241 92.9411 50C92.9411 73.6759 73.6759 92.9411 50 92.9411H49.9956Z" fill="url(#paint2_linear_1128_14616)"/>
<path d="M98.54 54.288C98.0314 53.9153 97.7639 53.4593 97.7946 53.0121C97.8209 52.5605 98.141 52.1484 98.6934 51.8371C99.5353 51.3679 99.9956 50.7147 99.9956 49.9956C99.9956 49.2766 99.5309 48.6233 98.6934 48.1541C98.141 47.8472 97.8209 47.4307 97.7946 46.9791C97.7639 46.5319 98.0314 46.0759 98.54 45.7033C99.316 45.1333 99.6931 44.4274 99.601 43.7171C99.5133 43.0024 98.9697 42.4149 98.0796 42.0554C97.4921 41.8186 97.1238 41.446 97.0405 41.0031C96.9572 40.5603 97.1633 40.078 97.6236 39.644C98.3208 38.9819 98.6058 38.2322 98.4304 37.5351C98.2506 36.8379 97.6412 36.3206 96.7073 36.0794C96.0935 35.9172 95.6813 35.5971 95.5454 35.1675C95.4051 34.7422 95.5498 34.2336 95.9532 33.7469C96.5626 33.0016 96.7555 32.2211 96.4881 31.5547C96.225 30.8883 95.5542 30.4498 94.6028 30.3271C93.9758 30.2438 93.5242 29.9763 93.3313 29.5686C93.1428 29.1652 93.2217 28.6434 93.5593 28.1085C94.0723 27.293 94.1599 26.4951 93.818 25.8637C93.4716 25.2324 92.7525 24.886 91.7924 24.8816C91.161 24.8816 90.6787 24.6668 90.4376 24.2897C90.1964 23.9127 90.2096 23.3865 90.477 22.8122C90.8629 21.9835 90.8716 21.2118 90.5077 20.6331C90.1087 20.0061 89.3415 19.7036 88.3199 19.8351C87.6622 19.9097 87.1405 19.7431 86.8643 19.366C86.6143 19.0196 86.5749 18.5154 86.759 17.9411C87.0221 17.1168 86.9563 16.3802 86.5793 15.8585C86.1189 15.2315 85.2552 15.0035 84.2467 15.2578C83.5803 15.4244 83.0147 15.306 82.6991 14.929C82.4404 14.6177 82.3527 14.1398 82.4579 13.5786C82.607 12.7674 82.4798 12.0879 82.0852 11.61C81.5679 10.9874 80.6384 10.8383 79.6256 11.2329C78.9591 11.4916 78.3585 11.4302 78.0033 11.0531C77.7403 10.7725 77.6131 10.3253 77.6438 9.79041C77.6877 9.01437 77.5035 8.38301 77.1001 7.95772C76.5126 7.33514 75.5393 7.26937 74.5396 7.81742C74.2152 7.9928 73.9039 8.08487 73.6145 8.08487C72.913 8.08487 72.457 7.54559 72.3956 6.63363C72.308 5.34461 71.5933 4.51156 70.5717 4.51156C70.0894 4.51156 69.5721 4.70448 69.0679 5.064C68.7171 5.3183 68.3532 5.4586 68.0244 5.4586C67.4106 5.4586 66.9502 4.97193 66.7924 4.16519C66.5644 2.99894 65.8585 2.27112 64.9421 2.27112C64.3941 2.27112 63.8241 2.53419 63.298 3.02524C62.9253 3.37161 62.5351 3.55576 62.1668 3.55576C61.6143 3.55576 61.1628 3.13924 60.926 2.41581C60.584 1.3767 59.8869 0.758496 59.0626 0.758496C58.4488 0.758496 57.8437 1.09171 57.3176 1.72745C56.9581 2.16151 56.5328 2.40266 56.1294 2.40266C55.6384 2.40266 55.1868 2.04752 54.8886 1.42054C54.459 0.517352 53.7838 -0.00439453 53.034 -0.00439453C52.3544 -0.00439453 51.7099 0.420895 51.2189 1.18817C50.5393 2.25359 49.4519 2.25359 48.7724 1.18817C48.2813 0.420895 47.6368 -0.00439453 46.9572 -0.00439453C46.2119 -0.00439453 45.5367 0.512968 45.107 1.42054C44.8132 2.04752 44.3572 2.40266 43.8662 2.40266C43.4628 2.40266 43.0419 2.16151 42.678 1.72745C42.1519 1.09171 41.5468 0.758496 40.9286 0.758496C40.1043 0.758496 39.4072 1.38108 39.0696 2.41581C38.8329 3.13924 38.3769 3.55576 37.8288 3.55576C37.4605 3.55576 37.0703 3.37161 36.6976 3.02524C36.1715 2.53419 35.6015 2.27112 35.0535 2.27112C34.1415 2.27112 33.4313 2.99894 33.2033 4.16519C33.0454 4.97631 32.5851 5.4586 31.9712 5.4586C31.6424 5.4586 31.2829 5.32268 30.9277 5.064C30.4235 4.7001 29.9062 4.51156 29.4239 4.51156C28.4023 4.51156 27.6877 5.34461 27.6043 6.63363C27.543 7.5412 27.087 8.08487 26.3811 8.08487C26.0961 8.08487 25.776 7.9928 25.456 7.81742C24.4563 7.26937 23.483 7.33514 22.8955 7.95772C22.4965 8.37863 22.308 9.01437 22.3518 9.79041C22.3825 10.3253 22.2553 10.7725 21.9923 11.0531C21.6415 11.4258 21.0365 11.4916 20.37 11.2329C19.3572 10.8383 18.4321 10.9874 17.9104 11.6143C17.5158 12.0879 17.3886 12.7718 17.5377 13.5786C17.6429 14.1354 17.5552 14.6177 17.2966 14.929C16.9853 15.306 16.4153 15.4288 15.7489 15.2578C14.7404 15.0035 13.8723 15.2315 13.4163 15.8585C13.0349 16.3802 12.9735 17.1168 13.2366 17.9411C13.4207 18.5154 13.3813 19.0196 13.1314 19.366C12.8595 19.7431 12.3334 19.9097 11.6757 19.8351C10.6542 19.708 9.88688 20.0061 9.4879 20.6375C9.11961 21.2118 9.13276 21.9879 9.51859 22.8122C9.78604 23.3865 9.79919 23.9127 9.55805 24.2897C9.31691 24.6712 8.839 24.8816 8.20326 24.8816C7.24307 24.8816 6.51964 25.2367 6.17766 25.8637C5.83129 26.4951 5.92336 27.2887 6.43634 28.1085C6.77394 28.6434 6.85286 29.1652 6.65994 29.5686C6.46703 29.9763 6.01982 30.2481 5.39284 30.3271C4.43704 30.4498 3.77061 30.8883 3.50316 31.5547C3.24009 32.2255 3.42862 33.0016 4.03806 33.7469C4.44142 34.2336 4.58173 34.7422 4.44581 35.1675C4.30551 35.5928 3.89337 35.9172 3.28394 36.0794C2.35444 36.325 1.74062 36.8379 1.56524 37.5351C1.38548 38.2322 1.67047 38.9819 2.37197 39.644C2.83234 40.078 3.03841 40.5603 2.9551 41.0031C2.8718 41.446 2.50351 41.8186 1.91599 42.0554C1.02157 42.4149 0.482287 43.0024 0.390214 43.7171C0.298141 44.4318 0.679586 45.1377 1.45563 45.7076C1.96422 46.0803 2.23167 46.5363 2.20098 46.9835C2.17468 47.4307 1.85461 47.8472 1.30217 48.1585C0.460365 48.6277 0 49.2809 0 50C0 50.719 0.464749 51.3723 1.30217 51.8414C1.85461 52.1484 2.17468 52.5649 2.20098 53.0165C2.22729 53.4637 1.96422 53.9153 1.45563 54.2923C0.679586 54.8623 0.302525 55.5682 0.390214 56.2829C0.482287 56.9975 1.02157 57.585 1.91161 57.9446C2.49912 58.1813 2.86741 58.554 2.95072 58.9968C3.03402 59.4397 2.82796 59.9219 2.36759 60.356C1.66608 61.0181 1.38109 61.7678 1.56086 62.4649C1.74062 63.162 2.35005 63.6794 3.27955 63.9205C3.88899 64.0784 4.30112 64.4028 4.44142 64.8325C4.57734 65.2622 4.43704 65.7664 4.03367 66.2531C3.42424 66.9984 3.23571 67.7788 3.49877 68.4453C3.76622 69.1117 4.43266 69.5501 5.38846 69.6729C6.01543 69.7562 6.46703 70.0237 6.65556 70.4314C6.84847 70.8392 6.76517 71.3565 6.43195 71.8914C5.91898 72.7069 5.8269 73.5005 6.17327 74.1319C6.51964 74.7632 7.23869 75.1096 8.19888 75.114C8.83024 75.114 9.31252 75.3288 9.55367 75.7059C9.79481 76.0873 9.78166 76.6091 9.51421 77.1834C9.12838 78.0121 9.11961 78.7837 9.48351 79.3581C9.8825 79.9851 10.6498 80.2876 11.6713 80.1605C12.3246 80.0815 12.8508 80.2525 13.127 80.6296C13.3769 80.976 13.4163 81.4802 13.2322 82.0545C12.9691 82.8788 13.0349 83.6154 13.412 84.1371C13.8679 84.7641 14.7361 84.9921 15.7445 84.7378C16.4109 84.5668 16.9765 84.6896 17.2922 85.0666C17.5509 85.3779 17.6342 85.8602 17.5333 86.417C17.3843 87.2282 17.5114 87.9077 17.906 88.3856C18.4234 89.0082 19.3529 89.1617 20.3657 88.7627C21.0277 88.504 21.6328 88.5698 21.9879 88.9425C22.251 89.2231 22.3825 89.6703 22.3474 90.2052C22.3036 90.9768 22.4921 91.6126 22.8911 92.0379C23.4786 92.6605 24.4519 92.7262 25.4516 92.1782C25.776 92.0028 26.0873 91.9107 26.3767 91.9107C27.0826 91.9107 27.5386 92.45 27.6 93.3576C27.6877 94.6466 28.4023 95.4796 29.4195 95.4796C29.9018 95.4796 30.4192 95.2867 30.9234 94.9228C31.2785 94.6685 31.638 94.5326 31.9669 94.5326C32.5807 94.5326 33.041 95.0149 33.1989 95.826C33.4269 96.9923 34.1328 97.7157 35.0491 97.7157C35.5972 97.7157 36.1671 97.457 36.6933 96.9616C37.0659 96.6152 37.4562 96.4311 37.8244 96.4311C38.3769 96.4311 38.8285 96.8476 39.0652 97.571C39.4072 98.6101 40.1 99.2283 40.9242 99.2283C41.5381 99.2283 42.1431 98.8951 42.6736 98.2594C43.0375 97.8253 43.4584 97.5842 43.8618 97.5842C44.3529 97.5842 44.8045 97.9393 45.1026 98.5663C45.5323 99.4695 46.2075 99.9912 46.9528 99.9912C47.6324 99.9912 48.2769 99.5703 48.768 98.7987C49.4476 97.7332 50.5349 97.7332 51.2145 98.7987C51.7055 99.5659 52.3501 99.9912 53.0296 99.9912C53.7794 99.9912 54.4502 99.4695 54.8799 98.5663C55.178 97.9437 55.6296 97.5842 56.1207 97.5842C56.524 97.5842 56.9493 97.8253 57.3088 98.2594C57.835 98.8907 58.44 99.2283 59.0538 99.2283C59.8781 99.2283 60.5752 98.6101 60.9172 97.571C61.154 96.8476 61.61 96.4311 62.158 96.4311C62.5263 96.4311 62.9165 96.6152 63.2892 96.9616C63.8153 97.4526 64.3853 97.7157 64.9334 97.7157C65.8497 97.7157 66.5556 96.9923 66.7836 95.826C66.9414 95.0149 67.4018 94.5326 68.0156 94.5326C68.3444 94.5326 68.704 94.6685 69.0591 94.9228C69.5633 95.2867 70.0807 95.4796 70.563 95.4796C71.5801 95.4796 72.2992 94.6466 72.3869 93.3576C72.4483 92.45 72.9042 91.9107 73.6058 91.9107C73.8907 91.9107 74.2108 92.0028 74.5309 92.1782C75.5305 92.7262 76.5039 92.6605 77.0914 92.0379C77.4904 91.6126 77.6789 90.9812 77.635 90.2052C77.6044 89.6703 77.7315 89.2231 77.9946 88.9425C78.3497 88.5698 78.9504 88.504 79.6168 88.7627C80.6296 89.1573 81.5591 89.0082 82.0765 88.3856C82.4711 87.9077 82.5982 87.2282 82.4491 86.417C82.3439 85.8602 82.4316 85.3779 82.6903 85.0666C83.006 84.6896 83.5672 84.5712 84.238 84.7378C85.2464 84.9921 86.1145 84.7641 86.5705 84.1371C86.9476 83.6154 87.0133 82.8744 86.7503 82.0545C86.5661 81.4802 86.6056 80.976 86.8555 80.6296C87.1273 80.2569 87.6535 80.0859 88.3111 80.1605C89.3371 80.292 90.1043 79.9851 90.4989 79.3581C90.8629 78.7837 90.8541 78.0077 90.4683 77.1834C90.2008 76.6091 90.1877 76.0829 90.4288 75.7059C90.6699 75.3288 91.1478 75.1184 91.7836 75.114C92.7438 75.114 93.4672 74.7588 93.8092 74.1319C94.1556 73.5005 94.0635 72.7069 93.5505 71.8914C93.2129 71.3565 93.134 70.8348 93.3225 70.4314C93.5154 70.0237 93.9626 69.7562 94.5896 69.6729C95.5454 69.5501 96.2119 69.1117 96.4793 68.4453C96.7424 67.7745 96.5538 66.9984 95.9444 66.2531C95.541 65.762 95.3963 65.2578 95.5367 64.8325C95.6769 64.4028 96.0891 64.0828 96.6985 63.9205C97.628 63.6794 98.2418 63.1576 98.4216 62.4649C98.597 61.7678 98.312 61.0181 97.6149 60.356C97.1545 59.9219 96.9484 59.4397 97.0317 58.9968C97.115 58.554 97.4833 58.1813 98.0708 57.9446C98.9653 57.5894 99.5046 56.9975 99.5922 56.2829C99.6843 55.5682 99.3029 54.8623 98.5312 54.2923L98.54 54.288ZM49.9956 92.9411C26.3197 92.9411 7.05454 73.6759 7.05454 50C7.05454 26.3241 26.3241 7.05892 50 7.05892C73.6759 7.05892 92.9411 26.3241 92.9411 50C92.9411 73.6759 73.6759 92.9411 50 92.9411H49.9956Z" fill="url(#paint3_linear_1128_14616)"/>
<path d="M58.7078 76.8809L57.8879 75.2236L56.0552 74.9561L57.3837 73.6627L57.068 71.8388L58.7078 72.7025L60.3475 71.8388L60.0319 73.6627L61.3559 74.9561L59.5276 75.2236L58.7078 76.8809Z" fill="#30302F"/>
<path d="M41.2927 76.8809L40.4728 75.2236L38.6445 74.9561L39.9686 73.6627L39.653 71.8388L41.2927 72.7025L42.9325 71.8388L42.6168 73.6627L43.9453 74.9561L42.1126 75.2236L41.2927 76.8809Z" fill="#30302F"/>
<path d="M50.0002 78.9372L49.1804 77.2755L47.3521 77.0124L48.6761 75.719L48.3605 73.8951L50.0002 74.7544L51.64 73.8951L51.3243 75.719L52.6484 77.0124L50.8201 77.2755L50.0002 78.9372Z" fill="#30302F"/>
<path d="M58.7078 23.768L57.8879 25.4253L56.0552 25.6927L57.3837 26.9818L57.068 28.8057L58.7078 27.9463L60.3475 28.8057L60.0319 26.9818L61.3559 25.6927L59.5276 25.4253L58.7078 23.768Z" fill="#30302F"/>
<path d="M41.2927 23.768L40.4728 25.4253L38.6445 25.6927L39.9686 26.9818L39.653 28.8057L41.2927 27.9463L42.9325 28.8057L42.6168 26.9818L43.9453 25.6927L42.1126 25.4253L41.2927 23.768Z" fill="#30302F"/>
<path d="M50.0002 21.7117L49.1804 23.369L47.3521 23.6364L48.6761 24.9298L48.3605 26.7538L50.0002 25.89L51.64 26.7538L51.3243 24.9298L52.6484 23.6364L50.8201 23.369L50.0002 21.7117Z" fill="#30302F"/>
<path d="M33.2339 54.6299C32.4097 54.6299 31.6512 54.4984 30.9584 54.2353C30.2657 53.9723 29.665 53.5952 29.1564 53.1085C28.6434 52.6219 28.2489 52.0519 27.9639 51.3942C27.6789 50.7366 27.5386 50.0175 27.5386 49.2327C27.5386 48.4479 27.6789 47.7288 27.9639 47.0712C28.2489 46.4135 28.6478 45.8435 29.1652 45.3569C29.6826 44.8702 30.2876 44.4931 30.9847 44.2301C31.6819 43.967 32.4447 43.8355 33.2822 43.8355C34.2073 43.8355 35.0403 43.9889 35.7813 44.2958C36.5223 44.6028 37.1449 45.05 37.6534 45.6375L36.1014 47.0668C35.7243 46.6678 35.3122 46.3741 34.8649 46.1811C34.4177 45.9882 33.9311 45.8918 33.4049 45.8918C32.8788 45.8918 32.436 45.9707 32.0195 46.1285C31.6029 46.2864 31.2434 46.5144 30.9365 46.8125C30.634 47.1106 30.4016 47.4658 30.235 47.8692C30.0728 48.2769 29.9895 48.7285 29.9895 49.2239C29.9895 49.7194 30.0728 50.1578 30.235 50.5656C30.3972 50.9733 30.634 51.3285 30.9365 51.631C31.239 51.9335 31.5986 52.1659 32.0107 52.3237C32.4228 52.4816 32.8788 52.5605 33.3742 52.5605C33.8697 52.5605 34.3169 52.486 34.7685 52.3281C35.2201 52.1703 35.6585 51.9116 36.0882 51.5433L37.4605 53.2883C36.8949 53.7136 36.2373 54.0424 35.4875 54.2704C34.7378 54.4984 33.9881 54.6124 33.2427 54.6124L33.2339 54.6299ZM35.2464 52.9902V49.0705H37.4518V53.3058L35.2464 52.9945V52.9902Z" fill="#30302F"/>
<path d="M44.7563 54.6299C43.9321 54.6299 43.1692 54.494 42.4677 54.2266C41.7662 53.9591 41.1611 53.5821 40.6481 53.0954C40.1352 52.6087 39.7406 52.0387 39.4556 51.3811C39.1706 50.7234 39.0303 50.0088 39.0303 49.2327C39.0303 48.4567 39.1706 47.742 39.4556 47.0843C39.7406 46.4267 40.1395 45.8567 40.6569 45.37C41.1743 44.8834 41.7793 44.5063 42.4764 44.2388C43.1736 43.9714 43.9277 43.8355 44.7432 43.8355C45.5587 43.8355 46.326 43.9714 47.0187 44.2388C47.7114 44.5063 48.3121 44.8834 48.8207 45.37C49.3337 45.8567 49.7327 46.4267 50.022 47.0756C50.3114 47.7289 50.4561 48.4435 50.4561 49.2283C50.4561 50.0131 50.3114 50.7234 50.022 51.3811C49.7327 52.0431 49.3337 52.6131 48.8207 53.0954C48.3077 53.5777 47.7071 53.9547 47.0187 54.2222C46.326 54.4896 45.5762 54.6256 44.7607 54.6256L44.7563 54.6299ZM44.7432 52.5736C45.2123 52.5736 45.642 52.4947 46.0322 52.3369C46.4268 52.179 46.7688 51.9511 47.0669 51.6529C47.3651 51.3548 47.5974 51.004 47.7597 50.5963C47.9219 50.1885 48.0052 49.7369 48.0052 49.2415C48.0052 48.746 47.9219 48.2944 47.7597 47.8867C47.5974 47.4789 47.3651 47.1282 47.0757 46.83C46.7819 46.5319 46.4356 46.3039 46.041 46.1461C45.6464 45.9882 45.2123 45.9093 44.7432 45.9093C44.2741 45.9093 43.8444 45.9882 43.4542 46.1461C43.0596 46.3039 42.7176 46.5319 42.4194 46.83C42.1213 47.1282 41.8889 47.4833 41.7267 47.8867C41.5645 48.2944 41.4812 48.746 41.4812 49.2415C41.4812 49.7369 41.5645 50.1797 41.7267 50.5919C41.8889 51.004 42.1213 51.3592 42.4107 51.6573C42.7044 51.9554 43.0508 52.1834 43.4454 52.3413C43.8444 52.4991 44.2741 52.578 44.7432 52.578V52.5736Z" fill="#30302F"/>
<path d="M52.271 54.4502V44.0152H54.6868V52.4816H59.9174V54.4502H52.271Z" fill="#30302F"/>
<path d="M61.2769 54.4502V44.0152H66.0164C67.1476 44.0152 68.1473 44.2301 69.011 44.6641C69.8747 45.0982 70.5499 45.6988 71.0366 46.4749C71.5233 47.2509 71.7688 48.1717 71.7688 49.2327C71.7688 50.2937 71.5233 51.2013 71.0366 51.9817C70.5499 52.7622 69.8747 53.3672 69.011 53.8013C68.1473 54.2353 67.1476 54.4502 66.0164 54.4502H61.2769ZM63.6927 52.4684H65.898C66.5952 52.4684 67.1958 52.3369 67.7088 52.0738C68.2218 51.8107 68.6164 51.4337 68.9014 50.947C69.1864 50.4603 69.3267 49.8904 69.3267 49.2327C69.3267 48.575 69.1864 47.9919 68.9014 47.5096C68.6164 47.0273 68.2218 46.6547 67.7088 46.3916C67.1958 46.1285 66.5952 45.997 65.898 45.997H63.6927V52.4684Z" fill="#30302F"/>
</g>
<defs>
<linearGradient id="paint0_linear_1128_14616" x1="49.6514" y1="85.6418" x2="49.6514" y2="-1.99411" gradientUnits="userSpaceOnUse">
<stop stop-color="#B87A2A"/>
<stop offset="0.1" stop-color="#C68D39"/>
<stop offset="0.37" stop-color="#E7BD60"/>
<stop offset="0.5" stop-color="#F5D06F"/>
<stop offset="0.63" stop-color="#E7BD60"/>
<stop offset="0.9" stop-color="#C68D39"/>
<stop offset="1" stop-color="#B87A2A"/>
</linearGradient>
<linearGradient id="paint1_linear_1128_14616" x1="50.0001" y1="14.7185" x2="50.0001" y2="100.189" gradientUnits="userSpaceOnUse">
<stop stop-color="#B87A2A"/>
<stop offset="0.1" stop-color="#C68D39"/>
<stop offset="0.37" stop-color="#E7BD60"/>
<stop offset="0.5" stop-color="#F5D06F"/>
<stop offset="0.63" stop-color="#E7BD60"/>
<stop offset="0.9" stop-color="#C68D39"/>
<stop offset="1" stop-color="#B87A2A"/>
</linearGradient>
<linearGradient id="paint2_linear_1128_14616" x1="98.0577" y1="50" x2="-12.6052" y2="50" gradientUnits="userSpaceOnUse">
<stop stop-color="#B87A2A"/>
<stop offset="0.1" stop-color="#C68D39"/>
<stop offset="0.37" stop-color="#E7BD60"/>
<stop offset="0.5" stop-color="#F5D06F"/>
<stop offset="0.63" stop-color="#E7BD60"/>
<stop offset="0.9" stop-color="#C68D39"/>
<stop offset="1" stop-color="#B87A2A"/>
</linearGradient>
<linearGradient id="paint3_linear_1128_14616" x1="98.0577" y1="50" x2="-12.6052" y2="50" gradientUnits="userSpaceOnUse">
<stop stop-color="#B87A2A"/>
<stop offset="0.1" stop-color="#C68D39"/>
<stop offset="0.37" stop-color="#E7BD60"/>
<stop offset="0.5" stop-color="#F5D06F"/>
<stop offset="0.63" stop-color="#E7BD60"/>
<stop offset="0.9" stop-color="#C68D39"/>
<stop offset="1" stop-color="#B87A2A"/>
</linearGradient>
<clipPath id="clip0_1128_14616">
<rect width="100" height="100" fill="white"/>
</clipPath>
</defs>
</svg>
