<svg xmlns="http://www.w3.org/2000/svg" width="18.894" height="13.495" viewBox="0 0 18.894 13.495">
  <g id="Group_26" data-name="Group 26" transform="translate(-2 -6)">
    <path id="Path_3916" data-name="Path 3916" d="M11.844,11.945,20.467,6.4a2.024,2.024,0,0,0-1.2-.4H4.421a2.024,2.024,0,0,0-1.2.4Z" transform="translate(-0.397 0)" fill="#fff"/>
    <path id="Path_3917" data-name="Path 3917" d="M11.811,14.05h0L11.7,14.1h-.054a.675.675,0,0,1-.2.054h0a.675.675,0,0,1-.169,0h-.054l-.115-.054h0L2.067,8.26a2.024,2.024,0,0,0-.067.5v9.447A2.024,2.024,0,0,0,4.024,20.23H18.869a2.024,2.024,0,0,0,2.024-2.024V8.759a2.024,2.024,0,0,0-.067-.5Z" transform="translate(0 -0.735)" fill="#fff"/>
  </g>
</svg>
