<svg width="20" height="21" viewBox="0 0 20 21" fill="none" xmlns="http://www.w3.org/2000/svg">
<path d="M3.75002 11.668V9.16802H2.9167V5.00006C2.9167 2.70265 4.7858 0.833372 7.08338 0.833372C9.09604 0.833372 10.7796 2.26787 11.1663 4.16796H12.0083C11.6102 1.80631 9.55633 0 7.08338 0C4.3264 0 2.08337 2.24286 2.08337 5.00006V9.16802H0V20.0015H14.1668V11.668H3.75002ZM8.512 17.5003H5.65481L6.11557 15.1525C5.83386 14.8916 5.65481 14.5217 5.65481 14.1074C5.65481 13.3184 6.2944 12.6788 7.08343 12.6788C7.87245 12.6788 8.51205 13.3184 8.51205 14.1074C8.51205 14.5217 8.333 14.8916 8.05129 15.1525L8.512 17.5003Z" fill="#0F9855"/>
<path d="M4.58301 5.00129V10.8347H19.9999V5.00129H4.58301ZM9.56805 8.38916L9.15138 9.11102L8.33308 8.63854V9.58342H7.49975V8.63854L6.68144 9.11102L6.26477 8.38916L7.083 7.91676L6.26477 7.44432L6.68144 6.72245L7.49975 7.19498V6.2501H8.33308V7.19498L9.15138 6.72245L9.56805 7.44432L8.74982 7.91676L9.56805 8.38916ZM13.7347 8.38916L13.3181 9.11102L12.4998 8.63854V9.58342H11.6664V8.63854L10.8481 9.11102L10.4315 8.38916L11.2497 7.91676L10.4315 7.44432L10.8481 6.72245L11.6664 7.19498V6.2501H12.4998V7.19498L13.3181 6.72245L13.7347 7.44432L12.9165 7.91676L13.7347 8.38916ZM17.9015 8.38916L17.4848 9.11102L16.6665 8.63854V9.58342H15.8332V8.63854L15.0149 9.11102L14.5982 8.38916L15.4164 7.91676L14.5982 7.44432L15.0149 6.72245L15.8332 7.19498V6.2501H16.6665V7.19498L17.4848 6.72245L17.9015 7.44432L17.0832 7.91676L17.9015 8.38916Z" fill="#0F9855"/>
</svg>
