<svg width="14" height="14" viewBox="0 0 14 14" fill="none" xmlns="http://www.w3.org/2000/svg">
<path d="M4.34214 0.608125C4.34214 0.608125 4.13589 0.125 3.82089 0.125C3.51089 0.125 3.34964 0.268125 3.24214 0.366875C3.13464 0.465625 1.33589 1.94375 1.33589 1.94375C1.33589 1.94375 0.812768 2.40062 0.852768 3.26C0.886518 4.11937 1.05464 5.3425 1.92714 7.04625C2.79339 8.74625 4.96152 11.3438 6.33152 12.2569C6.33152 12.2569 7.60089 13.2306 8.78214 13.6262C9.12527 13.7344 9.81152 13.875 9.97152 13.875C10.134 13.875 10.4209 13.875 10.7503 13.6344C11.0853 13.3912 12.9646 11.88 12.9646 11.88C12.9646 11.88 13.4246 11.4644 12.8903 10.9813C12.3534 10.4981 10.7234 9.42375 10.3746 9.14125C10.0253 8.85438 9.52777 8.98063 9.31277 9.175C9.09839 9.37062 8.71527 9.6925 8.66839 9.73312C8.59839 9.78687 8.40652 9.96125 8.19152 9.87438C7.91777 9.76625 6.79527 9.15688 5.75464 7.73313C4.72027 6.31063 4.60652 5.84562 4.45214 5.34312C4.42596 5.26884 4.4256 5.1879 4.45112 5.11338C4.47664 5.03887 4.52654 4.97514 4.59277 4.9325C4.74777 4.825 5.31839 4.34937 5.31839 4.34937C5.31839 4.34937 5.68777 3.985 5.53339 3.55563C5.37902 3.12625 4.34214 0.608125 4.34214 0.608125Z" fill="#0F9855"/>
</svg>
