<svg width="19" height="19" viewBox="0 0 19 19" fill="none" xmlns="http://www.w3.org/2000/svg">
<path d="M17.9319 1.79378L11.9437 17.5813C11.7 18.2244 11.1025 18.3525 10.6169 17.8663C10.6169 17.8663 6.84436 14.0938 6.50061 13.75C6.15686 13.4063 6.27623 12.7306 6.76623 12.2481L15.0887 4.0544C15.5787 3.5719 15.5331 3.5194 14.9869 3.93753L5.61748 11.115C5.07186 11.5332 4.22748 11.4775 3.74123 10.9913L1.13373 8.38377C0.647481 7.89752 0.775606 7.30065 1.41873 7.05628L17.2062 1.06815C17.8494 0.8244 18.1756 1.15065 17.9319 1.79378ZM4.44186 12.5757C4.19873 12.3325 3.99998 12.415 3.99998 12.7588V15.625C3.99998 15.9688 4.24123 16.105 4.53561 15.9282L6.03623 15.0275C6.33123 14.8507 6.37311 14.5069 6.12998 14.2638L4.44186 12.5757Z" fill="white"/>
</svg>
