<svg width="100" height="100" viewBox="0 0 100 100" fill="none" xmlns="http://www.w3.org/2000/svg">
<g clip-path="url(#clip0_163_6578)">
<path d="M56.6387 85.6297C76.2943 81.7734 89.1021 62.7133 85.2458 43.0578C81.3896 23.4023 62.3295 10.5944 42.674 14.4507C23.0184 18.3069 10.2106 37.367 14.0669 57.0226C17.9231 76.6781 36.9832 89.4859 56.6387 85.6297Z" fill="url(#paint0_linear_163_6578)"/>
<path d="M49.6491 86.7459C29.3579 86.7459 12.8462 70.2385 12.8462 49.943C12.8462 29.6475 29.3579 13.1401 49.6491 13.1401C69.9402 13.1401 86.4519 29.6475 86.4519 49.943C86.4519 70.2385 69.9402 86.7459 49.6491 86.7459ZM49.6491 14.2099C29.9455 14.2099 13.916 30.2394 13.916 49.943C13.916 69.6466 29.9455 85.6761 49.6491 85.6761C69.3527 85.6761 85.3821 69.6466 85.3821 49.943C85.3821 30.2394 69.3527 14.2099 49.6491 14.2099Z" fill="url(#paint1_linear_163_6578)"/>
<path d="M98.54 54.288C98.0314 53.9153 97.7639 53.4593 97.7946 53.0121C97.8209 52.5605 98.141 52.1484 98.6934 51.8371C99.5353 51.3679 99.9956 50.7147 99.9956 49.9956C99.9956 49.2766 99.5309 48.6233 98.6934 48.1542C98.141 47.8473 97.8209 47.4307 97.7946 46.9791C97.7639 46.5319 98.0314 46.0759 98.54 45.7033C99.316 45.1333 99.6931 44.4274 99.601 43.7171C99.5133 43.0025 98.9697 42.4149 98.0796 42.0554C97.4921 41.8187 97.1238 41.446 97.0405 41.0032C96.9572 40.5603 97.1633 40.078 97.6236 39.644C98.3208 38.9819 98.6058 38.2322 98.4304 37.5351C98.2506 36.838 97.6412 36.3206 96.7073 36.0795C96.0935 35.9172 95.6813 35.5972 95.5454 35.1675C95.4051 34.7422 95.5498 34.2336 95.9532 33.7469C96.5626 33.0016 96.7555 32.2212 96.4881 31.5547C96.225 30.8883 95.5542 30.4498 94.6028 30.3271C93.9758 30.2438 93.5242 29.9763 93.3313 29.5686C93.1428 29.1652 93.2217 28.6435 93.5593 28.1086C94.0723 27.2931 94.1599 26.4951 93.818 25.8637C93.4716 25.2324 92.7525 24.886 91.7924 24.8816C91.161 24.8816 90.6787 24.6668 90.4376 24.2897C90.1964 23.9127 90.2096 23.3865 90.477 22.8122C90.8629 21.9835 90.8716 21.2119 90.5077 20.6331C90.1087 20.0061 89.3415 19.7036 88.3199 19.8352C87.6622 19.9097 87.1405 19.7431 86.8643 19.366C86.6143 19.0196 86.5749 18.5154 86.759 17.9411C87.0221 17.1168 86.9563 16.3802 86.5793 15.8585C86.1189 15.2315 85.2552 15.0035 84.2468 15.2578C83.5803 15.4244 83.0147 15.306 82.6991 14.929C82.4404 14.6177 82.3527 14.1398 82.4579 13.5786C82.607 12.7675 82.4798 12.0879 82.0852 11.61C81.5679 10.9874 80.6384 10.8383 79.6256 11.2329C78.9591 11.4916 78.3585 11.4302 78.0033 11.0531C77.7403 10.7725 77.6131 10.3253 77.6438 9.79043C77.6877 9.01439 77.5035 8.38303 77.1001 7.95774C76.5126 7.33515 75.5393 7.26938 74.5396 7.81744C74.2152 7.99281 73.9039 8.08489 73.6145 8.08489C72.913 8.08489 72.457 7.5456 72.3956 6.63364C72.308 5.34462 71.5933 4.51158 70.5717 4.51158C70.0894 4.51158 69.5721 4.70449 69.0679 5.06402C68.7171 5.31831 68.3532 5.45862 68.0244 5.45862C67.4106 5.45862 66.9502 4.97194 66.7924 4.16521C66.5644 2.99895 65.8585 2.27114 64.9421 2.27114C64.3941 2.27114 63.8241 2.5342 63.298 3.02526C62.9253 3.37163 62.5351 3.55577 62.1668 3.55577C61.6143 3.55577 61.1628 3.13925 60.926 2.41582C60.584 1.37672 59.8869 0.758511 59.0626 0.758511C58.4488 0.758511 57.8437 1.09173 57.3176 1.72747C56.9581 2.16153 56.5328 2.40267 56.1294 2.40267C55.6384 2.40267 55.1868 2.04753 54.8886 1.42056C54.459 0.517368 53.7838 -0.00437927 53.034 -0.00437927C52.3544 -0.00437927 51.7099 0.42091 51.2189 1.18818C50.5393 2.2536 49.4519 2.2536 48.7724 1.18818C48.2813 0.42091 47.6368 -0.00437927 46.9572 -0.00437927C46.2119 -0.00437927 45.5367 0.512983 45.107 1.42056C44.8132 2.04753 44.3572 2.40267 43.8662 2.40267C43.4628 2.40267 43.0419 2.16153 42.678 1.72747C42.1519 1.09173 41.5468 0.758511 40.9286 0.758511C40.1043 0.758511 39.4072 1.3811 39.0696 2.41582C38.8329 3.13925 38.3769 3.55577 37.8288 3.55577C37.4605 3.55577 37.0703 3.37163 36.6976 3.02526C36.1715 2.5342 35.6015 2.27114 35.0535 2.27114C34.1415 2.27114 33.4313 2.99895 33.2033 4.16521C33.0454 4.97633 32.5851 5.45862 31.9712 5.45862C31.6424 5.45862 31.2829 5.3227 30.9277 5.06402C30.4235 4.70011 29.9062 4.51158 29.4239 4.51158C28.4023 4.51158 27.6877 5.34462 27.6043 6.63364C27.543 7.54122 27.087 8.08489 26.3811 8.08489C26.0961 8.08489 25.776 7.99281 25.456 7.81744C24.4563 7.26938 23.483 7.33515 22.8955 7.95774C22.4965 8.37864 22.308 9.01439 22.3518 9.79043C22.3825 10.3253 22.2553 10.7725 21.9923 11.0531C21.6415 11.4258 21.0365 11.4916 20.37 11.2329C19.3572 10.8383 18.4321 10.9874 17.9104 11.6144C17.5158 12.0879 17.3886 12.7718 17.5377 13.5786C17.6429 14.1354 17.5552 14.6177 17.2966 14.929C16.9853 15.306 16.4153 15.4288 15.7489 15.2578C14.7404 15.0035 13.8723 15.2315 13.4163 15.8585C13.0349 16.3802 12.9735 17.1168 13.2366 17.9411C13.4207 18.5154 13.3813 19.0196 13.1314 19.366C12.8595 19.7431 12.3334 19.9097 11.6757 19.8352C10.6542 19.708 9.88688 20.0061 9.4879 20.6375C9.11961 21.2119 9.13276 21.9879 9.51859 22.8122C9.78604 23.3865 9.79919 23.9127 9.55805 24.2897C9.31691 24.6712 8.839 24.8816 8.20326 24.8816C7.24307 24.8816 6.51964 25.2368 6.17766 25.8637C5.83129 26.4951 5.92336 27.2887 6.43634 28.1086C6.77394 28.6435 6.85286 29.1652 6.65994 29.5686C6.46703 29.9763 6.01982 30.2482 5.39284 30.3271C4.43704 30.4498 3.77061 30.8883 3.50316 31.5547C3.24009 32.2255 3.42862 33.0016 4.03806 33.7469C4.44142 34.2336 4.58173 34.7422 4.44581 35.1675C4.30551 35.5928 3.89337 35.9172 3.28394 36.0795C2.35444 36.325 1.74062 36.838 1.56524 37.5351C1.38548 38.2322 1.67047 38.9819 2.37197 39.644C2.83234 40.078 3.03841 40.5603 2.9551 41.0032C2.8718 41.446 2.50351 41.8187 1.91599 42.0554C1.02157 42.4149 0.482287 43.0025 0.390214 43.7171C0.298141 44.4318 0.679586 45.1377 1.45563 45.7077C1.96422 46.0803 2.23167 46.5363 2.20098 46.9835C2.17468 47.4307 1.85461 47.8473 1.30217 48.1585C0.460365 48.6277 0 49.281 0 50C0 50.7191 0.464749 51.3723 1.30217 51.8415C1.85461 52.1484 2.17468 52.5649 2.20098 53.0165C2.22729 53.4637 1.96422 53.9153 1.45563 54.2924C0.679586 54.8623 0.302525 55.5682 0.390214 56.2829C0.482287 56.9975 1.02157 57.5851 1.91161 57.9446C2.49912 58.1813 2.86741 58.554 2.95072 58.9968C3.03402 59.4397 2.82796 59.922 2.36759 60.356C1.66608 61.0181 1.38109 61.7678 1.56086 62.4649C1.74062 63.1621 2.35005 63.6794 3.27955 63.9206C3.88899 64.0784 4.30112 64.4028 4.44142 64.8325C4.57734 65.2622 4.43704 65.7664 4.03367 66.2531C3.42424 66.9984 3.23571 67.7789 3.49877 68.4453C3.76622 69.1117 4.43266 69.5502 5.38846 69.6729C6.01543 69.7562 6.46703 70.0237 6.65556 70.4314C6.84847 70.8392 6.76517 71.3565 6.43195 71.8914C5.91898 72.7069 5.8269 73.5005 6.17327 74.1319C6.51964 74.7632 7.23869 75.1096 8.19888 75.114C8.83024 75.114 9.31252 75.3288 9.55367 75.7059C9.79481 76.0873 9.78166 76.6091 9.51421 77.1834C9.12838 78.0121 9.11961 78.7838 9.48351 79.3581C9.8825 79.9851 10.6498 80.2876 11.6713 80.1605C12.3246 80.0816 12.8508 80.2525 13.127 80.6296C13.3769 80.976 13.4163 81.4802 13.2322 82.0545C12.9691 82.8788 13.0349 83.6154 13.412 84.1371C13.8679 84.7641 14.7361 84.9921 15.7445 84.7378C16.4109 84.5668 16.9765 84.6896 17.2922 85.0666C17.5509 85.3779 17.6342 85.8602 17.5333 86.4171C17.3843 87.2282 17.5114 87.9078 17.906 88.3857C18.4234 89.0082 19.3529 89.1617 20.3657 88.7627C21.0277 88.504 21.6328 88.5698 21.9879 88.9425C22.251 89.2231 22.3825 89.6703 22.3474 90.2052C22.3036 90.9769 22.4921 91.6126 22.8911 92.0379C23.4786 92.6605 24.4519 92.7262 25.4516 92.1782C25.776 92.0028 26.0873 91.9107 26.3767 91.9107C27.0826 91.9107 27.5386 92.45 27.6 93.3576C27.6877 94.6466 28.4023 95.4797 29.4195 95.4797C29.9018 95.4797 30.4192 95.2867 30.9234 94.9228C31.2785 94.6685 31.638 94.5326 31.9669 94.5326C32.5807 94.5326 33.041 95.0149 33.1989 95.826C33.4269 96.9923 34.1328 97.7157 35.0491 97.7157C35.5972 97.7157 36.1671 97.457 36.6933 96.9616C37.0659 96.6152 37.4562 96.4311 37.8244 96.4311C38.3769 96.4311 38.8285 96.8476 39.0652 97.571C39.4072 98.6101 40.1 99.2283 40.9242 99.2283C41.5381 99.2283 42.1431 98.8951 42.6736 98.2594C43.0375 97.8253 43.4584 97.5842 43.8618 97.5842C44.3529 97.5842 44.8045 97.9393 45.1026 98.5663C45.5323 99.4695 46.2075 99.9912 46.9528 99.9912C47.6324 99.9912 48.2769 99.5703 48.768 98.7987C49.4476 97.7333 50.5349 97.7333 51.2145 98.7987C51.7055 99.5659 52.3501 99.9912 53.0296 99.9912C53.7794 99.9912 54.4502 99.4695 54.8799 98.5663C55.178 97.9437 55.6296 97.5842 56.1207 97.5842C56.524 97.5842 56.9493 97.8253 57.3088 98.2594C57.835 98.8907 58.44 99.2283 59.0538 99.2283C59.8781 99.2283 60.5752 98.6101 60.9172 97.571C61.154 96.8476 61.61 96.4311 62.158 96.4311C62.5263 96.4311 62.9165 96.6152 63.2892 96.9616C63.8153 97.4526 64.3853 97.7157 64.9334 97.7157C65.8497 97.7157 66.5556 96.9923 66.7836 95.826C66.9414 95.0149 67.4018 94.5326 68.0156 94.5326C68.3444 94.5326 68.704 94.6685 69.0591 94.9228C69.5633 95.2867 70.0807 95.4797 70.563 95.4797C71.5801 95.4797 72.2992 94.6466 72.3869 93.3576C72.4483 92.45 72.9042 91.9107 73.6058 91.9107C73.8907 91.9107 74.2108 92.0028 74.5309 92.1782C75.5305 92.7262 76.5039 92.6605 77.0914 92.0379C77.4904 91.6126 77.6789 90.9812 77.635 90.2052C77.6044 89.6703 77.7315 89.2231 77.9946 88.9425C78.3497 88.5698 78.9504 88.504 79.6168 88.7627C80.6296 89.1573 81.5591 89.0082 82.0765 88.3857C82.4711 87.9078 82.5982 87.2282 82.4491 86.4171C82.3439 85.8602 82.4316 85.3779 82.6903 85.0666C83.006 84.6896 83.5672 84.5712 84.238 84.7378C85.2464 84.9921 86.1145 84.7641 86.5705 84.1371C86.9476 83.6154 87.0133 82.8744 86.7503 82.0545C86.5661 81.4802 86.6056 80.976 86.8555 80.6296C87.1273 80.2569 87.6535 80.0859 88.3111 80.1605C89.3371 80.292 90.1044 79.9851 90.4989 79.3581C90.8629 78.7838 90.8541 78.0077 90.4683 77.1834C90.2008 76.6091 90.1877 76.083 90.4288 75.7059C90.6699 75.3288 91.1478 75.1184 91.7836 75.114C92.7438 75.114 93.4672 74.7589 93.8092 74.1319C94.1556 73.5005 94.0635 72.7069 93.5505 71.8914C93.2129 71.3565 93.134 70.8348 93.3225 70.4314C93.5154 70.0237 93.9626 69.7562 94.5896 69.6729C95.5454 69.5502 96.2119 69.1117 96.4793 68.4453C96.7424 67.7745 96.5538 66.9984 95.9444 66.2531C95.541 65.762 95.3963 65.2578 95.5367 64.8325C95.677 64.4028 96.0891 64.0828 96.6985 63.9206C97.628 63.6794 98.2418 63.1577 98.4216 62.4649C98.597 61.7678 98.312 61.0181 97.6149 60.356C97.1545 59.922 96.9484 59.4397 97.0317 58.9968C97.115 58.554 97.4833 58.1813 98.0708 57.9446C98.9653 57.5894 99.5046 56.9975 99.5922 56.2829C99.6843 55.5682 99.3029 54.8623 98.5312 54.2924L98.54 54.288ZM49.9956 92.9411C26.3197 92.9411 7.05454 73.6759 7.05454 50C7.05454 26.3241 26.3241 7.05893 50 7.05893C73.6759 7.05893 92.9411 26.3241 92.9411 50C92.9411 73.6759 73.6759 92.9411 50 92.9411H49.9956Z" fill="url(#paint2_linear_163_6578)"/>
<path d="M98.54 54.288C98.0314 53.9153 97.7639 53.4593 97.7946 53.0121C97.8209 52.5605 98.141 52.1484 98.6934 51.8371C99.5353 51.3679 99.9956 50.7147 99.9956 49.9956C99.9956 49.2766 99.5309 48.6233 98.6934 48.1542C98.141 47.8473 97.8209 47.4307 97.7946 46.9791C97.7639 46.5319 98.0314 46.0759 98.54 45.7033C99.316 45.1333 99.6931 44.4274 99.601 43.7171C99.5133 43.0025 98.9697 42.4149 98.0796 42.0554C97.4921 41.8187 97.1238 41.446 97.0405 41.0032C96.9572 40.5603 97.1633 40.078 97.6236 39.644C98.3208 38.9819 98.6058 38.2322 98.4304 37.5351C98.2506 36.838 97.6412 36.3206 96.7073 36.0795C96.0935 35.9172 95.6813 35.5972 95.5454 35.1675C95.4051 34.7422 95.5498 34.2336 95.9532 33.7469C96.5626 33.0016 96.7555 32.2212 96.4881 31.5547C96.225 30.8883 95.5542 30.4498 94.6028 30.3271C93.9758 30.2438 93.5242 29.9763 93.3313 29.5686C93.1428 29.1652 93.2217 28.6435 93.5593 28.1086C94.0723 27.2931 94.1599 26.4951 93.818 25.8637C93.4716 25.2324 92.7525 24.886 91.7924 24.8816C91.161 24.8816 90.6787 24.6668 90.4376 24.2897C90.1964 23.9127 90.2096 23.3865 90.477 22.8122C90.8629 21.9835 90.8716 21.2119 90.5077 20.6331C90.1087 20.0061 89.3415 19.7036 88.3199 19.8352C87.6622 19.9097 87.1405 19.7431 86.8643 19.366C86.6143 19.0196 86.5749 18.5154 86.759 17.9411C87.0221 17.1168 86.9563 16.3802 86.5793 15.8585C86.1189 15.2315 85.2552 15.0035 84.2468 15.2578C83.5803 15.4244 83.0147 15.306 82.6991 14.929C82.4404 14.6177 82.3527 14.1398 82.4579 13.5786C82.607 12.7675 82.4798 12.0879 82.0852 11.61C81.5679 10.9874 80.6384 10.8383 79.6256 11.2329C78.9591 11.4916 78.3585 11.4302 78.0033 11.0531C77.7403 10.7725 77.6131 10.3253 77.6438 9.79043C77.6877 9.01439 77.5035 8.38303 77.1001 7.95774C76.5126 7.33515 75.5393 7.26938 74.5396 7.81744C74.2152 7.99281 73.9039 8.08489 73.6145 8.08489C72.913 8.08489 72.457 7.5456 72.3956 6.63364C72.308 5.34462 71.5933 4.51158 70.5717 4.51158C70.0894 4.51158 69.5721 4.70449 69.0679 5.06402C68.7171 5.31831 68.3532 5.45862 68.0244 5.45862C67.4106 5.45862 66.9502 4.97194 66.7924 4.16521C66.5644 2.99895 65.8585 2.27114 64.9421 2.27114C64.3941 2.27114 63.8241 2.5342 63.298 3.02526C62.9253 3.37163 62.5351 3.55577 62.1668 3.55577C61.6143 3.55577 61.1628 3.13925 60.926 2.41582C60.584 1.37672 59.8869 0.758511 59.0626 0.758511C58.4488 0.758511 57.8437 1.09173 57.3176 1.72747C56.9581 2.16153 56.5328 2.40267 56.1294 2.40267C55.6384 2.40267 55.1868 2.04753 54.8886 1.42056C54.459 0.517368 53.7838 -0.00437927 53.034 -0.00437927C52.3544 -0.00437927 51.7099 0.42091 51.2189 1.18818C50.5393 2.2536 49.4519 2.2536 48.7724 1.18818C48.2813 0.42091 47.6368 -0.00437927 46.9572 -0.00437927C46.2119 -0.00437927 45.5367 0.512983 45.107 1.42056C44.8132 2.04753 44.3572 2.40267 43.8662 2.40267C43.4628 2.40267 43.0419 2.16153 42.678 1.72747C42.1519 1.09173 41.5468 0.758511 40.9286 0.758511C40.1043 0.758511 39.4072 1.3811 39.0696 2.41582C38.8329 3.13925 38.3769 3.55577 37.8288 3.55577C37.4605 3.55577 37.0703 3.37163 36.6976 3.02526C36.1715 2.5342 35.6015 2.27114 35.0535 2.27114C34.1415 2.27114 33.4313 2.99895 33.2033 4.16521C33.0454 4.97633 32.5851 5.45862 31.9712 5.45862C31.6424 5.45862 31.2829 5.3227 30.9277 5.06402C30.4235 4.70011 29.9062 4.51158 29.4239 4.51158C28.4023 4.51158 27.6877 5.34462 27.6043 6.63364C27.543 7.54122 27.087 8.08489 26.3811 8.08489C26.0961 8.08489 25.776 7.99281 25.456 7.81744C24.4563 7.26938 23.483 7.33515 22.8955 7.95774C22.4965 8.37864 22.308 9.01439 22.3518 9.79043C22.3825 10.3253 22.2553 10.7725 21.9923 11.0531C21.6415 11.4258 21.0365 11.4916 20.37 11.2329C19.3572 10.8383 18.4321 10.9874 17.9104 11.6144C17.5158 12.0879 17.3886 12.7718 17.5377 13.5786C17.6429 14.1354 17.5552 14.6177 17.2966 14.929C16.9853 15.306 16.4153 15.4288 15.7489 15.2578C14.7404 15.0035 13.8723 15.2315 13.4163 15.8585C13.0349 16.3802 12.9735 17.1168 13.2366 17.9411C13.4207 18.5154 13.3813 19.0196 13.1314 19.366C12.8595 19.7431 12.3334 19.9097 11.6757 19.8352C10.6542 19.708 9.88688 20.0061 9.4879 20.6375C9.11961 21.2119 9.13276 21.9879 9.51859 22.8122C9.78604 23.3865 9.79919 23.9127 9.55805 24.2897C9.31691 24.6712 8.839 24.8816 8.20326 24.8816C7.24307 24.8816 6.51964 25.2368 6.17766 25.8637C5.83129 26.4951 5.92336 27.2887 6.43634 28.1086C6.77394 28.6435 6.85286 29.1652 6.65994 29.5686C6.46703 29.9763 6.01982 30.2482 5.39284 30.3271C4.43704 30.4498 3.77061 30.8883 3.50316 31.5547C3.24009 32.2255 3.42862 33.0016 4.03806 33.7469C4.44142 34.2336 4.58173 34.7422 4.44581 35.1675C4.30551 35.5928 3.89337 35.9172 3.28394 36.0795C2.35444 36.325 1.74062 36.838 1.56524 37.5351C1.38548 38.2322 1.67047 38.9819 2.37197 39.644C2.83234 40.078 3.03841 40.5603 2.9551 41.0032C2.8718 41.446 2.50351 41.8187 1.91599 42.0554C1.02157 42.4149 0.482287 43.0025 0.390214 43.7171C0.298141 44.4318 0.679586 45.1377 1.45563 45.7077C1.96422 46.0803 2.23167 46.5363 2.20098 46.9835C2.17468 47.4307 1.85461 47.8473 1.30217 48.1585C0.460365 48.6277 0 49.281 0 50C0 50.7191 0.464749 51.3723 1.30217 51.8415C1.85461 52.1484 2.17468 52.5649 2.20098 53.0165C2.22729 53.4637 1.96422 53.9153 1.45563 54.2924C0.679586 54.8623 0.302525 55.5682 0.390214 56.2829C0.482287 56.9975 1.02157 57.5851 1.91161 57.9446C2.49912 58.1813 2.86741 58.554 2.95072 58.9968C3.03402 59.4397 2.82796 59.922 2.36759 60.356C1.66608 61.0181 1.38109 61.7678 1.56086 62.4649C1.74062 63.1621 2.35005 63.6794 3.27955 63.9206C3.88899 64.0784 4.30112 64.4028 4.44142 64.8325C4.57734 65.2622 4.43704 65.7664 4.03367 66.2531C3.42424 66.9984 3.23571 67.7789 3.49877 68.4453C3.76622 69.1117 4.43266 69.5502 5.38846 69.6729C6.01543 69.7562 6.46703 70.0237 6.65556 70.4314C6.84847 70.8392 6.76517 71.3565 6.43195 71.8914C5.91898 72.7069 5.8269 73.5005 6.17327 74.1319C6.51964 74.7632 7.23869 75.1096 8.19888 75.114C8.83024 75.114 9.31252 75.3288 9.55367 75.7059C9.79481 76.0873 9.78166 76.6091 9.51421 77.1834C9.12838 78.0121 9.11961 78.7838 9.48351 79.3581C9.8825 79.9851 10.6498 80.2876 11.6713 80.1605C12.3246 80.0816 12.8508 80.2525 13.127 80.6296C13.3769 80.976 13.4163 81.4802 13.2322 82.0545C12.9691 82.8788 13.0349 83.6154 13.412 84.1371C13.8679 84.7641 14.7361 84.9921 15.7445 84.7378C16.4109 84.5668 16.9765 84.6896 17.2922 85.0666C17.5509 85.3779 17.6342 85.8602 17.5333 86.4171C17.3843 87.2282 17.5114 87.9078 17.906 88.3857C18.4234 89.0082 19.3529 89.1617 20.3657 88.7627C21.0277 88.504 21.6328 88.5698 21.9879 88.9425C22.251 89.2231 22.3825 89.6703 22.3474 90.2052C22.3036 90.9769 22.4921 91.6126 22.8911 92.0379C23.4786 92.6605 24.4519 92.7262 25.4516 92.1782C25.776 92.0028 26.0873 91.9107 26.3767 91.9107C27.0826 91.9107 27.5386 92.45 27.6 93.3576C27.6877 94.6466 28.4023 95.4797 29.4195 95.4797C29.9018 95.4797 30.4192 95.2867 30.9234 94.9228C31.2785 94.6685 31.638 94.5326 31.9669 94.5326C32.5807 94.5326 33.041 95.0149 33.1989 95.826C33.4269 96.9923 34.1328 97.7157 35.0491 97.7157C35.5972 97.7157 36.1671 97.457 36.6933 96.9616C37.0659 96.6152 37.4562 96.4311 37.8244 96.4311C38.3769 96.4311 38.8285 96.8476 39.0652 97.571C39.4072 98.6101 40.1 99.2283 40.9242 99.2283C41.5381 99.2283 42.1431 98.8951 42.6736 98.2594C43.0375 97.8253 43.4584 97.5842 43.8618 97.5842C44.3529 97.5842 44.8045 97.9393 45.1026 98.5663C45.5323 99.4695 46.2075 99.9912 46.9528 99.9912C47.6324 99.9912 48.2769 99.5703 48.768 98.7987C49.4476 97.7333 50.5349 97.7333 51.2145 98.7987C51.7055 99.5659 52.3501 99.9912 53.0296 99.9912C53.7794 99.9912 54.4502 99.4695 54.8799 98.5663C55.178 97.9437 55.6296 97.5842 56.1207 97.5842C56.524 97.5842 56.9493 97.8253 57.3088 98.2594C57.835 98.8907 58.44 99.2283 59.0538 99.2283C59.8781 99.2283 60.5752 98.6101 60.9172 97.571C61.154 96.8476 61.61 96.4311 62.158 96.4311C62.5263 96.4311 62.9165 96.6152 63.2892 96.9616C63.8153 97.4526 64.3853 97.7157 64.9334 97.7157C65.8497 97.7157 66.5556 96.9923 66.7836 95.826C66.9414 95.0149 67.4018 94.5326 68.0156 94.5326C68.3444 94.5326 68.704 94.6685 69.0591 94.9228C69.5633 95.2867 70.0807 95.4797 70.563 95.4797C71.5801 95.4797 72.2992 94.6466 72.3869 93.3576C72.4483 92.45 72.9042 91.9107 73.6058 91.9107C73.8907 91.9107 74.2108 92.0028 74.5309 92.1782C75.5305 92.7262 76.5039 92.6605 77.0914 92.0379C77.4904 91.6126 77.6789 90.9812 77.635 90.2052C77.6044 89.6703 77.7315 89.2231 77.9946 88.9425C78.3497 88.5698 78.9504 88.504 79.6168 88.7627C80.6296 89.1573 81.5591 89.0082 82.0765 88.3857C82.4711 87.9078 82.5982 87.2282 82.4491 86.4171C82.3439 85.8602 82.4316 85.3779 82.6903 85.0666C83.006 84.6896 83.5672 84.5712 84.238 84.7378C85.2464 84.9921 86.1145 84.7641 86.5705 84.1371C86.9476 83.6154 87.0133 82.8744 86.7503 82.0545C86.5661 81.4802 86.6056 80.976 86.8555 80.6296C87.1273 80.2569 87.6535 80.0859 88.3111 80.1605C89.3371 80.292 90.1044 79.9851 90.4989 79.3581C90.8629 78.7838 90.8541 78.0077 90.4683 77.1834C90.2008 76.6091 90.1877 76.083 90.4288 75.7059C90.6699 75.3288 91.1478 75.1184 91.7836 75.114C92.7438 75.114 93.4672 74.7589 93.8092 74.1319C94.1556 73.5005 94.0635 72.7069 93.5505 71.8914C93.2129 71.3565 93.134 70.8348 93.3225 70.4314C93.5154 70.0237 93.9626 69.7562 94.5896 69.6729C95.5454 69.5502 96.2119 69.1117 96.4793 68.4453C96.7424 67.7745 96.5538 66.9984 95.9444 66.2531C95.541 65.762 95.3963 65.2578 95.5367 64.8325C95.677 64.4028 96.0891 64.0828 96.6985 63.9206C97.628 63.6794 98.2418 63.1577 98.4216 62.4649C98.597 61.7678 98.312 61.0181 97.6149 60.356C97.1545 59.922 96.9484 59.4397 97.0317 58.9968C97.115 58.554 97.4833 58.1813 98.0708 57.9446C98.9653 57.5894 99.5046 56.9975 99.5922 56.2829C99.6843 55.5682 99.3029 54.8623 98.5312 54.2924L98.54 54.288ZM49.9956 92.9411C26.3197 92.9411 7.05454 73.6759 7.05454 50C7.05454 26.3241 26.3241 7.05893 50 7.05893C73.6759 7.05893 92.9411 26.3241 92.9411 50C92.9411 73.6759 73.6759 92.9411 50 92.9411H49.9956Z" fill="url(#paint3_linear_163_6578)"/>
<path d="M58.7078 76.8809L57.8879 75.2236L56.0552 74.9562L57.3837 73.6628L57.068 71.8388L58.7078 72.7026L60.3475 71.8388L60.0319 73.6628L61.3559 74.9562L59.5276 75.2236L58.7078 76.8809Z" fill="#30302F"/>
<path d="M41.2927 76.8809L40.4728 75.2236L38.6445 74.9562L39.9686 73.6628L39.653 71.8388L41.2927 72.7026L42.9325 71.8388L42.6168 73.6628L43.9453 74.9562L42.1126 75.2236L41.2927 76.8809Z" fill="#30302F"/>
<path d="M50.0002 78.9372L49.1804 77.2755L47.3521 77.0125L48.6761 75.719L48.3605 73.8951L50.0002 74.7545L51.64 73.8951L51.3243 75.719L52.6484 77.0125L50.8201 77.2755L50.0002 78.9372Z" fill="#30302F"/>
<path d="M58.7078 23.768L57.8879 25.4253L56.0552 25.6927L57.3837 26.9818L57.068 28.8057L58.7078 27.9463L60.3475 28.8057L60.0319 26.9818L61.3559 25.6927L59.5276 25.4253L58.7078 23.768Z" fill="#30302F"/>
<path d="M41.2927 23.768L40.4728 25.4253L38.6445 25.6927L39.9686 26.9818L39.653 28.8057L41.2927 27.9463L42.9325 28.8057L42.6168 26.9818L43.9453 25.6927L42.1126 25.4253L41.2927 23.768Z" fill="#30302F"/>
<path d="M50.0002 21.7117L49.1804 23.369L47.3521 23.6364L48.6761 24.9299L48.3605 26.7538L50.0002 25.89L51.64 26.7538L51.3243 24.9299L52.6484 23.6364L50.8201 23.369L50.0002 21.7117Z" fill="#30302F"/>
<path d="M17.9277 53.4812V45.2429H21.4923C22.2288 45.2429 22.8646 45.3613 23.3995 45.6024C23.9344 45.8436 24.3465 46.1856 24.6359 46.6328C24.9253 47.08 25.07 47.6149 25.07 48.2331C25.07 48.8513 24.9253 49.373 24.6359 49.8202C24.3465 50.2675 23.9344 50.6094 23.3995 50.8506C22.8646 51.0917 22.2288 51.2101 21.4923 51.2101H18.9844L19.8306 50.3508V53.4812H17.9233H17.9277ZM19.835 50.5612L18.9888 49.6536H21.387C21.9745 49.6536 22.413 49.5265 22.7067 49.2766C22.9961 49.0267 23.1408 48.6759 23.1408 48.2287C23.1408 47.7815 22.9961 47.422 22.7067 47.1677C22.4174 46.9178 21.9789 46.7906 21.387 46.7906H18.9888L19.835 45.883V50.5568V50.5612Z" fill="#30302F"/>
<path d="M26.4204 53.4812V45.2429H28.3276V51.9248H32.4578V53.4769H26.4204V53.4812Z" fill="#30302F"/>
<path d="M32.4927 53.4812L36.1624 45.2429H38.0434L41.7263 53.4812H39.727L36.7149 46.2075H37.469L34.4437 53.4812H32.4927ZM34.3298 51.7143L34.834 50.2675H39.0693L39.5867 51.7143H34.3254H34.3298Z" fill="#30302F"/>
<path d="M43.8836 53.4812V46.7994H41.2485V45.2473H48.4258V46.7994H45.7908V53.4812H43.8836Z" fill="#30302F"/>
<path d="M49.4517 53.4812V45.2429H51.3589V53.4812H49.4517Z" fill="#30302F"/>
<path d="M53.3101 53.4812V45.2429H54.8885L59.7464 51.175H58.9791V45.2429H60.8644V53.4812H59.2992L54.4281 47.5491H55.191V53.4812H53.3101Z" fill="#30302F"/>
<path d="M66.4763 53.6215C65.3056 53.6215 64.3937 53.2971 63.736 52.6438C63.0783 51.9905 62.7451 51.0654 62.7451 49.8553V45.2429H64.6523V49.7852C64.6523 50.57 64.8146 51.1356 65.1346 51.4776C65.4547 51.8195 65.9063 51.9949 66.4894 51.9949C67.0725 51.9949 67.5198 51.8239 67.8442 51.4776C68.1643 51.1312 68.3265 50.57 68.3265 49.7852V45.2429H70.2118V49.8553C70.2118 51.0654 69.883 51.9905 69.2209 52.6438C68.5589 53.2971 67.6469 53.6215 66.4807 53.6215H66.4763Z" fill="#30302F"/>
<path d="M72.0884 53.4812V45.2429H73.6668L77.1743 51.0567H76.3369L79.783 45.2429H81.3483L81.3702 53.4812H79.5813L79.5682 47.9876H79.897L77.1436 52.6131H76.2843L73.4738 47.9876H73.8728V53.4812H72.084H72.0884Z" fill="#30302F"/>
</g>
<defs>
<linearGradient id="paint0_linear_163_6578" x1="49.6514" y1="95.5462" x2="49.6514" y2="7.91032" gradientUnits="userSpaceOnUse">
<stop stop-color="#8F591F"/>
<stop offset="0.39" stop-color="#BC8644"/>
<stop offset="0.56" stop-color="#FEC06A"/>
<stop offset="1" stop-color="#7B4D1F"/>
</linearGradient>
<linearGradient id="paint1_linear_163_6578" x1="49.6491" y1="14.6659" x2="49.6491" y2="100.132" gradientUnits="userSpaceOnUse">
<stop stop-color="#8F591F"/>
<stop offset="0.39" stop-color="#BC8644"/>
<stop offset="0.56" stop-color="#FEC06A"/>
<stop offset="1" stop-color="#7B4D1F"/>
</linearGradient>
<linearGradient id="paint2_linear_163_6578" x1="98.0577" y1="50" x2="-12.6052" y2="50" gradientUnits="userSpaceOnUse">
<stop stop-color="#B87A2A"/>
<stop offset="0.1" stop-color="#C68D39"/>
<stop offset="0.37" stop-color="#E7BD60"/>
<stop offset="0.5" stop-color="#F5D06F"/>
<stop offset="0.63" stop-color="#E7BD60"/>
<stop offset="0.9" stop-color="#C68D39"/>
<stop offset="1" stop-color="#B87A2A"/>
</linearGradient>
<linearGradient id="paint3_linear_163_6578" x1="98.0577" y1="50" x2="-12.6052" y2="50" gradientUnits="userSpaceOnUse">
<stop offset="0.02" stop-color="#613610"/>
<stop offset="0.21" stop-color="#DC9439"/>
<stop offset="0.33" stop-color="#E49F45"/>
<stop offset="0.54" stop-color="#FBBC66"/>
<stop offset="0.56" stop-color="#FEC06A"/>
<stop offset="0.83" stop-color="#DC9439"/>
<stop offset="0.86" stop-color="#CF8A34"/>
<stop offset="0.91" stop-color="#AE7129"/>
<stop offset="0.97" stop-color="#784817"/>
<stop offset="1" stop-color="#613610"/>
</linearGradient>
<clipPath id="clip0_163_6578">
<rect width="100" height="100" fill="white"/>
</clipPath>
</defs>
</svg>
