<svg width="40" height="40" viewBox="0 0 40 40" fill="none" xmlns="http://www.w3.org/2000/svg">
<g clip-path="url(#clip0_2322_3478)">
<path d="M22.6554 34.2518C30.5177 32.7093 35.6408 25.0853 34.0983 17.2231C32.5558 9.36086 24.9318 4.23772 17.0695 5.78023C9.20732 7.32273 4.08419 14.9468 5.62669 22.809C7.1692 30.6712 14.7932 35.7943 22.6554 34.2518Z" fill="url(#paint0_linear_2322_3478)"/>
<path d="M19.8596 34.6983C11.7431 34.6983 5.13843 28.0954 5.13843 19.9772C5.13843 11.859 11.7431 5.25604 19.8596 5.25604C27.976 5.25604 34.5807 11.859 34.5807 19.9772C34.5807 28.0954 27.976 34.6983 19.8596 34.6983ZM19.8596 5.68396C11.9781 5.68396 5.56635 12.0957 5.56635 19.9772C5.56635 27.8586 11.9781 34.2704 19.8596 34.2704C27.741 34.2704 34.1528 27.8586 34.1528 19.9772C34.1528 12.0957 27.741 5.68396 19.8596 5.68396Z" fill="url(#paint1_linear_2322_3478)"/>
<path d="M39.416 21.7152C39.2126 21.5661 39.1056 21.3837 39.1179 21.2048C39.1284 21.0242 39.2564 20.8593 39.4774 20.7348C39.8141 20.5472 39.9982 20.2858 39.9982 19.9982C39.9982 19.7106 39.8124 19.4493 39.4774 19.2616C39.2564 19.1389 39.1284 18.9723 39.1179 18.7916C39.1056 18.6128 39.2126 18.4304 39.416 18.2813C39.7264 18.0533 39.8772 17.7709 39.8404 17.4868C39.8053 17.201 39.5879 16.966 39.2318 16.8222C38.9968 16.7274 38.8495 16.5784 38.8162 16.4012C38.7829 16.2241 38.8653 16.0312 39.0495 15.8576C39.3283 15.5928 39.4423 15.2929 39.3722 15.014C39.3002 14.7352 39.0565 14.5282 38.6829 14.4318C38.4374 14.3669 38.2725 14.2388 38.2182 14.067C38.1621 13.8969 38.2199 13.6934 38.3813 13.4988C38.625 13.2006 38.7022 12.8884 38.5952 12.6219C38.49 12.3553 38.2217 12.1799 37.8411 12.1308C37.5903 12.0975 37.4097 11.9905 37.3325 11.8274C37.2571 11.6661 37.2887 11.4574 37.4237 11.2434C37.6289 10.9172 37.664 10.598 37.5272 10.3455C37.3886 10.0929 37.101 9.95438 36.7169 9.95263C36.4644 9.95263 36.2715 9.8667 36.175 9.71587C36.0786 9.56505 36.0838 9.3546 36.1908 9.12485C36.3451 8.79339 36.3487 8.48473 36.2031 8.25323C36.0435 8.00244 35.7366 7.88143 35.328 7.93404C35.0649 7.96386 34.8562 7.89721 34.7457 7.74639C34.6457 7.60784 34.63 7.40616 34.7036 7.17641C34.8088 6.8467 34.7825 6.55207 34.6317 6.34337C34.4476 6.09258 34.1021 6.00139 33.6987 6.10311C33.4321 6.16975 33.2059 6.1224 33.0796 5.97157C32.9762 5.84705 32.9411 5.65589 32.9832 5.43141C33.0428 5.10696 32.9919 4.83513 32.8341 4.64397C32.6272 4.39493 32.2554 4.3353 31.8502 4.49314C31.5837 4.59662 31.3434 4.57206 31.2013 4.42124C31.0961 4.309 31.0452 4.13011 31.0575 3.91615C31.0751 3.60574 31.0014 3.35319 30.8401 3.18308C30.6051 2.93404 30.2157 2.90774 29.8159 3.12696C29.6861 3.19711 29.5616 3.23394 29.4458 3.23394C29.1652 3.23394 28.9828 3.01822 28.9583 2.65344C28.9232 2.13783 28.6373 1.80461 28.2287 1.80461C28.0358 1.80461 27.8288 1.88178 27.6271 2.02559C27.4868 2.12731 27.3413 2.18343 27.2098 2.18343C26.9642 2.18343 26.7801 1.98876 26.7169 1.66607C26.6257 1.19956 26.3434 0.908437 25.9769 0.908437C25.7576 0.908437 25.5296 1.01366 25.3192 1.21009C25.1701 1.34863 25.014 1.42229 24.8667 1.42229C24.6457 1.42229 24.4651 1.25568 24.3704 0.966311C24.2336 0.550668 23.9548 0.303386 23.625 0.303386C23.3795 0.303386 23.1375 0.436673 22.927 0.690969C22.7832 0.864593 22.6131 0.96105 22.4518 0.96105C22.2554 0.96105 22.0747 0.818995 21.9555 0.568205C21.7836 0.206929 21.5135 -0.00177002 21.2136 -0.00177002C20.9418 -0.00177002 20.684 0.168346 20.4875 0.475256C20.2157 0.901422 19.7808 0.901422 19.5089 0.475256C19.3125 0.168346 19.0547 -0.00177002 18.7829 -0.00177002C18.4847 -0.00177002 18.2147 0.205175 18.0428 0.568205C17.9253 0.818995 17.7429 0.96105 17.5465 0.96105C17.3851 0.96105 17.2168 0.864593 17.0712 0.690969C16.8608 0.436673 16.6187 0.303386 16.3714 0.303386C16.0417 0.303386 15.7629 0.552422 15.6279 0.966311C15.5331 1.25568 15.3508 1.42229 15.1315 1.42229C14.9842 1.42229 14.8281 1.34863 14.6791 1.21009C14.4686 1.01366 14.2406 0.908437 14.0214 0.908437C13.6566 0.908437 13.3725 1.19956 13.2813 1.66607C13.2182 1.99051 13.034 2.18343 12.7885 2.18343C12.657 2.18343 12.5132 2.12906 12.3711 2.02559C12.1694 1.88003 11.9625 1.80461 11.7696 1.80461C11.3609 1.80461 11.0751 2.13783 11.0417 2.65344C11.0172 3.01647 10.8348 3.23394 10.5524 3.23394C10.4384 3.23394 10.3104 3.19711 10.1824 3.12696C9.78253 2.90774 9.3932 2.93404 9.15819 3.18308C8.9986 3.35144 8.92319 3.60574 8.94072 3.91615C8.953 4.13011 8.90214 4.309 8.79691 4.42124C8.65661 4.57031 8.41459 4.59662 8.14802 4.49314C7.7429 4.3353 7.37285 4.39493 7.16415 4.64572C7.00631 4.83513 6.95545 5.10872 7.01508 5.43141C7.05717 5.65414 7.0221 5.84705 6.91863 5.97157C6.79411 6.1224 6.56612 6.1715 6.29954 6.10311C5.89618 6.00139 5.54893 6.09258 5.36654 6.34337C5.21396 6.55207 5.18941 6.8467 5.29463 7.17641C5.36829 7.40616 5.35251 7.60784 5.25254 7.74639C5.14381 7.89721 4.93336 7.96386 4.67029 7.93404C4.26166 7.88318 3.95475 8.00244 3.79516 8.25498C3.64784 8.48472 3.6531 8.79514 3.80744 9.12485C3.91442 9.3546 3.91968 9.56505 3.82322 9.71587C3.72676 9.86845 3.5356 9.95263 3.2813 9.95263C2.89723 9.95263 2.60786 10.0947 2.47106 10.3455C2.33252 10.598 2.36934 10.9155 2.57454 11.2434C2.70958 11.4574 2.74114 11.6661 2.66398 11.8274C2.58681 11.9905 2.40793 12.0992 2.15714 12.1308C1.77482 12.1799 1.50824 12.3553 1.40126 12.6219C1.29604 12.8902 1.37145 13.2006 1.61522 13.4988C1.77657 13.6934 1.83269 13.8969 1.77832 14.067C1.7222 14.2371 1.55735 14.3669 1.31357 14.4318C0.941775 14.53 0.696247 14.7352 0.626096 15.014C0.554192 15.2929 0.668187 15.5928 0.94879 15.8576C1.13294 16.0312 1.21536 16.2241 1.18204 16.4012C1.14872 16.5784 1.0014 16.7274 0.766398 16.8222C0.408629 16.966 0.192915 17.201 0.156086 17.4868C0.119256 17.7727 0.271834 18.0551 0.582252 18.283C0.785689 18.4321 0.892669 18.6145 0.880393 18.7934C0.86987 18.9723 0.741845 19.1389 0.52087 19.2634C0.184146 19.4511 0 19.7124 0 20C0 20.2876 0.1859 20.5489 0.52087 20.7366C0.741845 20.8593 0.86987 21.0259 0.880393 21.2066C0.890916 21.3855 0.785689 21.5661 0.582252 21.7169C0.271834 21.9449 0.12101 22.2273 0.156086 22.5131C0.192915 22.799 0.408629 23.034 0.764644 23.1778C0.999649 23.2725 1.14697 23.4216 1.18029 23.5987C1.21361 23.7759 1.13118 23.9688 0.947036 24.1424C0.666433 24.4072 0.552438 24.7071 0.624342 24.986C0.696247 25.2648 0.940021 25.4717 1.31182 25.5682C1.55559 25.6313 1.72045 25.7611 1.77657 25.933C1.83094 26.1049 1.77482 26.3065 1.61347 26.5012C1.36969 26.7994 1.29428 27.1115 1.39951 27.3781C1.50649 27.6447 1.77306 27.82 2.15538 27.8692C2.40617 27.9025 2.58681 28.0095 2.66222 28.1726C2.73939 28.3357 2.70607 28.5426 2.57278 28.7566C2.36759 29.0828 2.33076 29.4002 2.46931 29.6527C2.60786 29.9053 2.89548 30.0438 3.27955 30.0456C3.53209 30.0456 3.72501 30.1315 3.82147 30.2823C3.91792 30.4349 3.91266 30.6436 3.80568 30.8734C3.65135 31.2048 3.64784 31.5135 3.79341 31.7432C3.953 31.994 4.25991 32.115 4.66854 32.0642C4.92985 32.0326 5.1403 32.101 5.25079 32.2518C5.35075 32.3904 5.36654 32.5921 5.29288 32.8218C5.18765 33.1515 5.21396 33.4461 5.36478 33.6548C5.54718 33.9056 5.89442 33.9968 6.29779 33.8951C6.56436 33.8267 6.7906 33.8758 6.91687 34.0266C7.02034 34.1512 7.05367 34.3441 7.01333 34.5668C6.9537 34.8913 7.00456 35.1631 7.1624 35.3542C7.36934 35.6033 7.74114 35.6647 8.14627 35.5051C8.41108 35.4016 8.6531 35.4279 8.79516 35.577C8.90039 35.6892 8.953 35.8681 8.93897 36.0821C8.92143 36.3907 8.99684 36.645 9.15644 36.8151C9.39144 37.0642 9.78078 37.0905 10.1806 36.8713C10.3104 36.8011 10.4349 36.7643 10.5507 36.7643C10.833 36.7643 11.0154 36.98 11.04 37.343C11.0751 37.8586 11.3609 38.1918 11.7678 38.1918C11.9607 38.1918 12.1677 38.1147 12.3693 37.9691C12.5114 37.8674 12.6552 37.813 12.7867 37.813C13.0323 37.813 13.2164 38.0059 13.2796 38.3304C13.3707 38.7969 13.6531 39.0863 14.0196 39.0863C14.2389 39.0863 14.4669 38.9828 14.6773 38.7846C14.8264 38.6461 14.9825 38.5724 15.1298 38.5724C15.3508 38.5724 15.5314 38.739 15.6261 39.0284C15.7629 39.444 16.04 39.6913 16.3697 39.6913C16.6152 39.6913 16.8572 39.558 17.0695 39.3037C17.215 39.1301 17.3834 39.0337 17.5447 39.0337C17.7411 39.0337 17.9218 39.1757 18.041 39.4265C18.2129 39.7878 18.483 39.9965 18.7811 39.9965C19.053 39.9965 19.3108 39.8281 19.5072 39.5194C19.779 39.0933 20.214 39.0933 20.4858 39.5194C20.6822 39.8264 20.94 39.9965 21.2119 39.9965C21.5118 39.9965 21.7801 39.7878 21.9519 39.4265C22.0712 39.1775 22.2518 39.0337 22.4483 39.0337C22.6096 39.0337 22.7797 39.1301 22.9235 39.3037C23.134 39.5563 23.376 39.6913 23.6215 39.6913C23.9512 39.6913 24.2301 39.444 24.3669 39.0284C24.4616 38.739 24.644 38.5724 24.8632 38.5724C25.0105 38.5724 25.1666 38.6461 25.3157 38.7846C25.5261 38.981 25.7541 39.0863 25.9733 39.0863C26.3399 39.0863 26.6222 38.7969 26.7134 38.3304C26.7766 38.0059 26.9607 37.813 27.2062 37.813C27.3378 37.813 27.4816 37.8674 27.6236 37.9691C27.8253 38.1147 28.0323 38.1918 28.2252 38.1918C28.6321 38.1918 28.9197 37.8586 28.9548 37.343C28.9793 36.98 29.1617 36.7643 29.4423 36.7643C29.5563 36.7643 29.6843 36.8011 29.8123 36.8713C30.2122 37.0905 30.6015 37.0642 30.8365 36.8151C30.9961 36.645 31.0716 36.3925 31.054 36.0821C31.0417 35.8681 31.0926 35.6892 31.1978 35.577C31.3399 35.4279 31.5801 35.4016 31.8467 35.5051C32.2518 35.6629 32.6236 35.6033 32.8306 35.3542C32.9884 35.1631 33.0393 34.8913 32.9797 34.5668C32.9376 34.3441 32.9726 34.1512 33.0761 34.0266C33.2024 33.8758 33.4269 33.8285 33.6952 33.8951C34.0986 33.9968 34.4458 33.9056 34.6282 33.6548C34.779 33.4461 34.8053 33.1498 34.7001 32.8218C34.6264 32.5921 34.6422 32.3904 34.7422 32.2518C34.8509 32.1028 35.0614 32.0344 35.3244 32.0642C35.7348 32.1168 36.0417 31.994 36.1996 31.7432C36.3451 31.5135 36.3416 31.2031 36.1873 30.8734C36.0803 30.6436 36.0751 30.4332 36.1715 30.2823C36.268 30.1315 36.4591 30.0473 36.7134 30.0456C37.0975 30.0456 37.3869 29.9035 37.5237 29.6527C37.6622 29.4002 37.6254 29.0828 37.4202 28.7566C37.2852 28.5426 37.2536 28.3339 37.329 28.1726C37.4062 28.0095 37.5851 27.9025 37.8358 27.8692C38.2182 27.82 38.4847 27.6447 38.5917 27.3781C38.697 27.1098 38.6215 26.7994 38.3778 26.5012C38.2164 26.3048 38.1585 26.1031 38.2147 25.933C38.2708 25.7611 38.4356 25.6331 38.6794 25.5682C39.0512 25.4717 39.2967 25.263 39.3686 24.986C39.4388 24.7071 39.3248 24.4072 39.046 24.1424C38.8618 23.9688 38.7794 23.7759 38.8127 23.5987C38.846 23.4216 38.9933 23.2725 39.2283 23.1778C39.5861 23.0358 39.8018 22.799 39.8369 22.5131C39.8737 22.2273 39.7212 21.9449 39.4125 21.7169L39.416 21.7152ZM19.9982 37.1764C10.5279 37.1764 2.82182 29.4703 2.82182 20C2.82182 10.5296 10.5296 2.82355 20 2.82355C29.4704 2.82355 37.1764 10.5296 37.1764 20C37.1764 29.4703 29.4704 37.1764 20 37.1764H19.9982Z" fill="url(#paint2_linear_2322_3478)"/>
<path d="M39.416 21.7152C39.2126 21.5661 39.1056 21.3837 39.1179 21.2048C39.1284 21.0242 39.2564 20.8593 39.4774 20.7348C39.8141 20.5472 39.9982 20.2858 39.9982 19.9982C39.9982 19.7106 39.8124 19.4493 39.4774 19.2616C39.2564 19.1389 39.1284 18.9723 39.1179 18.7916C39.1056 18.6128 39.2126 18.4304 39.416 18.2813C39.7264 18.0533 39.8772 17.7709 39.8404 17.4868C39.8053 17.201 39.5879 16.966 39.2318 16.8222C38.9968 16.7274 38.8495 16.5784 38.8162 16.4012C38.7829 16.2241 38.8653 16.0312 39.0495 15.8576C39.3283 15.5928 39.4423 15.2929 39.3722 15.014C39.3002 14.7352 39.0565 14.5282 38.6829 14.4318C38.4374 14.3669 38.2725 14.2388 38.2182 14.067C38.1621 13.8969 38.2199 13.6934 38.3813 13.4988C38.625 13.2006 38.7022 12.8884 38.5952 12.6219C38.49 12.3553 38.2217 12.1799 37.8411 12.1308C37.5903 12.0975 37.4097 11.9905 37.3325 11.8274C37.2571 11.6661 37.2887 11.4574 37.4237 11.2434C37.6289 10.9172 37.664 10.598 37.5272 10.3455C37.3886 10.0929 37.101 9.95438 36.7169 9.95263C36.4644 9.95263 36.2715 9.8667 36.175 9.71587C36.0786 9.56505 36.0838 9.3546 36.1908 9.12485C36.3451 8.79339 36.3487 8.48473 36.2031 8.25323C36.0435 8.00244 35.7366 7.88143 35.328 7.93404C35.0649 7.96386 34.8562 7.89721 34.7457 7.74639C34.6457 7.60784 34.63 7.40616 34.7036 7.17641C34.8088 6.8467 34.7825 6.55207 34.6317 6.34337C34.4476 6.09258 34.1021 6.00139 33.6987 6.10311C33.4321 6.16975 33.2059 6.1224 33.0796 5.97157C32.9762 5.84705 32.9411 5.65589 32.9832 5.43141C33.0428 5.10696 32.9919 4.83513 32.8341 4.64397C32.6272 4.39493 32.2554 4.3353 31.8502 4.49314C31.5837 4.59662 31.3434 4.57206 31.2013 4.42124C31.0961 4.309 31.0452 4.13011 31.0575 3.91615C31.0751 3.60574 31.0014 3.35319 30.8401 3.18308C30.6051 2.93404 30.2157 2.90774 29.8159 3.12696C29.6861 3.19711 29.5616 3.23394 29.4458 3.23394C29.1652 3.23394 28.9828 3.01822 28.9583 2.65344C28.9232 2.13783 28.6373 1.80461 28.2287 1.80461C28.0358 1.80461 27.8288 1.88178 27.6271 2.02559C27.4868 2.12731 27.3413 2.18343 27.2098 2.18343C26.9642 2.18343 26.7801 1.98876 26.7169 1.66607C26.6257 1.19956 26.3434 0.908437 25.9769 0.908437C25.7576 0.908437 25.5296 1.01366 25.3192 1.21009C25.1701 1.34863 25.014 1.42229 24.8667 1.42229C24.6457 1.42229 24.4651 1.25568 24.3704 0.966311C24.2336 0.550668 23.9548 0.303386 23.625 0.303386C23.3795 0.303386 23.1375 0.436673 22.927 0.690969C22.7832 0.864593 22.6131 0.96105 22.4518 0.96105C22.2554 0.96105 22.0747 0.818995 21.9555 0.568205C21.7836 0.206929 21.5135 -0.00177002 21.2136 -0.00177002C20.9418 -0.00177002 20.684 0.168346 20.4875 0.475256C20.2157 0.901422 19.7808 0.901422 19.5089 0.475256C19.3125 0.168346 19.0547 -0.00177002 18.7829 -0.00177002C18.4847 -0.00177002 18.2147 0.205175 18.0428 0.568205C17.9253 0.818995 17.7429 0.96105 17.5465 0.96105C17.3851 0.96105 17.2168 0.864593 17.0712 0.690969C16.8608 0.436673 16.6187 0.303386 16.3714 0.303386C16.0417 0.303386 15.7629 0.552422 15.6279 0.966311C15.5331 1.25568 15.3508 1.42229 15.1315 1.42229C14.9842 1.42229 14.8281 1.34863 14.6791 1.21009C14.4686 1.01366 14.2406 0.908437 14.0214 0.908437C13.6566 0.908437 13.3725 1.19956 13.2813 1.66607C13.2182 1.99051 13.034 2.18343 12.7885 2.18343C12.657 2.18343 12.5132 2.12906 12.3711 2.02559C12.1694 1.88003 11.9625 1.80461 11.7696 1.80461C11.3609 1.80461 11.0751 2.13783 11.0417 2.65344C11.0172 3.01647 10.8348 3.23394 10.5524 3.23394C10.4384 3.23394 10.3104 3.19711 10.1824 3.12696C9.78253 2.90774 9.3932 2.93404 9.15819 3.18308C8.9986 3.35144 8.92319 3.60574 8.94072 3.91615C8.953 4.13011 8.90214 4.309 8.79691 4.42124C8.65661 4.57031 8.41459 4.59662 8.14802 4.49314C7.7429 4.3353 7.37285 4.39493 7.16415 4.64572C7.00631 4.83513 6.95545 5.10872 7.01508 5.43141C7.05717 5.65414 7.0221 5.84705 6.91863 5.97157C6.79411 6.1224 6.56612 6.1715 6.29954 6.10311C5.89618 6.00139 5.54893 6.09258 5.36654 6.34337C5.21396 6.55207 5.18941 6.8467 5.29463 7.17641C5.36829 7.40616 5.35251 7.60784 5.25254 7.74639C5.14381 7.89721 4.93336 7.96386 4.67029 7.93404C4.26166 7.88318 3.95475 8.00244 3.79516 8.25498C3.64784 8.48472 3.6531 8.79514 3.80744 9.12485C3.91442 9.3546 3.91968 9.56505 3.82322 9.71587C3.72676 9.86845 3.5356 9.95263 3.2813 9.95263C2.89723 9.95263 2.60786 10.0947 2.47106 10.3455C2.33252 10.598 2.36934 10.9155 2.57454 11.2434C2.70958 11.4574 2.74114 11.6661 2.66398 11.8274C2.58681 11.9905 2.40793 12.0992 2.15714 12.1308C1.77482 12.1799 1.50824 12.3553 1.40126 12.6219C1.29604 12.8902 1.37145 13.2006 1.61522 13.4988C1.77657 13.6934 1.83269 13.8969 1.77832 14.067C1.7222 14.2371 1.55735 14.3669 1.31357 14.4318C0.941775 14.53 0.696247 14.7352 0.626096 15.014C0.554192 15.2929 0.668187 15.5928 0.94879 15.8576C1.13294 16.0312 1.21536 16.2241 1.18204 16.4012C1.14872 16.5784 1.0014 16.7274 0.766398 16.8222C0.408629 16.966 0.192915 17.201 0.156086 17.4868C0.119256 17.7727 0.271834 18.0551 0.582252 18.283C0.785689 18.4321 0.892669 18.6145 0.880393 18.7934C0.86987 18.9723 0.741845 19.1389 0.52087 19.2634C0.184146 19.4511 0 19.7124 0 20C0 20.2876 0.1859 20.5489 0.52087 20.7366C0.741845 20.8593 0.86987 21.0259 0.880393 21.2066C0.890916 21.3855 0.785689 21.5661 0.582252 21.7169C0.271834 21.9449 0.12101 22.2273 0.156086 22.5131C0.192915 22.799 0.408629 23.034 0.764644 23.1778C0.999649 23.2725 1.14697 23.4216 1.18029 23.5987C1.21361 23.7759 1.13118 23.9688 0.947036 24.1424C0.666433 24.4072 0.552438 24.7071 0.624342 24.986C0.696247 25.2648 0.940021 25.4717 1.31182 25.5682C1.55559 25.6313 1.72045 25.7611 1.77657 25.933C1.83094 26.1049 1.77482 26.3065 1.61347 26.5012C1.36969 26.7994 1.29428 27.1115 1.39951 27.3781C1.50649 27.6447 1.77306 27.82 2.15538 27.8692C2.40617 27.9025 2.58681 28.0095 2.66222 28.1726C2.73939 28.3357 2.70607 28.5426 2.57278 28.7566C2.36759 29.0828 2.33076 29.4002 2.46931 29.6527C2.60786 29.9053 2.89548 30.0438 3.27955 30.0456C3.53209 30.0456 3.72501 30.1315 3.82147 30.2823C3.91792 30.4349 3.91266 30.6436 3.80568 30.8734C3.65135 31.2048 3.64784 31.5135 3.79341 31.7432C3.953 31.994 4.25991 32.115 4.66854 32.0642C4.92985 32.0326 5.1403 32.101 5.25079 32.2518C5.35075 32.3904 5.36654 32.5921 5.29288 32.8218C5.18765 33.1515 5.21396 33.4461 5.36478 33.6548C5.54718 33.9056 5.89442 33.9968 6.29779 33.8951C6.56436 33.8267 6.7906 33.8758 6.91687 34.0266C7.02034 34.1512 7.05367 34.3441 7.01333 34.5668C6.9537 34.8913 7.00456 35.1631 7.1624 35.3542C7.36934 35.6033 7.74114 35.6647 8.14627 35.5051C8.41108 35.4016 8.6531 35.4279 8.79516 35.577C8.90039 35.6892 8.953 35.8681 8.93897 36.0821C8.92143 36.3907 8.99684 36.645 9.15644 36.8151C9.39144 37.0642 9.78078 37.0905 10.1806 36.8713C10.3104 36.8011 10.4349 36.7643 10.5507 36.7643C10.833 36.7643 11.0154 36.98 11.04 37.343C11.0751 37.8586 11.3609 38.1918 11.7678 38.1918C11.9607 38.1918 12.1677 38.1147 12.3693 37.9691C12.5114 37.8674 12.6552 37.813 12.7867 37.813C13.0323 37.813 13.2164 38.0059 13.2796 38.3304C13.3707 38.7969 13.6531 39.0863 14.0196 39.0863C14.2389 39.0863 14.4669 38.9828 14.6773 38.7846C14.8264 38.6461 14.9825 38.5724 15.1298 38.5724C15.3508 38.5724 15.5314 38.739 15.6261 39.0284C15.7629 39.444 16.04 39.6913 16.3697 39.6913C16.6152 39.6913 16.8572 39.558 17.0695 39.3037C17.215 39.1301 17.3834 39.0337 17.5447 39.0337C17.7411 39.0337 17.9218 39.1757 18.041 39.4265C18.2129 39.7878 18.483 39.9965 18.7811 39.9965C19.053 39.9965 19.3108 39.8281 19.5072 39.5194C19.779 39.0933 20.214 39.0933 20.4858 39.5194C20.6822 39.8264 20.94 39.9965 21.2119 39.9965C21.5118 39.9965 21.7801 39.7878 21.9519 39.4265C22.0712 39.1775 22.2518 39.0337 22.4483 39.0337C22.6096 39.0337 22.7797 39.1301 22.9235 39.3037C23.134 39.5563 23.376 39.6913 23.6215 39.6913C23.9512 39.6913 24.2301 39.444 24.3669 39.0284C24.4616 38.739 24.644 38.5724 24.8632 38.5724C25.0105 38.5724 25.1666 38.6461 25.3157 38.7846C25.5261 38.981 25.7541 39.0863 25.9733 39.0863C26.3399 39.0863 26.6222 38.7969 26.7134 38.3304C26.7766 38.0059 26.9607 37.813 27.2062 37.813C27.3378 37.813 27.4816 37.8674 27.6236 37.9691C27.8253 38.1147 28.0323 38.1918 28.2252 38.1918C28.6321 38.1918 28.9197 37.8586 28.9548 37.343C28.9793 36.98 29.1617 36.7643 29.4423 36.7643C29.5563 36.7643 29.6843 36.8011 29.8123 36.8713C30.2122 37.0905 30.6015 37.0642 30.8365 36.8151C30.9961 36.645 31.0716 36.3925 31.054 36.0821C31.0417 35.8681 31.0926 35.6892 31.1978 35.577C31.3399 35.4279 31.5801 35.4016 31.8467 35.5051C32.2518 35.6629 32.6236 35.6033 32.8306 35.3542C32.9884 35.1631 33.0393 34.8913 32.9797 34.5668C32.9376 34.3441 32.9726 34.1512 33.0761 34.0266C33.2024 33.8758 33.4269 33.8285 33.6952 33.8951C34.0986 33.9968 34.4458 33.9056 34.6282 33.6548C34.779 33.4461 34.8053 33.1498 34.7001 32.8218C34.6264 32.5921 34.6422 32.3904 34.7422 32.2518C34.8509 32.1028 35.0614 32.0344 35.3244 32.0642C35.7348 32.1168 36.0417 31.994 36.1996 31.7432C36.3451 31.5135 36.3416 31.2031 36.1873 30.8734C36.0803 30.6436 36.0751 30.4332 36.1715 30.2823C36.268 30.1315 36.4591 30.0473 36.7134 30.0456C37.0975 30.0456 37.3869 29.9035 37.5237 29.6527C37.6622 29.4002 37.6254 29.0828 37.4202 28.7566C37.2852 28.5426 37.2536 28.3339 37.329 28.1726C37.4062 28.0095 37.5851 27.9025 37.8358 27.8692C38.2182 27.82 38.4847 27.6447 38.5917 27.3781C38.697 27.1098 38.6215 26.7994 38.3778 26.5012C38.2164 26.3048 38.1585 26.1031 38.2147 25.933C38.2708 25.7611 38.4356 25.6331 38.6794 25.5682C39.0512 25.4717 39.2967 25.263 39.3686 24.986C39.4388 24.7071 39.3248 24.4072 39.046 24.1424C38.8618 23.9688 38.7794 23.7759 38.8127 23.5987C38.846 23.4216 38.9933 23.2725 39.2283 23.1778C39.5861 23.0358 39.8018 22.799 39.8369 22.5131C39.8737 22.2273 39.7212 21.9449 39.4125 21.7169L39.416 21.7152ZM19.9982 37.1764C10.5279 37.1764 2.82182 29.4703 2.82182 20C2.82182 10.5296 10.5296 2.82355 20 2.82355C29.4704 2.82355 37.1764 10.5296 37.1764 20C37.1764 29.4703 29.4704 37.1764 20 37.1764H19.9982Z" fill="url(#paint3_linear_2322_3478)"/>
<path d="M23.4829 30.7524L23.155 30.0894L22.4219 29.9825L22.9533 29.4651L22.827 28.7355L23.4829 29.081L24.1388 28.7355L24.0125 29.4651L24.5422 29.9825L23.8109 30.0894L23.4829 30.7524Z" fill="#30302F"/>
<path d="M16.517 30.7524L16.1891 30.0894L15.4578 29.9825L15.9874 29.4651L15.8611 28.7355L16.517 29.081L17.173 28.7355L17.0467 29.4651L17.5781 29.9825L16.845 30.0894L16.517 30.7524Z" fill="#30302F"/>
<path d="M20 31.5749L19.672 30.9102L18.9407 30.805L19.4703 30.2876L19.344 29.558L20 29.9018L20.6559 29.558L20.5296 30.2876L21.0592 30.805L20.3279 30.9102L20 31.5749Z" fill="#30302F"/>
<path d="M23.4829 9.50714L23.155 10.1701L22.4219 10.277L22.9533 10.7927L22.827 11.5222L23.4829 11.1785L24.1388 11.5222L24.0125 10.7927L24.5422 10.277L23.8109 10.1701L23.4829 9.50714Z" fill="#30302F"/>
<path d="M16.517 9.50714L16.1891 10.1701L15.4578 10.277L15.9874 10.7927L15.8611 11.5222L16.517 11.1785L17.173 11.5222L17.0467 10.7927L17.5781 10.277L16.845 10.1701L16.517 9.50714Z" fill="#30302F"/>
<path d="M20 8.68463L19.672 9.34756L18.9407 9.45454L19.4703 9.9719L19.344 10.7015L20 10.356L20.6559 10.7015L20.5296 9.9719L21.0592 9.45454L20.3279 9.34756L20 8.68463Z" fill="#30302F"/>
<path d="M7.17119 21.3925V18.0972H8.597C8.89164 18.0972 9.14593 18.1445 9.35989 18.241C9.57385 18.3374 9.73871 18.4742 9.85446 18.6531C9.9702 18.832 10.0281 19.046 10.0281 19.2932C10.0281 19.5405 9.9702 19.7492 9.85446 19.9281C9.73871 20.107 9.57385 20.2438 9.35989 20.3402C9.14593 20.4367 8.89164 20.484 8.597 20.484H7.59385L7.93232 20.1403V21.3925H7.16943H7.17119ZM7.93408 20.2245L7.5956 19.8615H8.55491C8.78992 19.8615 8.96529 19.8106 9.0828 19.7106C9.19855 19.6107 9.25642 19.4704 9.25642 19.2915C9.25642 19.1126 9.19855 18.9688 9.0828 18.8671C8.96705 18.7671 8.79167 18.7162 8.55491 18.7162H7.5956L7.93408 18.3532V20.2227V20.2245Z" fill="#30302F"/>
<path d="M10.5684 21.3925V18.0972H11.3313V20.7699H12.9833V21.3907H10.5684V21.3925Z" fill="#30302F"/>
<path d="M12.9973 21.3925L14.4652 18.0972H15.2176L16.6908 21.3925H15.891L14.6862 18.483H14.9878L13.7777 21.3925H12.9973ZM13.7321 20.6857L13.9338 20.107H15.628L15.8349 20.6857H13.7304H13.7321Z" fill="#30302F"/>
<path d="M17.5535 21.3925V18.7198H16.4995V18.0989H19.3704V18.7198H18.3164V21.3925H17.5535Z" fill="#30302F"/>
<path d="M19.7808 21.3925V18.0972H20.5437V21.3925H19.7808Z" fill="#30302F"/>
<path d="M21.3242 21.3925V18.0972H21.9556L23.8988 20.47H23.5918V18.0972H24.346V21.3925H23.7199L21.7714 19.0197H22.0766V21.3925H21.3242Z" fill="#30302F"/>
<path d="M26.5906 21.4486C26.1223 21.4486 25.7576 21.3188 25.4945 21.0575C25.2314 20.7962 25.0981 20.4262 25.0981 19.9421V18.0972H25.861V19.9141C25.861 20.228 25.9259 20.4542 26.0539 20.591C26.182 20.7278 26.3626 20.798 26.5959 20.798C26.8291 20.798 27.008 20.7296 27.1378 20.591C27.2658 20.4525 27.3307 20.228 27.3307 19.9141V18.0972H28.0848V19.9421C28.0848 20.4262 27.9533 20.7962 27.6885 21.0575C27.4236 21.3188 27.0589 21.4486 26.5924 21.4486H26.5906Z" fill="#30302F"/>
<path d="M28.8355 21.3925V18.0972H29.4669L30.8699 20.4227H30.5349L31.9134 18.0972H32.5395L32.5482 21.3925H31.8327L31.8274 19.195H31.959L30.8576 21.0453H30.5139L29.3897 19.195H29.5493V21.3925H28.8337H28.8355Z" fill="#30302F"/>
</g>
<defs>
<linearGradient id="paint0_linear_2322_3478" x1="19.8605" y1="38.2185" x2="19.8605" y2="3.16409" gradientUnits="userSpaceOnUse">
<stop stop-color="#8F591F"/>
<stop offset="0.39" stop-color="#BC8644"/>
<stop offset="0.56" stop-color="#FEC06A"/>
<stop offset="1" stop-color="#7B4D1F"/>
</linearGradient>
<linearGradient id="paint1_linear_2322_3478" x1="19.8596" y1="5.86635" x2="19.8596" y2="40.0526" gradientUnits="userSpaceOnUse">
<stop stop-color="#8F591F"/>
<stop offset="0.39" stop-color="#BC8644"/>
<stop offset="0.56" stop-color="#FEC06A"/>
<stop offset="1" stop-color="#7B4D1F"/>
</linearGradient>
<linearGradient id="paint2_linear_2322_3478" x1="39.2231" y1="20" x2="-5.04209" y2="20" gradientUnits="userSpaceOnUse">
<stop stop-color="#B87A2A"/>
<stop offset="0.1" stop-color="#C68D39"/>
<stop offset="0.37" stop-color="#E7BD60"/>
<stop offset="0.5" stop-color="#F5D06F"/>
<stop offset="0.63" stop-color="#E7BD60"/>
<stop offset="0.9" stop-color="#C68D39"/>
<stop offset="1" stop-color="#B87A2A"/>
</linearGradient>
<linearGradient id="paint3_linear_2322_3478" x1="39.2231" y1="20" x2="-5.04209" y2="20" gradientUnits="userSpaceOnUse">
<stop offset="0.02" stop-color="#613610"/>
<stop offset="0.21" stop-color="#DC9439"/>
<stop offset="0.33" stop-color="#E49F45"/>
<stop offset="0.54" stop-color="#FBBC66"/>
<stop offset="0.56" stop-color="#FEC06A"/>
<stop offset="0.83" stop-color="#DC9439"/>
<stop offset="0.86" stop-color="#CF8A34"/>
<stop offset="0.91" stop-color="#AE7129"/>
<stop offset="0.97" stop-color="#784817"/>
<stop offset="1" stop-color="#613610"/>
</linearGradient>
<clipPath id="clip0_2322_3478">
<rect width="40" height="40" fill="white"/>
</clipPath>
</defs>
</svg>
