<svg width="40" height="40" viewBox="0 0 40 40" fill="none" xmlns="http://www.w3.org/2000/svg">
<g clip-path="url(#clip0_1711_3)">
<path d="M22.7255 34.25C30.5948 32.7446 35.7537 25.145 34.2482 17.2757C32.7428 9.40653 25.1432 4.24764 17.274 5.75305C9.40477 7.25845 4.24588 14.8581 5.75129 22.7273C7.25669 30.5965 14.8563 35.7554 22.7255 34.25Z" fill="url(#paint0_linear_1711_3)"/>
<path d="M20 34.72C11.8836 34.72 5.27994 28.1164 5.27994 20C5.27994 11.8836 11.8836 5.27808 20 5.27808C28.1164 5.27808 34.7201 11.8817 34.7201 19.9981C34.7201 28.1146 28.1164 34.7182 20 34.7182V34.72ZM20 5.70448C12.119 5.70448 5.70634 12.1172 5.70634 19.9981C5.70634 27.8791 12.119 34.2918 20 34.2918C27.881 34.2918 34.2937 27.8791 34.2937 19.9981C34.2937 12.1172 27.881 5.70633 20 5.70633V5.70448Z" fill="url(#paint1_linear_1711_3)"/>
<path d="M39.416 21.7149C39.2121 21.5647 39.1064 21.3849 39.1175 21.205C39.1287 21.0252 39.2566 20.8584 39.4772 20.736C39.8128 20.5488 39.9981 20.2874 39.9981 20C39.9981 19.7126 39.8128 19.4512 39.4772 19.264C39.2566 19.1398 39.1287 18.9748 39.1175 18.795C39.1064 18.6151 39.2121 18.4334 39.416 18.2833C39.7256 18.0552 39.8776 17.7735 39.8406 17.488C39.8053 17.2024 39.5884 16.967 39.2306 16.8224C38.9952 16.7278 38.8487 16.5795 38.8153 16.4016C38.782 16.2254 38.8635 16.0326 39.0471 15.8584C39.327 15.5933 39.4401 15.2948 39.3697 15.0148C39.2974 14.7367 39.0527 14.5291 38.6819 14.4327C38.4371 14.3678 38.2722 14.2399 38.2165 14.0675C38.1609 13.8969 38.2184 13.6948 38.3797 13.4983C38.6244 13.1999 38.7004 12.8884 38.5929 12.6214C38.4872 12.3545 38.2184 12.1802 37.8383 12.1301C37.5862 12.0968 37.4064 11.9892 37.3304 11.8261C37.2544 11.6648 37.2859 11.4553 37.4212 11.2421C37.6251 10.9158 37.6622 10.597 37.525 10.3448C37.386 10.0927 37.0986 9.95365 36.7149 9.9518C36.4609 9.9518 36.2699 9.86652 36.1735 9.7145C36.0771 9.56248 36.0827 9.35299 36.1902 9.1231C36.3441 8.79125 36.3478 8.48165 36.2013 8.25176C36.0419 8.00148 35.7341 7.88098 35.3263 7.93289C35.063 7.96255 34.8535 7.89581 34.7442 7.74564C34.644 7.6066 34.6292 7.40452 34.7015 7.17649C34.8072 6.8465 34.7812 6.55172 34.6292 6.34409C34.4457 6.09381 34.099 6.00297 33.6948 6.10308C33.4297 6.16982 33.2017 6.12162 33.0775 5.97145C32.9737 5.84724 32.9403 5.65443 32.9811 5.43196C33.0404 5.10753 32.9904 4.835 32.8328 4.64405C32.6251 4.39563 32.2544 4.33445 31.8502 4.49388C31.5832 4.5977 31.3422 4.57175 31.2013 4.42158C31.0957 4.31035 31.0456 4.13052 31.0567 3.91732C31.0753 3.60771 30.9993 3.35373 30.8398 3.18502C30.6044 2.93474 30.2151 2.91064 29.8146 3.1294C29.6848 3.19985 29.5606 3.23508 29.4457 3.23508C29.1639 3.23508 28.9822 3.01817 28.9581 2.6548C28.9229 2.13941 28.6374 1.80756 28.2295 1.80756C28.0367 1.80756 27.8291 1.88357 27.6288 2.02818C27.4879 2.13014 27.3433 2.18576 27.2117 2.18576C26.967 2.18576 26.7816 1.9911 26.7186 1.66852C26.6277 1.20133 26.3441 0.912125 25.9789 0.912125C25.7601 0.912125 25.5321 1.0178 25.3207 1.21431C25.1724 1.35336 25.0167 1.42566 24.8684 1.42566C24.6478 1.42566 24.4679 1.25881 24.3715 0.969596C24.2343 0.55432 23.9562 0.305895 23.6263 0.305895C23.3797 0.305895 23.1387 0.439377 22.9273 0.693363C22.7827 0.865777 22.614 0.96218 22.4527 0.96218C22.2562 0.96218 22.0764 0.819429 21.9577 0.569151C21.7853 0.207638 21.5165 0 21.2162 0C20.9436 0 20.6859 0.168706 20.4894 0.476455C20.2169 0.902855 19.7831 0.902855 19.5106 0.476455C19.3141 0.168706 19.0564 0 18.7838 0C18.4854 0 18.2147 0.207638 18.0423 0.569151C17.9236 0.819429 17.7438 0.96218 17.5473 0.96218C17.386 0.96218 17.2173 0.865777 17.0727 0.693363C16.8613 0.439377 16.6203 0.305895 16.3737 0.305895C16.0438 0.305895 15.7657 0.55432 15.6285 0.967742C15.5321 1.25695 15.3522 1.4238 15.1316 1.4238C14.9833 1.4238 14.8276 1.3515 14.6793 1.21246C14.4679 1.01594 14.2399 0.910271 14.0211 0.910271C13.6559 0.910271 13.3723 1.20133 13.2814 1.66667C13.2184 1.9911 13.0349 2.18391 12.7883 2.18391C12.6567 2.18391 12.5121 2.12829 12.3712 2.02633C12.1691 1.88172 11.9614 1.80571 11.7705 1.80571C11.3626 1.80571 11.0771 2.13941 11.0419 2.65295C11.0178 3.01631 10.8343 3.23322 10.5525 3.23322C10.4394 3.23322 10.3115 3.19614 10.1835 3.12755C9.78309 2.90879 9.39377 2.93474 9.16018 3.18317C9.00074 3.35187 8.92473 3.60586 8.94327 3.91546C8.95625 4.12866 8.90434 4.30849 8.79867 4.41973C8.65777 4.56989 8.41676 4.59585 8.1498 4.49203C7.74564 4.33445 7.37486 4.39377 7.16722 4.64405C7.00964 4.83315 6.95773 5.10567 7.01891 5.43011C7.0597 5.65258 7.02633 5.84538 6.92251 5.9696C6.79644 6.12162 6.57026 6.16796 6.3033 6.10122C5.89915 5.99926 5.55247 6.0901 5.37078 6.34223C5.21876 6.54987 5.19281 6.8465 5.29848 7.17464C5.37078 7.40452 5.35595 7.6066 5.25584 7.74379C5.14646 7.89396 4.93697 7.96255 4.67371 7.93103C4.264 7.87913 3.9581 7.99963 3.79867 8.25176C3.65221 8.48165 3.65591 8.79125 3.80979 9.1231C3.91732 9.35299 3.92288 9.56248 3.82647 9.7145C3.73007 9.86652 3.53912 9.9518 3.28513 9.9518C2.90137 9.9518 2.61216 10.0927 2.47497 10.3448C2.33593 10.597 2.37301 10.9158 2.57879 11.2421C2.71413 11.4553 2.74564 11.6648 2.66963 11.8261C2.59362 11.9892 2.41379 12.0968 2.16166 12.1301C1.77976 12.1802 1.51279 12.3545 1.40712 12.6214C1.30145 12.8884 1.37746 13.1999 1.62217 13.4983C1.78346 13.693 1.84093 13.8951 1.78532 14.0675C1.7297 14.238 1.5647 14.3678 1.31999 14.4327C0.947349 14.531 0.702633 14.7367 0.632184 15.0148C0.559881 15.2929 0.674824 15.5933 0.954765 15.8584C1.1383 16.0326 1.22173 16.2254 1.1865 16.4016C1.15313 16.5777 1.00482 16.7278 0.771227 16.8224C0.413422 16.9651 0.198369 17.2024 0.16129 17.4861C0.126066 17.7716 0.276233 18.0552 0.585836 18.2814C0.789766 18.4316 0.895439 18.6133 0.884316 18.7931C0.873192 18.9729 0.745273 19.1398 0.524657 19.2621C0.189099 19.4494 0.00370789 19.7108 0.00370789 19.9981C0.00370789 20.2855 0.189099 20.5469 0.524657 20.7341C0.745273 20.8584 0.873192 21.0234 0.884316 21.2032C0.895439 21.383 0.789766 21.5628 0.585836 21.713C0.276233 21.941 0.124212 22.2228 0.16129 22.5083C0.196515 22.7938 0.413422 23.0293 0.771227 23.172C1.00667 23.2666 1.15313 23.4168 1.18836 23.5929C1.22173 23.7709 1.14016 23.9637 0.956618 24.1361C0.676678 24.4012 0.561735 24.7015 0.634038 24.9796C0.704487 25.2577 0.949203 25.4653 1.32184 25.5617C1.56656 25.6248 1.73155 25.7545 1.78717 25.927C1.84279 26.0975 1.78532 26.2996 1.62403 26.4961C1.38116 26.7946 1.30515 27.106 1.40897 27.373C1.51465 27.64 1.78346 27.8142 2.16352 27.8643C2.41379 27.8977 2.59548 28.0052 2.67149 28.1683C2.7475 28.3315 2.71598 28.5391 2.58065 28.7523C2.37671 29.0786 2.33964 29.3956 2.47683 29.6496C2.61587 29.9017 2.90323 30.0408 3.28699 30.0426C3.54097 30.0426 3.73192 30.1279 3.82833 30.2799C3.92473 30.432 3.91917 30.6415 3.81164 30.8713C3.65777 31.2032 3.65406 31.5109 3.80052 31.7427C3.95996 31.993 4.2677 32.1153 4.67557 32.0634C4.93697 32.0319 5.14831 32.1005 5.25769 32.2507C5.3578 32.3878 5.37449 32.5899 5.30033 32.8198C5.19466 33.1498 5.22062 33.4446 5.37264 33.6541C5.55617 33.9043 5.90285 33.9952 6.30515 33.8932C6.57212 33.8246 6.79829 33.8747 6.92436 34.0248C7.02818 34.1491 7.06155 34.3419 7.02076 34.5643C6.95958 34.8888 7.01149 35.1613 7.16908 35.3504C7.37671 35.6007 7.7475 35.66 8.15165 35.5024C8.41676 35.3986 8.65962 35.4245 8.80052 35.5747C8.90619 35.686 8.9581 35.8658 8.94512 36.079C8.92659 36.3886 9.00259 36.6407 9.16203 36.8113C9.39748 37.0597 9.78495 37.0857 10.1854 36.8669C10.3152 36.7964 10.4394 36.7594 10.5543 36.7594C10.8361 36.7594 11.0178 36.9763 11.0438 37.3396C11.079 37.855 11.3645 38.1887 11.7723 38.1887C11.9651 38.1887 12.1728 38.1127 12.373 37.9663C12.5139 37.8643 12.6585 37.8105 12.7901 37.8105C13.0367 37.8105 13.2202 38.0033 13.2833 38.3278C13.3741 38.795 13.6578 39.0842 14.023 39.0842C14.2418 39.0842 14.4698 38.9804 14.6811 38.7838C14.8294 38.6448 14.9852 38.5725 15.1335 38.5725C15.3541 38.5725 15.5339 38.7393 15.6303 39.0286C15.7657 39.4438 16.0456 39.6904 16.3756 39.6904C16.6222 39.6904 16.8632 39.5569 17.0745 39.3029C17.2191 39.1287 17.3878 39.0341 17.5491 39.0341C17.7456 39.0341 17.9273 39.1769 18.0441 39.4271C18.2165 39.7887 18.4854 39.9963 18.7857 39.9963C19.0582 39.9963 19.3159 39.8276 19.5124 39.5198C19.7849 39.0934 20.2188 39.0934 20.4913 39.5198C20.6878 39.8276 20.9455 39.9963 21.218 39.9963C21.5165 39.9963 21.7872 39.7887 21.9596 39.4271C22.0782 39.1769 22.2599 39.0341 22.4564 39.0341C22.6177 39.0341 22.7864 39.1305 22.931 39.3029C23.1424 39.5569 23.3834 39.6904 23.63 39.6904C23.96 39.6904 24.238 39.442 24.3752 39.0286C24.4698 38.7393 24.6515 38.5725 24.8721 38.5725C25.0204 38.5725 25.1761 38.6466 25.3244 38.7838C25.5358 38.9804 25.762 39.0842 25.9826 39.0842C26.3478 39.0842 26.6314 38.795 26.7223 38.3278C26.7853 38.0033 26.9707 37.8105 27.2154 37.8105C27.3471 37.8105 27.4917 37.8643 27.6326 37.9663C27.8346 38.1127 28.0423 38.1887 28.2332 38.1887C28.6411 38.1887 28.9266 37.855 28.9618 37.3396C28.9859 36.9763 29.1676 36.7594 29.4494 36.7594C29.5643 36.7594 29.6922 36.7964 29.8183 36.8669C30.2188 37.0857 30.6081 37.0597 30.8435 36.8113C31.003 36.6407 31.079 36.3886 31.0604 36.079C31.0475 35.8658 31.0994 35.686 31.205 35.5747C31.3459 35.4245 31.5869 35.3986 31.8539 35.5024C32.2581 35.66 32.6307 35.6007 32.8365 35.3504C32.9941 35.1594 33.046 34.8869 32.9848 34.5643C32.9422 34.3419 32.9774 34.1491 33.0812 34.0248C33.2073 33.8747 33.4334 33.8265 33.6986 33.8932C34.1009 33.9952 34.4494 33.9043 34.6329 33.6541C34.7849 33.4446 34.8109 33.1498 34.7052 32.8198C34.6329 32.5899 34.6478 32.3878 34.7479 32.2507C34.8572 32.1005 35.0667 32.0319 35.33 32.0634C35.7397 32.1153 36.0456 31.993 36.205 31.7427C36.3515 31.5128 36.3478 31.2032 36.1939 30.8713C36.0882 30.6415 36.0808 30.432 36.1772 30.2799C36.2736 30.1279 36.4646 30.0445 36.7186 30.0426C37.1023 30.0426 37.3915 29.9017 37.5287 29.6496C37.6659 29.3975 37.6307 29.0786 37.4249 28.7523C37.2896 28.5373 37.2581 28.3296 37.3341 28.1683C37.4101 28.0052 37.5899 27.8977 37.842 27.8643C38.2239 27.8142 38.4909 27.64 38.5966 27.373C38.7023 27.106 38.6262 26.7946 38.3834 26.4961C38.2221 26.3014 38.1646 26.0994 38.2202 25.927C38.2759 25.7564 38.4409 25.6266 38.6856 25.5617C39.0582 25.4653 39.3029 25.2577 39.3734 24.9796C39.4438 24.7015 39.3307 24.4012 39.0508 24.1361C38.8673 23.9618 38.7838 23.769 38.8191 23.5929C38.8524 23.4168 39.0007 23.2666 39.2343 23.172C39.5921 23.0293 39.8072 22.7938 39.8443 22.5083C39.8813 22.2228 39.7293 21.941 39.4197 21.713L39.416 21.7149ZM20 37.1746C10.5284 37.1746 2.82351 29.4698 2.82351 19.9981C2.82351 10.5265 10.5284 2.82351 20 2.82351C29.4716 2.82351 37.1765 10.5284 37.1765 20C37.1765 29.4716 29.4716 37.1765 20 37.1765V37.1746Z" fill="url(#paint2_linear_1711_3)"/>
<path d="M39.416 21.7149C39.2121 21.5647 39.1064 21.3849 39.1175 21.205C39.1287 21.0252 39.2566 20.8584 39.4772 20.736C39.8128 20.5488 39.9981 20.2874 39.9981 20C39.9981 19.7126 39.8128 19.4512 39.4772 19.264C39.2566 19.1398 39.1287 18.9748 39.1175 18.795C39.1064 18.6151 39.2121 18.4334 39.416 18.2833C39.7256 18.0552 39.8776 17.7735 39.8406 17.488C39.8053 17.2024 39.5884 16.967 39.2306 16.8224C38.9952 16.7278 38.8487 16.5795 38.8153 16.4016C38.782 16.2254 38.8635 16.0326 39.0471 15.8584C39.327 15.5933 39.4401 15.2948 39.3697 15.0148C39.2974 14.7367 39.0527 14.5291 38.6819 14.4327C38.4371 14.3678 38.2722 14.2399 38.2165 14.0675C38.1609 13.8969 38.2184 13.6948 38.3797 13.4983C38.6244 13.1999 38.7004 12.8884 38.5929 12.6214C38.4872 12.3545 38.2184 12.1802 37.8383 12.1301C37.5862 12.0968 37.4064 11.9892 37.3304 11.8261C37.2544 11.6648 37.2859 11.4553 37.4212 11.2421C37.6251 10.9158 37.6622 10.597 37.525 10.3448C37.386 10.0927 37.0986 9.95365 36.7149 9.9518C36.4609 9.9518 36.2699 9.86652 36.1735 9.7145C36.0771 9.56248 36.0827 9.35299 36.1902 9.1231C36.3441 8.79125 36.3478 8.48165 36.2013 8.25176C36.0419 8.00148 35.7341 7.88098 35.3263 7.93289C35.063 7.96255 34.8535 7.89581 34.7442 7.74564C34.644 7.6066 34.6292 7.40452 34.7015 7.17649C34.8072 6.8465 34.7812 6.55172 34.6292 6.34409C34.4457 6.09381 34.099 6.00297 33.6948 6.10308C33.4297 6.16982 33.2017 6.12162 33.0775 5.97145C32.9737 5.84724 32.9403 5.65443 32.9811 5.43196C33.0404 5.10753 32.9904 4.835 32.8328 4.64405C32.6251 4.39563 32.2544 4.33445 31.8502 4.49388C31.5832 4.5977 31.3422 4.57175 31.2013 4.42158C31.0957 4.31035 31.0456 4.13052 31.0567 3.91732C31.0753 3.60771 30.9993 3.35373 30.8398 3.18502C30.6044 2.93474 30.2151 2.91064 29.8146 3.1294C29.6848 3.19985 29.5606 3.23508 29.4457 3.23508C29.1639 3.23508 28.9822 3.01817 28.9581 2.6548C28.9229 2.13941 28.6374 1.80756 28.2295 1.80756C28.0367 1.80756 27.8291 1.88357 27.6288 2.02818C27.4879 2.13014 27.3433 2.18576 27.2117 2.18576C26.967 2.18576 26.7816 1.9911 26.7186 1.66852C26.6277 1.20133 26.3441 0.912125 25.9789 0.912125C25.7601 0.912125 25.5321 1.0178 25.3207 1.21431C25.1724 1.35336 25.0167 1.42566 24.8684 1.42566C24.6478 1.42566 24.4679 1.25881 24.3715 0.969596C24.2343 0.55432 23.9562 0.305895 23.6263 0.305895C23.3797 0.305895 23.1387 0.439377 22.9273 0.693363C22.7827 0.865777 22.614 0.96218 22.4527 0.96218C22.2562 0.96218 22.0764 0.819429 21.9577 0.569151C21.7853 0.207638 21.5165 0 21.2162 0C20.9436 0 20.6859 0.168706 20.4894 0.476455C20.2169 0.902855 19.7831 0.902855 19.5106 0.476455C19.3141 0.168706 19.0564 0 18.7838 0C18.4854 0 18.2147 0.207638 18.0423 0.569151C17.9236 0.819429 17.7438 0.96218 17.5473 0.96218C17.386 0.96218 17.2173 0.865777 17.0727 0.693363C16.8613 0.439377 16.6203 0.305895 16.3737 0.305895C16.0438 0.305895 15.7657 0.55432 15.6285 0.967742C15.5321 1.25695 15.3522 1.4238 15.1316 1.4238C14.9833 1.4238 14.8276 1.3515 14.6793 1.21246C14.4679 1.01594 14.2399 0.910271 14.0211 0.910271C13.6559 0.910271 13.3723 1.20133 13.2814 1.66667C13.2184 1.9911 13.0349 2.18391 12.7883 2.18391C12.6567 2.18391 12.5121 2.12829 12.3712 2.02633C12.1691 1.88172 11.9614 1.80571 11.7705 1.80571C11.3626 1.80571 11.0771 2.13941 11.0419 2.65295C11.0178 3.01631 10.8343 3.23322 10.5525 3.23322C10.4394 3.23322 10.3115 3.19614 10.1835 3.12755C9.78309 2.90879 9.39377 2.93474 9.16018 3.18317C9.00074 3.35187 8.92473 3.60586 8.94327 3.91546C8.95625 4.12866 8.90434 4.30849 8.79867 4.41973C8.65777 4.56989 8.41676 4.59585 8.1498 4.49203C7.74564 4.33445 7.37486 4.39377 7.16722 4.64405C7.00964 4.83315 6.95773 5.10567 7.01891 5.43011C7.0597 5.65258 7.02633 5.84538 6.92251 5.9696C6.79644 6.12162 6.57026 6.16796 6.3033 6.10122C5.89915 5.99926 5.55247 6.0901 5.37078 6.34223C5.21876 6.54987 5.19281 6.8465 5.29848 7.17464C5.37078 7.40452 5.35595 7.6066 5.25584 7.74379C5.14646 7.89396 4.93697 7.96255 4.67371 7.93103C4.264 7.87913 3.9581 7.99963 3.79867 8.25176C3.65221 8.48165 3.65591 8.79125 3.80979 9.1231C3.91732 9.35299 3.92288 9.56248 3.82647 9.7145C3.73007 9.86652 3.53912 9.9518 3.28513 9.9518C2.90137 9.9518 2.61216 10.0927 2.47497 10.3448C2.33593 10.597 2.37301 10.9158 2.57879 11.2421C2.71413 11.4553 2.74564 11.6648 2.66963 11.8261C2.59362 11.9892 2.41379 12.0968 2.16166 12.1301C1.77976 12.1802 1.51279 12.3545 1.40712 12.6214C1.30145 12.8884 1.37746 13.1999 1.62217 13.4983C1.78346 13.693 1.84093 13.8951 1.78532 14.0675C1.7297 14.238 1.5647 14.3678 1.31999 14.4327C0.947349 14.531 0.702633 14.7367 0.632184 15.0148C0.559881 15.2929 0.674824 15.5933 0.954765 15.8584C1.1383 16.0326 1.22173 16.2254 1.1865 16.4016C1.15313 16.5777 1.00482 16.7278 0.771227 16.8224C0.413422 16.9651 0.198369 17.2024 0.16129 17.4861C0.126066 17.7716 0.276233 18.0552 0.585836 18.2814C0.789766 18.4316 0.895439 18.6133 0.884316 18.7931C0.873192 18.9729 0.745273 19.1398 0.524657 19.2621C0.189099 19.4494 0.00370789 19.7108 0.00370789 19.9981C0.00370789 20.2855 0.189099 20.5469 0.524657 20.7341C0.745273 20.8584 0.873192 21.0234 0.884316 21.2032C0.895439 21.383 0.789766 21.5628 0.585836 21.713C0.276233 21.941 0.124212 22.2228 0.16129 22.5083C0.196515 22.7938 0.413422 23.0293 0.771227 23.172C1.00667 23.2666 1.15313 23.4168 1.18836 23.5929C1.22173 23.7709 1.14016 23.9637 0.956618 24.1361C0.676678 24.4012 0.561735 24.7015 0.634038 24.9796C0.704487 25.2577 0.949203 25.4653 1.32184 25.5617C1.56656 25.6248 1.73155 25.7545 1.78717 25.927C1.84279 26.0975 1.78532 26.2996 1.62403 26.4961C1.38116 26.7946 1.30515 27.106 1.40897 27.373C1.51465 27.64 1.78346 27.8142 2.16352 27.8643C2.41379 27.8977 2.59548 28.0052 2.67149 28.1683C2.7475 28.3315 2.71598 28.5391 2.58065 28.7523C2.37671 29.0786 2.33964 29.3956 2.47683 29.6496C2.61587 29.9017 2.90323 30.0408 3.28699 30.0426C3.54097 30.0426 3.73192 30.1279 3.82833 30.2799C3.92473 30.432 3.91917 30.6415 3.81164 30.8713C3.65777 31.2032 3.65406 31.5109 3.80052 31.7427C3.95996 31.993 4.2677 32.1153 4.67557 32.0634C4.93697 32.0319 5.14831 32.1005 5.25769 32.2507C5.3578 32.3878 5.37449 32.5899 5.30033 32.8198C5.19466 33.1498 5.22062 33.4446 5.37264 33.6541C5.55617 33.9043 5.90285 33.9952 6.30515 33.8932C6.57212 33.8246 6.79829 33.8747 6.92436 34.0248C7.02818 34.1491 7.06155 34.3419 7.02076 34.5643C6.95958 34.8888 7.01149 35.1613 7.16908 35.3504C7.37671 35.6007 7.7475 35.66 8.15165 35.5024C8.41676 35.3986 8.65962 35.4245 8.80052 35.5747C8.90619 35.686 8.9581 35.8658 8.94512 36.079C8.92659 36.3886 9.00259 36.6407 9.16203 36.8113C9.39748 37.0597 9.78495 37.0857 10.1854 36.8669C10.3152 36.7964 10.4394 36.7594 10.5543 36.7594C10.8361 36.7594 11.0178 36.9763 11.0438 37.3396C11.079 37.855 11.3645 38.1887 11.7723 38.1887C11.9651 38.1887 12.1728 38.1127 12.373 37.9663C12.5139 37.8643 12.6585 37.8105 12.7901 37.8105C13.0367 37.8105 13.2202 38.0033 13.2833 38.3278C13.3741 38.795 13.6578 39.0842 14.023 39.0842C14.2418 39.0842 14.4698 38.9804 14.6811 38.7838C14.8294 38.6448 14.9852 38.5725 15.1335 38.5725C15.3541 38.5725 15.5339 38.7393 15.6303 39.0286C15.7657 39.4438 16.0456 39.6904 16.3756 39.6904C16.6222 39.6904 16.8632 39.5569 17.0745 39.3029C17.2191 39.1287 17.3878 39.0341 17.5491 39.0341C17.7456 39.0341 17.9273 39.1769 18.0441 39.4271C18.2165 39.7887 18.4854 39.9963 18.7857 39.9963C19.0582 39.9963 19.3159 39.8276 19.5124 39.5198C19.7849 39.0934 20.2188 39.0934 20.4913 39.5198C20.6878 39.8276 20.9455 39.9963 21.218 39.9963C21.5165 39.9963 21.7872 39.7887 21.9596 39.4271C22.0782 39.1769 22.2599 39.0341 22.4564 39.0341C22.6177 39.0341 22.7864 39.1305 22.931 39.3029C23.1424 39.5569 23.3834 39.6904 23.63 39.6904C23.96 39.6904 24.238 39.442 24.3752 39.0286C24.4698 38.7393 24.6515 38.5725 24.8721 38.5725C25.0204 38.5725 25.1761 38.6466 25.3244 38.7838C25.5358 38.9804 25.762 39.0842 25.9826 39.0842C26.3478 39.0842 26.6314 38.795 26.7223 38.3278C26.7853 38.0033 26.9707 37.8105 27.2154 37.8105C27.3471 37.8105 27.4917 37.8643 27.6326 37.9663C27.8346 38.1127 28.0423 38.1887 28.2332 38.1887C28.6411 38.1887 28.9266 37.855 28.9618 37.3396C28.9859 36.9763 29.1676 36.7594 29.4494 36.7594C29.5643 36.7594 29.6922 36.7964 29.8183 36.8669C30.2188 37.0857 30.6081 37.0597 30.8435 36.8113C31.003 36.6407 31.079 36.3886 31.0604 36.079C31.0475 35.8658 31.0994 35.686 31.205 35.5747C31.3459 35.4245 31.5869 35.3986 31.8539 35.5024C32.2581 35.66 32.6307 35.6007 32.8365 35.3504C32.9941 35.1594 33.046 34.8869 32.9848 34.5643C32.9422 34.3419 32.9774 34.1491 33.0812 34.0248C33.2073 33.8747 33.4334 33.8265 33.6986 33.8932C34.1009 33.9952 34.4494 33.9043 34.6329 33.6541C34.7849 33.4446 34.8109 33.1498 34.7052 32.8198C34.6329 32.5899 34.6478 32.3878 34.7479 32.2507C34.8572 32.1005 35.0667 32.0319 35.33 32.0634C35.7397 32.1153 36.0456 31.993 36.205 31.7427C36.3515 31.5128 36.3478 31.2032 36.1939 30.8713C36.0882 30.6415 36.0808 30.432 36.1772 30.2799C36.2736 30.1279 36.4646 30.0445 36.7186 30.0426C37.1023 30.0426 37.3915 29.9017 37.5287 29.6496C37.6659 29.3975 37.6307 29.0786 37.4249 28.7523C37.2896 28.5373 37.2581 28.3296 37.3341 28.1683C37.4101 28.0052 37.5899 27.8977 37.842 27.8643C38.2239 27.8142 38.4909 27.64 38.5966 27.373C38.7023 27.106 38.6262 26.7946 38.3834 26.4961C38.2221 26.3014 38.1646 26.0994 38.2202 25.927C38.2759 25.7564 38.4409 25.6266 38.6856 25.5617C39.0582 25.4653 39.3029 25.2577 39.3734 24.9796C39.4438 24.7015 39.3307 24.4012 39.0508 24.1361C38.8673 23.9618 38.7838 23.769 38.8191 23.5929C38.8524 23.4168 39.0007 23.2666 39.2343 23.172C39.5921 23.0293 39.8072 22.7938 39.8443 22.5083C39.8813 22.2228 39.7293 21.941 39.4197 21.713L39.416 21.7149ZM20 37.1746C10.5284 37.1746 2.82351 29.4698 2.82351 19.9981C2.82351 10.5265 10.5284 2.82351 20 2.82351C29.4716 2.82351 37.1765 10.5284 37.1765 20C37.1765 29.4716 29.4716 37.1765 20 37.1765V37.1746Z" fill="url(#paint3_linear_1711_3)"/>
<path d="M23.4835 30.7527L23.1554 30.089L22.4231 29.9815L22.9533 29.4661L22.8272 28.7356L23.4835 29.0805L24.1379 28.7356L24.0119 29.4661L24.5421 29.9815L23.8098 30.089L23.4835 30.7527Z" fill="#30302F"/>
<path d="M16.5165 30.7527L16.1902 30.089L15.4561 29.9815L15.9863 29.4661L15.8621 28.7356L16.5165 29.0805L17.1728 28.7356L17.0467 29.4661L17.5769 29.9815L16.8446 30.089L16.5165 30.7527Z" fill="#30302F"/>
<path d="M20 31.574L19.6719 30.9103L18.9396 30.8046L19.4698 30.2874L19.3437 29.5569L20 29.9017L20.6544 29.5569L20.5302 30.2874L21.0604 30.8046L20.3281 30.9103L20 31.574Z" fill="#30302F"/>
<path d="M23.4835 9.50684L23.1554 10.1705L22.4231 10.2762L22.9533 10.7935L22.8272 11.522L23.4835 11.1791L24.1379 11.522L24.0119 10.7935L24.5421 10.2762L23.8098 10.1705L23.4835 9.50684Z" fill="#30302F"/>
<path d="M16.5165 9.50684L16.1902 10.1705L15.4561 10.2762L15.9863 10.7935L15.8621 11.522L16.5165 11.1791L17.1728 11.522L17.0467 10.7935L17.5769 10.2762L16.8446 10.1705L16.5165 9.50684Z" fill="#30302F"/>
<path d="M20 8.68372L19.6719 9.34742L18.9396 9.45494L19.4698 9.97033L19.3437 10.7008L20 10.3559L20.6544 10.7008L20.5302 9.97033L21.0604 9.45494L20.3281 9.34742L20 8.68372Z" fill="#30302F"/>
<path d="M10.4876 22.1617C10.1353 22.1617 9.79607 22.1153 9.47349 22.0189C9.14905 21.9244 8.88951 21.802 8.69114 21.65L9.03782 20.8806C9.22692 21.0159 9.45124 21.1253 9.70894 21.2125C9.96663 21.2977 10.228 21.3422 10.4931 21.3422C10.6952 21.3422 10.8584 21.3218 10.9807 21.2829C11.1049 21.244 11.1958 21.1865 11.2551 21.1161C11.3144 21.0456 11.3441 20.9622 11.3441 20.8695C11.3441 20.7527 11.2977 20.6581 11.205 20.5895C11.1123 20.5209 10.99 20.4635 10.8398 20.419C10.6878 20.3745 10.5209 20.3337 10.3393 20.2929C10.1557 20.254 9.97405 20.2039 9.79051 20.1446C9.60697 20.0853 9.44012 20.0093 9.28995 19.9184C9.13793 19.8257 9.01557 19.7034 8.92102 19.5532C8.82647 19.4012 8.77827 19.2084 8.77827 18.9729C8.77827 18.7208 8.84687 18.4909 8.98406 18.2833C9.12125 18.0756 9.32703 17.9088 9.60141 17.7846C9.87579 17.6604 10.2225 17.5992 10.6377 17.5992C10.9158 17.5992 11.1884 17.6326 11.4572 17.6974C11.726 17.7623 11.9633 17.8606 12.1691 17.9904L11.8539 18.7653C11.6481 18.6485 11.4423 18.5595 11.2366 18.5039C11.0308 18.4464 10.8287 18.4186 10.6322 18.4186C10.4357 18.4186 10.2725 18.4409 10.1465 18.4872C10.0204 18.5336 9.92955 18.5929 9.87579 18.667C9.82203 18.7412 9.79422 18.8265 9.79422 18.9229C9.79422 19.036 9.84056 19.1287 9.93326 19.1973C10.026 19.2658 10.1483 19.3215 10.2985 19.3641C10.4505 19.4067 10.6174 19.4475 10.799 19.4902C10.9826 19.5328 11.1643 19.581 11.3478 19.6348C11.5313 19.6885 11.6982 19.7627 11.8484 19.8554C12.0004 19.9481 12.1227 20.0704 12.2173 20.2206C12.3118 20.3726 12.36 20.5636 12.36 20.7935C12.36 21.0419 12.2914 21.2681 12.1524 21.4739C12.0133 21.6796 11.8057 21.8465 11.5313 21.9726C11.257 22.0986 10.9084 22.1617 10.4876 22.1617Z" fill="#30302F"/>
<path d="M13.059 22.0856V17.6733H14.0805V22.0856H13.059Z" fill="#30302F"/>
<path d="M15.1279 22.0856V17.6733H16.1494V21.2532H18.3611V22.0856H15.1279Z" fill="#30302F"/>
<path d="M19.9499 22.0856L18.046 17.6733H19.1491L20.8139 21.5814H20.165L21.8539 17.6733H22.868L20.9585 22.0856H19.9499Z" fill="#30302F"/>
<path d="M24.2473 21.2662H26.6481V22.0856H23.2314V17.6733H26.5666V18.4928H24.2473V21.2662ZM24.1713 19.4512H26.2959V20.2447H24.1713V19.4512Z" fill="#30302F"/>
<path d="M27.462 22.0856V17.6733H29.3715C29.7664 17.6733 30.1075 17.7382 30.393 17.8661C30.6785 17.9941 30.8991 18.1776 31.0549 18.4168C31.2106 18.6559 31.2885 18.9414 31.2885 19.2733C31.2885 19.6051 31.2106 19.8832 31.0549 20.1205C30.8991 20.3578 30.6785 20.5395 30.393 20.6656C30.1075 20.7916 29.7664 20.8547 29.3715 20.8547H28.0293L28.4835 20.4079V22.0838H27.462V22.0856ZM28.4835 20.5228L28.0293 20.0445H29.3159C29.6311 20.0445 29.8665 19.9759 30.0222 19.8387C30.178 19.7015 30.2558 19.5143 30.2558 19.2751C30.2558 19.036 30.178 18.8432 30.0222 18.7078C29.8665 18.5725 29.6311 18.5057 29.3159 18.5057H28.0293L28.4835 18.02V20.5228ZM30.267 22.0856L29.1639 20.4839H30.254L31.37 22.0856H30.267Z" fill="#30302F"/>
</g>
<defs>
<linearGradient id="paint0_linear_1711_3" x1="20.0012" y1="34.239" x2="20.0012" y2="-0.814723" gradientUnits="userSpaceOnUse">
<stop stop-color="#DDD9D6"/>
<stop offset="0.06" stop-color="#CECAC8"/>
<stop offset="0.18" stop-color="#A8A3A6"/>
<stop offset="0.26" stop-color="#8B868C"/>
<stop offset="0.52" stop-color="#F3F4F4"/>
<stop offset="0.58" stop-color="#E4E5E5"/>
<stop offset="0.7" stop-color="#BFBEC0"/>
<stop offset="0.86" stop-color="#847F84"/>
<stop offset="0.88" stop-color="#807B80"/>
<stop offset="1" stop-color="#A7A8AB"/>
</linearGradient>
<linearGradient id="paint1_linear_1711_3" x1="20" y1="5.88801" x2="20" y2="40.0741" gradientUnits="userSpaceOnUse">
<stop stop-color="#DDD9D6"/>
<stop offset="0.06" stop-color="#CECAC8"/>
<stop offset="0.18" stop-color="#A8A3A6"/>
<stop offset="0.26" stop-color="#8B868C"/>
<stop offset="0.52" stop-color="#F3F4F4"/>
<stop offset="0.58" stop-color="#E4E5E5"/>
<stop offset="0.7" stop-color="#BFBEC0"/>
<stop offset="0.86" stop-color="#847F84"/>
<stop offset="0.88" stop-color="#807B80"/>
<stop offset="1" stop-color="#A7A8AB"/>
</linearGradient>
<linearGradient id="paint2_linear_1711_3" x1="39.2232" y1="20" x2="-5.04264" y2="20" gradientUnits="userSpaceOnUse">
<stop stop-color="#B87A2A"/>
<stop offset="0.1" stop-color="#C68D39"/>
<stop offset="0.37" stop-color="#E7BD60"/>
<stop offset="0.5" stop-color="#F5D06F"/>
<stop offset="0.63" stop-color="#E7BD60"/>
<stop offset="0.9" stop-color="#C68D39"/>
<stop offset="1" stop-color="#B87A2A"/>
</linearGradient>
<linearGradient id="paint3_linear_1711_3" x1="0.428254" y1="20" x2="39.5421" y2="20" gradientUnits="userSpaceOnUse">
<stop stop-color="#DDD9D6"/>
<stop offset="0.06" stop-color="#CECAC8"/>
<stop offset="0.18" stop-color="#A8A3A6"/>
<stop offset="0.26" stop-color="#8B868C"/>
<stop offset="0.52" stop-color="#F3F4F4"/>
<stop offset="0.58" stop-color="#E4E5E5"/>
<stop offset="0.7" stop-color="#BFBEC0"/>
<stop offset="0.86" stop-color="#847F84"/>
<stop offset="0.88" stop-color="#807B80"/>
<stop offset="1" stop-color="#A7A8AB"/>
</linearGradient>
<clipPath id="clip0_1711_3">
<rect width="40" height="40" fill="white"/>
</clipPath>
</defs>
</svg>
