<svg width="100" height="100" viewBox="0 0 100 100" fill="none" xmlns="http://www.w3.org/2000/svg">
<g clip-path="url(#clip0_1153_15583)">
<path d="M56.814 85.6251C76.4871 81.8616 89.3843 62.8625 85.6208 43.1894C81.8573 23.5164 62.8582 10.6192 43.1852 14.3827C23.5121 18.1462 10.6149 37.1453 14.3784 56.8183C18.1419 76.4914 37.141 89.3886 56.814 85.6251Z" fill="url(#paint0_linear_1153_15583)"/>
<path d="M49.9999 86.8002C29.7088 86.8002 13.1997 70.2911 13.1997 50C13.1997 29.7089 29.7088 13.1952 49.9999 13.1952C70.2909 13.1952 86.8 29.7043 86.8 49.9954C86.8 70.2864 70.2909 86.7955 49.9999 86.7955V86.8002ZM49.9999 14.2612C30.2974 14.2612 14.2657 30.2929 14.2657 49.9954C14.2657 69.6978 30.2974 85.7295 49.9999 85.7295C69.7023 85.7295 85.734 69.6978 85.734 49.9954C85.734 30.2929 69.7023 14.2659 49.9999 14.2659V14.2612Z" fill="url(#paint1_linear_1153_15583)"/>
<path d="M98.5401 54.2872C98.0302 53.9118 97.7661 53.4622 97.7939 53.0126C97.8217 52.563 98.1415 52.1459 98.693 51.84C99.5319 51.3719 99.9954 50.7184 99.9954 50C99.9954 49.2816 99.5319 48.6281 98.693 48.16C98.1415 47.8495 97.8217 47.437 97.7939 46.9874C97.7661 46.5378 98.0302 46.0836 98.5401 45.7082C99.3141 45.1381 99.6941 44.4336 99.6014 43.7199C99.5134 43.0061 98.9711 42.4175 98.0766 42.056C97.488 41.8196 97.1218 41.4488 97.0384 41.0039C96.955 40.5636 97.1589 40.0816 97.6177 39.6459C98.3176 38.9831 98.6003 38.2369 98.4242 37.5371C98.2434 36.8419 97.6316 36.3228 96.7047 36.0818C96.0929 35.9195 95.6804 35.5997 95.5414 35.1687C95.4023 34.7423 95.546 34.2371 95.9492 33.7458C96.561 32.9996 96.751 32.221 96.4822 31.5536C96.218 30.8862 95.546 30.4505 94.5959 30.3254C93.9655 30.2419 93.516 29.9731 93.3259 29.5653C93.1359 29.162 93.2147 28.6383 93.553 28.1053C94.0629 27.2896 94.1556 26.4924 93.8126 25.8621C93.465 25.2317 92.7466 24.8841 91.7872 24.8795C91.1522 24.8795 90.6748 24.6663 90.4338 24.2862C90.1928 23.9062 90.2067 23.3825 90.4755 22.8078C90.8602 21.9781 90.8695 21.2041 90.5033 20.6294C90.1048 20.0037 89.3354 19.7024 88.3157 19.8322C87.6576 19.9064 87.1339 19.7395 86.8604 19.3641C86.6101 19.0165 86.5731 18.5113 86.7538 17.9412C87.018 17.1162 86.9531 16.3793 86.5731 15.8602C86.1142 15.2345 85.2475 15.0074 84.2371 15.2577C83.5744 15.4245 83.0043 15.304 82.6937 14.9286C82.4342 14.6181 82.3508 14.1361 82.4527 13.5799C82.601 12.7688 82.4759 12.0875 82.082 11.6101C81.5629 10.9891 80.6359 10.8361 79.6255 11.2347C78.9581 11.4943 78.3556 11.4294 78.0033 11.0539C77.7392 10.7759 77.614 10.3263 77.6418 9.79329C77.6882 9.01928 77.4982 8.38432 77.0996 7.96255C76.5109 7.33686 75.5377 7.2766 74.5365 7.82351C74.2121 7.99963 73.9016 8.08769 73.6142 8.08769C72.9097 8.08769 72.4555 7.54542 72.3953 6.637C72.3072 5.34854 71.5935 4.51891 70.5738 4.51891C70.0918 4.51891 69.5727 4.70894 69.0721 5.07045C68.7199 5.32536 68.3584 5.46441 68.0293 5.46441C67.4175 5.46441 66.954 4.97775 66.7964 4.1713C66.5693 3.00334 65.8602 2.28031 64.9472 2.28031C64.4003 2.28031 63.8302 2.54449 63.3018 3.03578C62.931 3.38339 62.5417 3.56415 62.1709 3.56415C61.6194 3.56415 61.1698 3.14702 60.9288 2.42399C60.5858 1.3858 59.8906 0.764739 59.0656 0.764739C58.4492 0.764739 57.8467 1.09844 57.3183 1.73341C56.9568 2.16444 56.5351 2.40545 56.1318 2.40545C55.6405 2.40545 55.191 2.04857 54.8943 1.42288C54.4633 0.519095 53.7913 0 53.0404 0C52.3591 0 51.7149 0.421765 51.2236 1.19114C50.5423 2.25714 49.4577 2.25714 48.7764 1.19114C48.2851 0.421765 47.6409 0 46.9596 0C46.2134 0 45.5367 0.519095 45.1057 1.42288C44.8091 2.04857 44.3595 2.40545 43.8682 2.40545C43.465 2.40545 43.0432 2.16444 42.6817 1.73341C42.1533 1.09844 41.5508 0.764739 40.9344 0.764739C40.1094 0.764739 39.4142 1.3858 39.0712 2.41935C38.8302 3.14238 38.3806 3.55951 37.8291 3.55951C37.4583 3.55951 37.069 3.37875 36.6982 3.03115C36.1698 2.53986 35.5998 2.27568 35.0528 2.27568C34.1398 2.27568 33.4307 3.00334 33.2036 4.16667C33.046 4.97775 32.5871 5.45977 31.9707 5.45977C31.6417 5.45977 31.2801 5.32073 30.9279 5.06581C30.4227 4.7043 29.9036 4.51428 29.4262 4.51428C28.4066 4.51428 27.6928 5.34854 27.6048 6.63237C27.5445 7.54079 27.0857 8.08306 26.3812 8.08306C26.0985 8.08306 25.7787 7.99036 25.4589 7.81887C24.4577 7.27197 23.4844 7.33686 22.9005 7.95792C22.5019 8.37968 22.3118 9.01465 22.3582 9.78866C22.3906 10.3217 22.2609 10.7712 21.9967 11.0493C21.6444 11.4247 21.0419 11.4896 20.3745 11.2301C19.3641 10.8361 18.4372 10.9844 17.9181 11.6101C17.5241 12.0829 17.3943 12.7642 17.5473 13.5753C17.6492 14.1314 17.5658 14.6135 17.3063 14.924C16.9911 15.304 16.4257 15.4199 15.7583 15.2531C14.7479 14.9981 13.8812 15.2253 13.427 15.8556C13.0469 16.3747 12.982 17.1162 13.2462 17.9366C13.427 18.5113 13.3899 19.0165 13.1396 19.3595C12.8662 19.7349 12.3424 19.9064 11.6843 19.8276C10.66 19.6978 9.89526 19.9991 9.49667 20.6294C9.13052 21.2041 9.13979 21.9781 9.52448 22.8078C9.7933 23.3825 9.8072 23.9062 9.56619 24.2862C9.32518 24.6663 8.8478 24.8795 8.21284 24.8795C7.25344 24.8795 6.53041 25.2317 6.18744 25.8621C5.83983 26.4924 5.93253 27.2896 6.44699 28.1053C6.78533 28.6383 6.86412 29.162 6.67409 29.5653C6.48406 29.9731 6.03449 30.2419 5.40416 30.3254C4.4494 30.4505 3.78199 30.8862 3.51781 31.5536C3.25362 32.221 3.44365 32.9996 4.05544 33.7458C4.45867 34.2325 4.60234 34.7377 4.4633 35.1687C4.32426 35.5951 3.91176 35.9195 3.29997 36.0818C2.36838 36.3274 1.75659 36.8419 1.58047 37.5371C1.39971 38.2323 1.68707 38.9831 2.38692 39.6459C2.84576 40.0816 3.05433 40.5636 2.96627 41.0039C2.88284 41.4442 2.51206 41.8196 1.92808 42.056C1.03356 42.4129 0.495929 43.0061 0.403234 43.7152C0.315173 44.429 0.69059 45.1381 1.4646 45.7036C1.97442 46.079 2.23861 46.5332 2.2108 46.9828C2.18299 47.4323 1.86319 47.8495 1.31165 48.1554C0.472755 48.6235 0.00927734 49.277 0.00927734 49.9954C0.00927734 50.7138 0.472755 51.3673 1.31165 51.8354C1.86319 52.1459 2.18299 52.5584 2.2108 53.008C2.23861 53.4576 1.97442 53.9071 1.4646 54.2825C0.69059 54.8526 0.310538 55.5571 0.403234 56.2709C0.491294 56.9846 1.03356 57.5732 1.92808 57.9301C2.51669 58.1665 2.88284 58.5419 2.9709 58.9822C3.05433 59.4271 2.8504 59.9092 2.39155 60.3402C1.6917 61.003 1.40435 61.7538 1.5851 62.449C1.76122 63.1442 2.37302 63.6633 3.30461 63.9043C3.9164 64.0619 4.32889 64.3864 4.46794 64.8174C4.60698 65.2438 4.4633 65.749 4.06007 66.2403C3.45292 66.9865 3.26289 67.7651 3.52244 68.4325C3.78662 69.0999 4.45867 69.5356 5.4088 69.6607C6.03449 69.7442 6.4887 70.013 6.67873 70.4208C6.86875 70.8287 6.78996 71.3478 6.45162 71.8808C5.9418 72.6965 5.8491 73.4891 6.19207 74.124C6.53968 74.7544 7.25807 75.102 8.21747 75.1066C8.85244 75.1066 9.32982 75.3198 9.57083 75.6999C9.81184 76.0799 9.79793 76.6036 9.52911 77.1784C9.14443 78.008 9.13516 78.7774 9.50131 79.3567C9.8999 79.9824 10.6693 80.2883 11.6889 80.1585C12.3424 80.0797 12.8708 80.2512 13.1442 80.6266C13.3945 80.9696 13.4362 81.4748 13.2508 82.0495C12.9867 82.8745 13.0515 83.6114 13.4316 84.1352C13.8904 84.7608 14.7571 84.988 15.7629 84.733C16.4303 84.5616 16.9957 84.6867 17.3109 85.0621C17.5705 85.3726 17.6539 85.8547 17.5519 86.4108C17.399 87.2219 17.5287 87.9032 17.9227 88.376C18.4418 89.0017 19.3688 89.15 20.3791 88.756C21.0419 88.4965 21.6491 88.5614 22.0013 88.9368C22.2655 89.2149 22.3953 89.6645 22.3628 90.1974C22.3165 90.9715 22.5065 91.6018 22.9051 92.0282C23.4937 92.6492 24.4624 92.7141 25.4635 92.1672C25.7879 91.9911 26.0985 91.8984 26.3858 91.8984C27.0903 91.8984 27.5445 92.4407 27.6094 93.3491C27.6975 94.6376 28.4112 95.4718 29.4309 95.4718C29.9129 95.4718 30.432 95.2818 30.9325 94.9156C31.2848 94.6607 31.6463 94.5263 31.9754 94.5263C32.5918 94.5263 33.0506 95.0084 33.2082 95.8194C33.4353 96.9874 34.1444 97.7104 35.0575 97.7104C35.6044 97.7104 36.1745 97.4509 36.7028 96.9596C37.0736 96.612 37.4629 96.4312 37.8337 96.4312C38.3853 96.4312 38.8348 96.8484 39.0758 97.5714C39.4142 98.6096 40.114 99.226 40.939 99.226C41.5554 99.226 42.158 98.8923 42.6863 98.2573C43.0478 97.8217 43.4696 97.5853 43.8728 97.5853C44.3641 97.5853 44.8183 97.9422 45.1103 98.5679C45.5414 99.4716 46.2134 99.9907 46.9642 99.9907C47.6455 99.9907 48.2898 99.569 48.7811 98.7996C49.4624 97.7336 50.5469 97.7336 51.2282 98.7996C51.7195 99.569 52.3638 99.9907 53.0451 99.9907C53.7913 99.9907 54.4679 99.4716 54.899 98.5679C55.1956 97.9422 55.6498 97.5853 56.1411 97.5853C56.5443 97.5853 56.9661 97.8263 57.3276 98.2573C57.856 98.8923 58.4585 99.226 59.0749 99.226C59.8999 99.226 60.5951 98.6049 60.9381 97.5714C61.1745 96.8484 61.6287 96.4312 62.1802 96.4312C62.551 96.4312 62.9403 96.6166 63.3111 96.9596C63.8395 97.4509 64.4049 97.7104 64.9564 97.7104C65.8695 97.7104 66.5786 96.9874 66.8057 95.8194C66.9633 95.0084 67.4268 94.5263 68.0386 94.5263C68.3676 94.5263 68.7292 94.6607 69.0814 94.9156C69.5866 95.2818 70.1057 95.4718 70.5831 95.4718C71.6027 95.4718 72.3165 94.6376 72.4045 93.3491C72.4648 92.4407 72.919 91.8984 73.6235 91.8984C73.9108 91.8984 74.2306 91.9911 74.5458 92.1672C75.5469 92.7141 76.5202 92.6492 77.1088 92.0282C77.5074 91.6018 77.6974 90.9715 77.6511 90.1974C77.6187 89.6645 77.7484 89.2149 78.0126 88.9368C78.3649 88.5614 78.9674 88.4965 79.6348 88.756C80.6452 89.15 81.5768 89.0017 82.0912 88.376C82.4852 87.8986 82.615 87.2173 82.462 86.4108C82.3554 85.8547 82.4435 85.3726 82.703 85.0621C83.0182 84.6867 83.5836 84.5662 84.2464 84.733C85.2521 84.988 86.1235 84.7608 86.5823 84.1352C86.9624 83.6114 87.0273 82.8745 86.7631 82.0495C86.5823 81.4748 86.6194 80.9696 86.8697 80.6266C87.1431 80.2512 87.6669 80.0797 88.325 80.1585C89.3493 80.2883 90.114 79.9824 90.5126 79.3567C90.8788 78.782 90.8695 78.008 90.4848 77.1784C90.2206 76.6036 90.2021 76.0799 90.4431 75.6999C90.6841 75.3198 91.1615 75.1112 91.7964 75.1066C92.7559 75.1066 93.4789 74.7544 93.8218 74.124C94.1648 73.4937 94.0768 72.6965 93.5623 71.8808C93.224 71.3432 93.1452 70.8241 93.3352 70.4208C93.5252 70.013 93.9748 69.7442 94.6051 69.6607C95.5599 69.5356 96.2273 69.0999 96.4915 68.4325C96.7557 67.7651 96.5656 66.9865 95.9585 66.2403C95.5553 65.7536 95.4116 65.2484 95.5506 64.8174C95.6897 64.391 96.1022 64.0666 96.714 63.9043C97.6455 63.6633 98.2573 63.1442 98.4335 62.449C98.6096 61.7538 98.3269 61.003 97.627 60.3402C97.1682 59.9045 96.9596 59.4225 97.0477 58.9822C97.1311 58.5419 97.5019 58.1665 98.0859 57.9301C98.9804 57.5732 99.518 56.9846 99.6107 56.2709C99.7034 55.5571 99.3233 54.8526 98.5493 54.2825L98.5401 54.2872ZM50 92.9366C26.3209 92.9366 7.05878 73.6745 7.05878 49.9954C7.05878 26.3163 26.3209 7.05877 50 7.05877C73.6791 7.05877 92.9412 26.3209 92.9412 50C92.9412 73.6791 73.6791 92.9412 50 92.9412V92.9366Z" fill="url(#paint2_linear_1153_15583)"/>
<path d="M98.5401 54.2872C98.0302 53.9118 97.7661 53.4622 97.7939 53.0126C97.8217 52.563 98.1415 52.1459 98.693 51.84C99.5319 51.3719 99.9954 50.7184 99.9954 50C99.9954 49.2816 99.5319 48.6281 98.693 48.16C98.1415 47.8495 97.8217 47.437 97.7939 46.9874C97.7661 46.5378 98.0302 46.0836 98.5401 45.7082C99.3141 45.1381 99.6941 44.4336 99.6014 43.7199C99.5134 43.0061 98.9711 42.4175 98.0766 42.056C97.488 41.8196 97.1218 41.4488 97.0384 41.0039C96.955 40.5636 97.1589 40.0816 97.6177 39.6459C98.3176 38.9831 98.6003 38.2369 98.4242 37.5371C98.2434 36.8419 97.6316 36.3228 96.7047 36.0818C96.0929 35.9195 95.6804 35.5997 95.5414 35.1687C95.4023 34.7423 95.546 34.2371 95.9492 33.7458C96.561 32.9996 96.751 32.221 96.4822 31.5536C96.218 30.8862 95.546 30.4505 94.5959 30.3254C93.9655 30.2419 93.516 29.9731 93.3259 29.5653C93.1359 29.162 93.2147 28.6383 93.553 28.1053C94.0629 27.2896 94.1556 26.4924 93.8126 25.8621C93.465 25.2317 92.7466 24.8841 91.7872 24.8795C91.1522 24.8795 90.6748 24.6663 90.4338 24.2862C90.1928 23.9062 90.2067 23.3825 90.4755 22.8078C90.8602 21.9781 90.8695 21.2041 90.5033 20.6294C90.1048 20.0037 89.3354 19.7024 88.3157 19.8322C87.6576 19.9064 87.1339 19.7395 86.8604 19.3641C86.6101 19.0165 86.5731 18.5113 86.7538 17.9412C87.018 17.1162 86.9531 16.3793 86.5731 15.8602C86.1142 15.2345 85.2475 15.0074 84.2371 15.2577C83.5744 15.4245 83.0043 15.304 82.6937 14.9286C82.4342 14.6181 82.3508 14.1361 82.4527 13.5799C82.601 12.7688 82.4759 12.0875 82.082 11.6101C81.5629 10.9891 80.6359 10.8361 79.6255 11.2347C78.9581 11.4943 78.3556 11.4294 78.0033 11.0539C77.7392 10.7759 77.614 10.3263 77.6418 9.79329C77.6882 9.01928 77.4982 8.38432 77.0996 7.96255C76.5109 7.33686 75.5377 7.2766 74.5365 7.82351C74.2121 7.99963 73.9016 8.08769 73.6142 8.08769C72.9097 8.08769 72.4555 7.54542 72.3953 6.637C72.3072 5.34854 71.5935 4.51891 70.5738 4.51891C70.0918 4.51891 69.5727 4.70894 69.0721 5.07045C68.7199 5.32536 68.3584 5.46441 68.0293 5.46441C67.4175 5.46441 66.954 4.97775 66.7964 4.1713C66.5693 3.00334 65.8602 2.28031 64.9472 2.28031C64.4003 2.28031 63.8302 2.54449 63.3018 3.03578C62.931 3.38339 62.5417 3.56415 62.1709 3.56415C61.6194 3.56415 61.1698 3.14702 60.9288 2.42399C60.5858 1.3858 59.8906 0.764739 59.0656 0.764739C58.4492 0.764739 57.8467 1.09844 57.3183 1.73341C56.9568 2.16444 56.5351 2.40545 56.1318 2.40545C55.6405 2.40545 55.191 2.04857 54.8943 1.42288C54.4633 0.519095 53.7913 0 53.0404 0C52.3591 0 51.7149 0.421765 51.2236 1.19114C50.5423 2.25714 49.4577 2.25714 48.7764 1.19114C48.2851 0.421765 47.6409 0 46.9596 0C46.2134 0 45.5367 0.519095 45.1057 1.42288C44.8091 2.04857 44.3595 2.40545 43.8682 2.40545C43.465 2.40545 43.0432 2.16444 42.6817 1.73341C42.1533 1.09844 41.5508 0.764739 40.9344 0.764739C40.1094 0.764739 39.4142 1.3858 39.0712 2.41935C38.8302 3.14238 38.3806 3.55951 37.8291 3.55951C37.4583 3.55951 37.069 3.37875 36.6982 3.03115C36.1698 2.53986 35.5998 2.27568 35.0528 2.27568C34.1398 2.27568 33.4307 3.00334 33.2036 4.16667C33.046 4.97775 32.5871 5.45977 31.9707 5.45977C31.6417 5.45977 31.2801 5.32073 30.9279 5.06581C30.4227 4.7043 29.9036 4.51428 29.4262 4.51428C28.4066 4.51428 27.6928 5.34854 27.6048 6.63237C27.5445 7.54079 27.0857 8.08306 26.3812 8.08306C26.0985 8.08306 25.7787 7.99036 25.4589 7.81887C24.4577 7.27197 23.4844 7.33686 22.9005 7.95792C22.5019 8.37968 22.3118 9.01465 22.3582 9.78866C22.3906 10.3217 22.2609 10.7712 21.9967 11.0493C21.6444 11.4247 21.0419 11.4896 20.3745 11.2301C19.3641 10.8361 18.4372 10.9844 17.9181 11.6101C17.5241 12.0829 17.3943 12.7642 17.5473 13.5753C17.6492 14.1314 17.5658 14.6135 17.3063 14.924C16.9911 15.304 16.4257 15.4199 15.7583 15.2531C14.7479 14.9981 13.8812 15.2253 13.427 15.8556C13.0469 16.3747 12.982 17.1162 13.2462 17.9366C13.427 18.5113 13.3899 19.0165 13.1396 19.3595C12.8662 19.7349 12.3424 19.9064 11.6843 19.8276C10.66 19.6978 9.89526 19.9991 9.49667 20.6294C9.13052 21.2041 9.13979 21.9781 9.52448 22.8078C9.7933 23.3825 9.8072 23.9062 9.56619 24.2862C9.32518 24.6663 8.8478 24.8795 8.21284 24.8795C7.25344 24.8795 6.53041 25.2317 6.18744 25.8621C5.83983 26.4924 5.93253 27.2896 6.44699 28.1053C6.78533 28.6383 6.86412 29.162 6.67409 29.5653C6.48406 29.9731 6.03449 30.2419 5.40416 30.3254C4.4494 30.4505 3.78199 30.8862 3.51781 31.5536C3.25362 32.221 3.44365 32.9996 4.05544 33.7458C4.45867 34.2325 4.60234 34.7377 4.4633 35.1687C4.32426 35.5951 3.91176 35.9195 3.29997 36.0818C2.36838 36.3274 1.75659 36.8419 1.58047 37.5371C1.39971 38.2323 1.68707 38.9831 2.38692 39.6459C2.84576 40.0816 3.05433 40.5636 2.96627 41.0039C2.88284 41.4442 2.51206 41.8196 1.92808 42.056C1.03356 42.4129 0.495929 43.0061 0.403234 43.7152C0.315173 44.429 0.69059 45.1381 1.4646 45.7036C1.97442 46.079 2.23861 46.5332 2.2108 46.9828C2.18299 47.4323 1.86319 47.8495 1.31165 48.1554C0.472755 48.6235 0.00927734 49.277 0.00927734 49.9954C0.00927734 50.7138 0.472755 51.3673 1.31165 51.8354C1.86319 52.1459 2.18299 52.5584 2.2108 53.008C2.23861 53.4576 1.97442 53.9071 1.4646 54.2825C0.69059 54.8526 0.310538 55.5571 0.403234 56.2709C0.491294 56.9846 1.03356 57.5732 1.92808 57.9301C2.51669 58.1665 2.88284 58.5419 2.9709 58.9822C3.05433 59.4271 2.8504 59.9092 2.39155 60.3402C1.6917 61.003 1.40435 61.7538 1.5851 62.449C1.76122 63.1442 2.37302 63.6633 3.30461 63.9043C3.9164 64.0619 4.32889 64.3864 4.46794 64.8174C4.60698 65.2438 4.4633 65.749 4.06007 66.2403C3.45292 66.9865 3.26289 67.7651 3.52244 68.4325C3.78662 69.0999 4.45867 69.5356 5.4088 69.6607C6.03449 69.7442 6.4887 70.013 6.67873 70.4208C6.86875 70.8287 6.78996 71.3478 6.45162 71.8808C5.9418 72.6965 5.8491 73.4891 6.19207 74.124C6.53968 74.7544 7.25807 75.102 8.21747 75.1066C8.85244 75.1066 9.32982 75.3198 9.57083 75.6999C9.81184 76.0799 9.79793 76.6036 9.52911 77.1784C9.14443 78.008 9.13516 78.7774 9.50131 79.3567C9.8999 79.9824 10.6693 80.2883 11.6889 80.1585C12.3424 80.0797 12.8708 80.2512 13.1442 80.6266C13.3945 80.9696 13.4362 81.4748 13.2508 82.0495C12.9867 82.8745 13.0515 83.6114 13.4316 84.1352C13.8904 84.7608 14.7571 84.988 15.7629 84.733C16.4303 84.5616 16.9957 84.6867 17.3109 85.0621C17.5705 85.3726 17.6539 85.8547 17.5519 86.4108C17.399 87.2219 17.5287 87.9032 17.9227 88.376C18.4418 89.0017 19.3688 89.15 20.3791 88.756C21.0419 88.4965 21.6491 88.5614 22.0013 88.9368C22.2655 89.2149 22.3953 89.6645 22.3628 90.1974C22.3165 90.9715 22.5065 91.6018 22.9051 92.0282C23.4937 92.6492 24.4624 92.7141 25.4635 92.1672C25.7879 91.9911 26.0985 91.8984 26.3858 91.8984C27.0903 91.8984 27.5445 92.4407 27.6094 93.3491C27.6975 94.6376 28.4112 95.4718 29.4309 95.4718C29.9129 95.4718 30.432 95.2818 30.9325 94.9156C31.2848 94.6607 31.6463 94.5263 31.9754 94.5263C32.5918 94.5263 33.0506 95.0084 33.2082 95.8194C33.4353 96.9874 34.1444 97.7104 35.0575 97.7104C35.6044 97.7104 36.1745 97.4509 36.7028 96.9596C37.0736 96.612 37.4629 96.4312 37.8337 96.4312C38.3853 96.4312 38.8348 96.8484 39.0758 97.5714C39.4142 98.6096 40.114 99.226 40.939 99.226C41.5554 99.226 42.158 98.8923 42.6863 98.2573C43.0478 97.8217 43.4696 97.5853 43.8728 97.5853C44.3641 97.5853 44.8183 97.9422 45.1103 98.5679C45.5414 99.4716 46.2134 99.9907 46.9642 99.9907C47.6455 99.9907 48.2898 99.569 48.7811 98.7996C49.4624 97.7336 50.5469 97.7336 51.2282 98.7996C51.7195 99.569 52.3638 99.9907 53.0451 99.9907C53.7913 99.9907 54.4679 99.4716 54.899 98.5679C55.1956 97.9422 55.6498 97.5853 56.1411 97.5853C56.5443 97.5853 56.9661 97.8263 57.3276 98.2573C57.856 98.8923 58.4585 99.226 59.0749 99.226C59.8999 99.226 60.5951 98.6049 60.9381 97.5714C61.1745 96.8484 61.6287 96.4312 62.1802 96.4312C62.551 96.4312 62.9403 96.6166 63.3111 96.9596C63.8395 97.4509 64.4049 97.7104 64.9564 97.7104C65.8695 97.7104 66.5786 96.9874 66.8057 95.8194C66.9633 95.0084 67.4268 94.5263 68.0386 94.5263C68.3676 94.5263 68.7292 94.6607 69.0814 94.9156C69.5866 95.2818 70.1057 95.4718 70.5831 95.4718C71.6027 95.4718 72.3165 94.6376 72.4045 93.3491C72.4648 92.4407 72.919 91.8984 73.6235 91.8984C73.9108 91.8984 74.2306 91.9911 74.5458 92.1672C75.5469 92.7141 76.5202 92.6492 77.1088 92.0282C77.5074 91.6018 77.6974 90.9715 77.6511 90.1974C77.6187 89.6645 77.7484 89.2149 78.0126 88.9368C78.3649 88.5614 78.9674 88.4965 79.6348 88.756C80.6452 89.15 81.5768 89.0017 82.0912 88.376C82.4852 87.8986 82.615 87.2173 82.462 86.4108C82.3554 85.8547 82.4435 85.3726 82.703 85.0621C83.0182 84.6867 83.5836 84.5662 84.2464 84.733C85.2521 84.988 86.1235 84.7608 86.5823 84.1352C86.9624 83.6114 87.0273 82.8745 86.7631 82.0495C86.5823 81.4748 86.6194 80.9696 86.8697 80.6266C87.1431 80.2512 87.6669 80.0797 88.325 80.1585C89.3493 80.2883 90.114 79.9824 90.5126 79.3567C90.8788 78.782 90.8695 78.008 90.4848 77.1784C90.2206 76.6036 90.2021 76.0799 90.4431 75.6999C90.6841 75.3198 91.1615 75.1112 91.7964 75.1066C92.7559 75.1066 93.4789 74.7544 93.8218 74.124C94.1648 73.4937 94.0768 72.6965 93.5623 71.8808C93.224 71.3432 93.1452 70.8241 93.3352 70.4208C93.5252 70.013 93.9748 69.7442 94.6051 69.6607C95.5599 69.5356 96.2273 69.0999 96.4915 68.4325C96.7557 67.7651 96.5656 66.9865 95.9585 66.2403C95.5553 65.7536 95.4116 65.2484 95.5506 64.8174C95.6897 64.391 96.1022 64.0666 96.714 63.9043C97.6455 63.6633 98.2573 63.1442 98.4335 62.449C98.6096 61.7538 98.3269 61.003 97.627 60.3402C97.1682 59.9045 96.9596 59.4225 97.0477 58.9822C97.1311 58.5419 97.5019 58.1665 98.0859 57.9301C98.9804 57.5732 99.518 56.9846 99.6107 56.2709C99.7034 55.5571 99.3233 54.8526 98.5493 54.2825L98.5401 54.2872ZM50 92.9366C26.3209 92.9366 7.05878 73.6745 7.05878 49.9954C7.05878 26.3163 26.3209 7.05877 50 7.05877C73.6791 7.05877 92.9412 26.3209 92.9412 50C92.9412 73.6791 73.6791 92.9412 50 92.9412V92.9366Z" fill="url(#paint3_linear_1153_15583)"/>
<path d="M58.7087 76.8817L57.8884 75.2225L56.0576 74.9537L57.3832 73.6652L57.068 71.8391L58.7087 72.7012L60.3448 71.8391L60.0296 73.6652L61.3552 74.9537L59.5244 75.2225L58.7087 76.8817Z" fill="#30302F"/>
<path d="M41.2912 76.8817L40.4755 75.2225L38.6401 74.9537L39.9657 73.6652L39.6552 71.8391L41.2912 72.7012L42.9319 71.8391L42.6168 73.6652L43.9423 74.9537L42.1116 75.2225L41.2912 76.8817Z" fill="#30302F"/>
<path d="M49.9997 78.9349L49.1794 77.2757L47.3486 77.0115L48.6742 75.7184L48.359 73.8923L49.9997 74.7543L51.6358 73.8923L51.3253 75.7184L52.6508 77.0115L50.8201 77.2757L49.9997 78.9349Z" fill="#30302F"/>
<path d="M58.7087 23.7672L57.8884 25.4264L56.0576 25.6906L57.3832 26.9837L57.068 28.8052L58.7087 27.9477L60.3448 28.8052L60.0296 26.9837L61.3552 25.6906L59.5244 25.4264L58.7087 23.7672Z" fill="#30302F"/>
<path d="M41.2912 23.7672L40.4755 25.4264L38.6401 25.6906L39.9657 26.9837L39.6552 28.8052L41.2912 27.9477L42.9319 28.8052L42.6168 26.9837L43.9423 25.6906L42.1116 25.4264L41.2912 23.7672Z" fill="#30302F"/>
<path d="M49.9997 21.7093L49.1794 23.3686L47.3486 23.6374L48.6742 24.9259L48.359 26.752L49.9997 25.8899L51.6358 26.752L51.3253 24.9259L52.6508 23.6374L50.8201 23.3686L49.9997 21.7093Z" fill="#30302F"/>
<path d="M26.2191 55.4041C25.3385 55.4041 24.4904 55.2883 23.6839 55.0473C22.8728 54.8109 22.2239 54.505 21.728 54.1249L22.5947 52.2015C23.0675 52.5399 23.6283 52.8133 24.2725 53.0311C24.9168 53.2443 25.5703 53.3556 26.233 53.3556C26.7382 53.3556 27.1461 53.3046 27.452 53.2073C27.7625 53.1099 27.9896 52.9663 28.1379 52.7901C28.2862 52.614 28.3604 52.4054 28.3604 52.1737C28.3604 51.8817 28.2445 51.6453 28.0128 51.4739C27.781 51.3024 27.4752 51.1587 27.0997 51.0475C26.7197 50.9362 26.3026 50.8343 25.8483 50.7323C25.3895 50.635 24.9353 50.5098 24.4765 50.3615C24.0176 50.2132 23.6005 50.0232 23.2251 49.7961C22.845 49.5643 22.5391 49.2584 22.3027 48.883C22.0664 48.503 21.9459 48.0209 21.9459 47.4323C21.9459 46.802 22.1173 46.2273 22.4603 45.7082C22.8033 45.1891 23.3178 44.772 24.0037 44.4614C24.6897 44.1509 25.5564 43.998 26.5945 43.998C27.2898 43.998 27.9711 44.0814 28.6431 44.2436C29.3152 44.4058 29.9084 44.6515 30.4229 44.9759L29.635 46.9132C29.1205 46.6212 28.606 46.3988 28.0916 46.2597C27.5771 46.116 27.0719 46.0465 26.5806 46.0465C26.0894 46.0465 25.6815 46.1021 25.3663 46.218C25.0512 46.3339 24.8241 46.4822 24.6897 46.6676C24.5552 46.853 24.4857 47.0662 24.4857 47.3072C24.4857 47.5899 24.6016 47.8216 24.8333 47.9931C25.0651 48.1646 25.371 48.3037 25.7464 48.4103C26.1264 48.5169 26.5436 48.6188 26.9978 48.7254C27.4566 48.832 27.9108 48.9525 28.3697 49.0869C28.8285 49.2214 29.2456 49.4067 29.6211 49.6385C30.0011 49.8702 30.307 50.1761 30.5434 50.5515C30.7798 50.9316 30.9003 51.409 30.9003 51.9837C30.9003 52.6047 30.7288 53.1702 30.3812 53.6846C30.0336 54.1991 29.5145 54.6162 28.8285 54.9314C28.1426 55.2466 27.2712 55.4041 26.2191 55.4041Z" fill="#30302F"/>
<path d="M32.6475 55.2141V44.1833H35.2012V55.2141H32.6475Z" fill="#30302F"/>
<path d="M37.8198 55.2141V44.1833H40.3736V53.1331H45.9029V55.2141H37.8198Z" fill="#30302F"/>
<path d="M49.8752 55.2141L45.1152 44.1833H47.8729L52.035 53.9535H50.4128L54.6351 44.1833H57.1703L52.3965 55.2141H49.8752Z" fill="#30302F"/>
<path d="M60.618 53.1656H66.62V55.2141H58.0781V44.1833H66.4161V46.2319H60.618V53.1656ZM60.428 48.6281H65.7394V50.6118H60.428V48.6281Z" fill="#30302F"/>
<path d="M68.6553 55.2141V44.1833H73.4291C74.4163 44.1833 75.2691 44.3456 75.9829 44.6654C76.6966 44.9852 77.2481 45.444 77.6375 46.0419C78.0268 46.6398 78.2215 47.3535 78.2215 48.1832C78.2215 49.0128 78.0268 49.708 77.6375 50.3013C77.2481 50.8945 76.6966 51.3487 75.9829 51.6639C75.2691 51.979 74.4163 52.1366 73.4291 52.1366H70.0735L71.209 51.0196V55.2095H68.6553V55.2141ZM71.209 51.307L70.0735 50.1112H73.2901C74.078 50.1112 74.6666 49.9397 75.0559 49.5968C75.4452 49.2538 75.6399 48.7857 75.6399 48.1878C75.6399 47.5899 75.4452 47.1079 75.0559 46.7696C74.6666 46.4312 74.078 46.2644 73.2901 46.2644H70.0735L71.209 45.0501V51.307ZM75.6677 55.2141L72.91 51.2097H75.6352L78.4254 55.2141H75.6677Z" fill="#30302F"/>
</g>
<defs>
<linearGradient id="paint0_linear_1153_15583" x1="50.0033" y1="85.5977" x2="50.0033" y2="-2.03675" gradientUnits="userSpaceOnUse">
<stop stop-color="#DDD9D6"/>
<stop offset="0.06" stop-color="#CECAC8"/>
<stop offset="0.18" stop-color="#A8A3A6"/>
<stop offset="0.26" stop-color="#8B868C"/>
<stop offset="0.52" stop-color="#F3F4F4"/>
<stop offset="0.58" stop-color="#E4E5E5"/>
<stop offset="0.7" stop-color="#BFBEC0"/>
<stop offset="0.86" stop-color="#847F84"/>
<stop offset="0.88" stop-color="#807B80"/>
<stop offset="1" stop-color="#A7A8AB"/>
</linearGradient>
<linearGradient id="paint1_linear_1153_15583" x1="49.9999" y1="14.7201" x2="49.9999" y2="100.185" gradientUnits="userSpaceOnUse">
<stop stop-color="#DDD9D6"/>
<stop offset="0.06" stop-color="#CECAC8"/>
<stop offset="0.18" stop-color="#A8A3A6"/>
<stop offset="0.26" stop-color="#8B868C"/>
<stop offset="0.52" stop-color="#F3F4F4"/>
<stop offset="0.58" stop-color="#E4E5E5"/>
<stop offset="0.7" stop-color="#BFBEC0"/>
<stop offset="0.86" stop-color="#847F84"/>
<stop offset="0.88" stop-color="#807B80"/>
<stop offset="1" stop-color="#A7A8AB"/>
</linearGradient>
<linearGradient id="paint2_linear_1153_15583" x1="98.058" y1="50" x2="-12.6066" y2="50" gradientUnits="userSpaceOnUse">
<stop stop-color="#B87A2A"/>
<stop offset="0.1" stop-color="#C68D39"/>
<stop offset="0.37" stop-color="#E7BD60"/>
<stop offset="0.5" stop-color="#F5D06F"/>
<stop offset="0.63" stop-color="#E7BD60"/>
<stop offset="0.9" stop-color="#C68D39"/>
<stop offset="1" stop-color="#B87A2A"/>
</linearGradient>
<linearGradient id="paint3_linear_1153_15583" x1="1.07064" y1="50" x2="98.8552" y2="50" gradientUnits="userSpaceOnUse">
<stop stop-color="#DDD9D6"/>
<stop offset="0.06" stop-color="#CECAC8"/>
<stop offset="0.18" stop-color="#A8A3A6"/>
<stop offset="0.26" stop-color="#8B868C"/>
<stop offset="0.52" stop-color="#F3F4F4"/>
<stop offset="0.58" stop-color="#E4E5E5"/>
<stop offset="0.7" stop-color="#BFBEC0"/>
<stop offset="0.86" stop-color="#847F84"/>
<stop offset="0.88" stop-color="#807B80"/>
<stop offset="1" stop-color="#A7A8AB"/>
</linearGradient>
<clipPath id="clip0_1153_15583">
<rect width="100" height="100" fill="white"/>
</clipPath>
</defs>
</svg>
