<svg width="210" height="73" viewBox="0 0 210 73" fill="none" xmlns="http://www.w3.org/2000/svg">
<g clip-path="url(#clip0_1100_7068)">
<path d="M193.442 42.1806L190.14 52.7763L185.465 22.4605C185.256 21.1112 184.158 20.1245 182.794 20.0618C181.428 20.0025 180.246 20.8811 179.918 22.2095L172.593 51.7443L169.765 33.2236C169.573 31.9754 168.607 31.0201 167.356 30.8457C166.107 30.6714 164.915 31.3234 164.389 32.4705L159.943 42.1771H148.197C147.395 18.838 128.194 0.0871644 104.678 0C104.65 0 104.625 0 104.597 0H104.517C81.0002 0.0871644 61.7996 18.838 60.9977 42.1806H49.2514L44.806 32.474C44.283 31.3269 43.0906 30.6749 41.8389 30.8492C40.5907 31.0236 39.6215 31.9789 39.4332 33.2271L36.6056 51.7478L29.2803 22.213C28.9525 20.8881 27.7741 20.006 26.4038 20.0653C25.0406 20.128 23.9423 21.1147 23.7331 22.464L19.0576 52.7798L15.7558 42.1841H0V45.2383H13.507L16.4253 54.6068C16.8018 55.8201 17.8687 56.5976 19.1134 56.5976C19.1901 56.5976 19.2633 56.5976 19.34 56.5906C20.6824 56.4895 21.7214 55.5272 21.9271 54.1988L26.5782 24.0295L33.907 53.5678C34.2347 54.8927 35.4097 55.7748 36.7764 55.7155C38.1466 55.6562 39.2589 54.5858 39.4681 53.2296L42.341 34.4299L47.2919 45.2418H63.9543L64.0519 45.0989V42.1876C64.8573 20.5046 82.7295 3.10305 104.597 3.06121C126.465 3.10305 144.337 20.5046 145.143 42.1876V45.0989L145.24 45.2418H161.903L166.854 34.4299L169.727 53.2296C169.932 54.5858 171.048 55.6562 172.418 55.7155C173.785 55.7748 174.96 54.8927 175.288 53.5678L182.616 24.0295L187.268 54.1988C187.473 55.5307 188.512 56.4895 189.855 56.5906C189.931 56.5976 190.005 56.5976 190.081 56.5976C191.329 56.5976 192.393 55.8201 192.769 54.6068L195.688 45.2383H209.195V42.1841H193.442V42.1806Z" fill="#212129"/>
<path d="M104.597 5.49487C83.7825 5.49487 66.8551 22.1363 66.3949 42.8431H142.8C142.34 22.1398 125.412 5.49487 104.597 5.49487ZM80.5295 33.785C80.5295 34.5694 80.0344 35.2354 79.3406 35.4934V41.4415C79.3406 41.7936 79.0547 42.076 78.706 42.076C78.3573 42.076 78.0714 41.7901 78.0714 41.4415V35.4934C77.3776 35.2354 76.8825 34.5694 76.8825 33.785V31.6024C76.8825 30.8179 77.3776 30.1519 78.0714 29.8939V22.4327C78.1237 22.3699 78.1726 22.3071 78.2249 22.2409C78.5979 21.7807 79.344 22.0491 79.344 22.6419V29.8939C80.0379 30.1519 80.533 30.8179 80.533 31.6024V33.785H80.5295ZM87.7293 23.8273C87.7293 24.6118 87.2342 25.2777 86.5403 25.5357V41.4415C86.5403 41.7936 86.2544 42.076 85.9058 42.076C85.5571 42.076 85.2712 41.7901 85.2712 41.4415V25.5357C84.5774 25.2777 84.0823 24.6118 84.0823 23.8273V21.6447C84.0823 20.8602 84.5774 20.1943 85.2712 19.9363V16.0627C85.2712 15.85 85.3758 15.6548 85.5501 15.5362L85.5571 15.5292C85.9755 15.2433 86.5438 15.5467 86.5438 16.0522V19.9363C87.2377 20.1943 87.7328 20.8602 87.7328 21.6447V23.8273H87.7293ZM94.929 34.7821C94.929 35.5666 94.4339 36.2325 93.7401 36.4905V41.4415C93.7401 41.7936 93.4542 42.076 93.1056 42.076C92.7569 42.076 92.471 41.7901 92.471 41.4415V36.4905C91.7772 36.2325 91.2821 35.5666 91.2821 34.7821V32.5995C91.2821 31.815 91.7772 31.1491 92.471 30.8911V12.3669C92.471 12.1054 92.6349 11.8683 92.8789 11.7777H92.8929C93.3043 11.6208 93.7436 11.9276 93.7436 12.3669V30.8911C94.4374 31.1491 94.9325 31.815 94.9325 32.5995V34.7821H94.929ZM102.129 27.0315C102.129 27.8159 101.634 28.4819 100.94 28.7364V41.438C100.94 41.7901 100.654 42.0725 100.305 42.0725C99.9567 42.0725 99.6708 41.7866 99.6708 41.438V28.7364C98.977 28.4784 98.4819 27.8124 98.4819 27.0315V24.8489C98.4819 24.0644 98.977 23.3984 99.6708 23.1404V10.6027C99.6708 10.2889 99.9044 10.0239 100.215 9.9821H100.232C100.609 9.9298 100.943 10.2262 100.943 10.6062V23.1404C101.637 23.3984 102.132 24.0644 102.132 24.8489V27.0315H102.129ZM108.366 42.076H104.597V38.8126H108.366V42.076ZM108.366 37.2401H104.597V33.9767H108.366V37.2401ZM108.366 32.4043H104.597V29.1408H108.366V32.4043ZM108.366 27.5684H104.597V24.305H108.366V27.5684ZM108.366 22.7325H104.597V19.4691H108.366V22.7325ZM108.366 17.8966H104.597V14.6332H108.366V17.8966ZM108.366 13.0607H104.597V9.79731H108.366V13.0607ZM118.226 42.0725H110.685V38.8091H118.226V42.0725ZM118.226 37.2367H110.685V33.9732H118.226V37.2367ZM118.226 32.4008H110.685V29.1373H118.226V32.4008ZM118.226 27.5649H110.685V24.3015H118.226V27.5649ZM118.226 22.729H110.685V19.4656H118.226V22.729ZM128.086 42.0691H120.545V38.8056H128.086V42.0691ZM128.086 37.2332H120.545V33.9697H128.086V37.2332ZM128.086 32.3973H120.545V29.1339H128.086V32.3973ZM137.946 42.0691H130.405V38.8056H137.946V42.0691ZM130.405 37.2332V33.9697H137.946V37.2332H130.405Z" fill="#0F9855"/>
<path d="M67.1186 43.7078H67.1096V43.7137L67.1186 43.7078Z" fill="#2D2D2D"/>
<path d="M46.5458 66.6913V61.5172H48.561C49.0143 61.5172 49.4013 61.5869 49.7221 61.7299C50.0428 61.8728 50.2869 62.0786 50.4612 62.3505C50.632 62.6225 50.7192 62.9432 50.7192 63.3198C50.7192 63.6963 50.632 64.0171 50.4612 64.2821C50.2904 64.5505 50.0428 64.7562 49.7221 64.8992C49.4013 65.0421 49.0143 65.1119 48.561 65.1119H46.9502L47.2814 64.7702V66.6843H46.5423L46.5458 66.6913ZM47.2849 64.8539L46.9537 64.4913H48.5436C49.0178 64.4913 49.3734 64.3901 49.6175 64.1844C49.8615 63.9787 49.9835 63.6928 49.9835 63.3233C49.9835 62.9537 49.8615 62.6678 49.6175 62.4656C49.3734 62.2633 49.0143 62.1622 48.5436 62.1622H46.9537L47.2849 61.7926V64.8504V64.8539ZM50.0045 66.6948L48.69 64.819H49.4815L50.8134 66.6948H50.0079H50.0045Z" fill="#747474"/>
<path d="M53.3969 66.0463H56.4128V66.6913H52.6578V61.5172H56.3082V62.1622H53.3969V66.0498V66.0463ZM53.3307 63.7451H55.9909V64.3727H53.3307V63.7451Z" fill="#747474"/>
<path d="M60.6525 66.7505C60.2585 66.7505 59.8959 66.6843 59.5612 66.5553C59.23 66.4228 58.9406 66.238 58.6965 66.0009C58.4525 65.7638 58.2607 65.4814 58.1247 65.1606C57.9853 64.8399 57.919 64.4877 57.919 64.1042C57.919 63.7207 57.9887 63.3685 58.1247 63.0478C58.2642 62.727 58.4525 62.4481 58.7 62.2075C58.9475 61.9704 59.2369 61.7856 59.5682 61.6531C59.8994 61.5206 60.2655 61.4579 60.6595 61.4579C61.0534 61.4579 61.4265 61.5241 61.7647 61.6601C62.1029 61.7961 62.3888 61.9948 62.6259 62.2633L62.1447 62.727C61.946 62.5213 61.7264 62.3679 61.4788 62.2668C61.2313 62.1657 60.9698 62.1168 60.6873 62.1168C60.4049 62.1168 60.126 62.1657 59.8785 62.2633C59.6274 62.3609 59.4147 62.5004 59.2334 62.6782C59.0521 62.856 58.9092 63.0652 58.8081 63.3093C58.707 63.5533 58.6582 63.8183 58.6582 64.1042C58.6582 64.3901 58.7105 64.6551 58.8081 64.8991C58.9092 65.1432 59.0521 65.3524 59.2334 65.5302C59.4147 65.708 59.6309 65.8475 59.8785 65.9451C60.1295 66.0427 60.398 66.0915 60.6873 66.0915C60.9767 66.0915 61.2313 66.0392 61.4788 65.9416C61.7264 65.8405 61.946 65.6836 62.1447 65.4709L62.6259 65.9346C62.3888 66.1996 62.1029 66.4019 61.7647 66.5413C61.4265 66.6808 61.0569 66.747 60.6525 66.747V66.7505Z" fill="#747474"/>
<path d="M66.6459 66.7505C66.2519 66.7505 65.8858 66.6843 65.5476 66.5518C65.2094 66.4193 64.9165 66.2345 64.6725 65.9939C64.4249 65.7568 64.2332 65.4744 64.0972 65.1537C63.9577 64.8329 63.8915 64.4842 63.8915 64.1042C63.8915 63.7242 63.9612 63.3755 64.0972 63.0547C64.2366 62.734 64.4284 62.455 64.6725 62.2145C64.92 61.9774 65.2094 61.7891 65.5441 61.6566C65.8788 61.5241 66.2449 61.4579 66.6459 61.4579C67.0468 61.4579 67.4025 61.5241 67.7372 61.6531C68.0719 61.7821 68.3613 61.9704 68.6088 62.2075C68.8599 62.4446 69.0481 62.727 69.1841 63.0478C69.3201 63.3685 69.3863 63.7207 69.3863 64.1042C69.3863 64.4877 69.3201 64.8399 69.1841 65.1606C69.0481 65.4814 68.8564 65.7603 68.6088 66.0009C68.3578 66.238 68.0684 66.4228 67.7372 66.5553C67.4059 66.6877 67.0399 66.7505 66.6459 66.7505ZM66.6459 66.095C66.9318 66.095 67.1968 66.0462 67.4408 65.9486C67.6849 65.851 67.8976 65.7115 68.0754 65.5302C68.2567 65.3489 68.3961 65.1397 68.4972 64.8991C68.5984 64.6586 68.6472 64.3936 68.6472 64.1077C68.6472 63.8218 68.5949 63.5568 68.4972 63.3162C68.3961 63.0757 68.2567 62.863 68.0754 62.6852C67.8941 62.5039 67.6849 62.3679 67.4408 62.2668C67.1968 62.1691 66.9318 62.1203 66.6459 62.1203C66.36 62.1203 66.088 62.1691 65.844 62.2668C65.5999 62.3644 65.3872 62.5039 65.2059 62.6852C65.0246 62.8665 64.8817 63.0757 64.7806 63.3162C64.6794 63.5568 64.6306 63.8218 64.6306 64.1077C64.6306 64.3936 64.6829 64.6586 64.7806 64.8991C64.8817 65.1397 65.0246 65.3524 65.2059 65.5302C65.3872 65.7115 65.6034 65.8475 65.844 65.9486C66.088 66.0462 66.3565 66.095 66.6459 66.095Z" fill="#747474"/>
<path d="M71.2586 66.6913V61.5172H73.2739C73.7271 61.5172 74.1141 61.5869 74.4349 61.7299C74.7557 61.8728 75.0032 62.0786 75.174 62.3505C75.3449 62.6225 75.432 62.9432 75.432 63.3198C75.432 63.6963 75.3449 64.0171 75.174 64.2821C75.0032 64.5505 74.7557 64.7562 74.4349 64.8992C74.1141 65.0421 73.7271 65.1119 73.2739 65.1119H71.6631L71.9943 64.7702V66.6843H71.2551L71.2586 66.6913ZM71.9978 64.8539L71.6665 64.4913H73.2564C73.7306 64.4913 74.0862 64.3901 74.3303 64.1844C74.5744 63.9787 74.6964 63.6928 74.6964 63.3233C74.6964 62.9537 74.5744 62.6678 74.3303 62.4656C74.0862 62.2633 73.7271 62.1622 73.2564 62.1622H71.6665L71.9978 61.7926V64.8504V64.8539ZM74.7173 66.6948L73.4029 64.819H74.1943L75.5262 66.6948H74.7208H74.7173Z" fill="#747474"/>
<path d="M77.3706 66.6913V61.5172H79.5497C80.1006 61.5172 80.5887 61.6253 81.0106 61.8415C81.4325 62.0576 81.7602 62.361 81.9938 62.7515C82.2274 63.142 82.3459 63.5917 82.3459 64.1043C82.3459 64.6168 82.2274 65.0665 81.9938 65.457C81.7602 65.8475 81.4325 66.1509 81.0106 66.367C80.5887 66.5832 80.1006 66.6913 79.5497 66.6913H77.3706ZM78.1098 66.0498H79.5044C79.9332 66.0498 80.3028 65.9696 80.6166 65.8057C80.9304 65.6418 81.171 65.4152 81.3453 65.1223C81.5161 64.8295 81.6033 64.4913 81.6033 64.1077C81.6033 63.7242 81.5161 63.379 81.3453 63.0897C81.1745 62.8003 80.9304 62.5736 80.6166 62.4098C80.3028 62.2459 79.9332 62.1657 79.5044 62.1657H78.1098V66.0532V66.0498Z" fill="#747474"/>
<path d="M88.1302 66.6913L86.4008 61.5172H87.1609L88.7508 66.2903H88.3672L90.0129 61.5172H90.6928L92.3036 66.2903H91.934L93.5448 61.5172H94.2456L92.5163 66.6913H91.7388L90.2326 62.2668H90.4313L88.9146 66.6913H88.1232H88.1302Z" fill="#747474"/>
<path d="M95.8913 66.6913V61.5172H96.6304V66.6913H95.8913Z" fill="#747474"/>
<path d="M99.9462 66.6913V62.1622H98.1715V61.5172H102.45V62.1622H100.675V66.6913H99.9427H99.9462Z" fill="#747474"/>
<path d="M104.733 66.6913H103.994V61.5172H104.733V66.6913ZM107.77 64.3867H104.66V63.7416H107.77V64.3867ZM107.704 61.5207H108.443V66.6948H107.704V61.5207Z" fill="#747474"/>
<path d="M114.203 66.6913H113.464V61.5172H114.203V66.6913ZM117.24 64.3867H114.13V63.7416H117.24V64.3867ZM117.173 61.5207H117.912V66.6948H117.173V61.5207Z" fill="#747474"/>
<path d="M119.419 66.6913L121.762 61.5172H122.494L124.844 66.6913H124.066L121.974 61.9321H122.271L120.182 66.6913H119.419ZM120.416 65.3978L120.615 64.8051H123.526L123.739 65.3978H120.412H120.416Z" fill="#747474"/>
<path d="M126.35 66.6913V61.5172H128.369C128.822 61.5172 129.209 61.5869 129.53 61.7299C129.851 61.8728 130.098 62.0786 130.269 62.3505C130.44 62.6225 130.527 62.9432 130.527 63.3198C130.527 63.6963 130.44 64.0171 130.269 64.2821C130.098 64.5505 129.851 64.7562 129.53 64.9027C129.209 65.0491 128.822 65.1223 128.369 65.1223H126.758L127.093 64.7737V66.6878H126.354L126.35 66.6913ZM127.089 64.8539L126.754 64.4843H128.344C128.819 64.4843 129.178 64.3832 129.418 64.181C129.662 63.9787 129.784 63.6928 129.784 63.3233C129.784 62.9537 129.662 62.6678 129.418 62.4656C129.174 62.2633 128.815 62.1622 128.344 62.1622H126.754L127.089 61.7926V64.8504V64.8539Z" fill="#747474"/>
<path d="M132.35 66.6913V61.5172H134.369C134.822 61.5172 135.209 61.5869 135.53 61.7299C135.851 61.8728 136.095 62.0786 136.269 62.3505C136.44 62.6225 136.527 62.9432 136.527 63.3198C136.527 63.6963 136.44 64.0171 136.269 64.2821C136.095 64.5505 135.851 64.7562 135.53 64.9027C135.209 65.0491 134.822 65.1223 134.369 65.1223H132.758L133.09 64.7737V66.6878H132.35V66.6913ZM133.09 64.8539L132.758 64.4843H134.348C134.822 64.4843 135.178 64.3832 135.422 64.181C135.666 63.9787 135.788 63.6928 135.788 63.3233C135.788 62.9537 135.666 62.6678 135.422 62.4656C135.178 62.2633 134.819 62.1622 134.348 62.1622H132.758L133.09 61.7926V64.8504V64.8539Z" fill="#747474"/>
<path d="M138.351 66.6913V61.5172H139.09V66.6913H138.351Z" fill="#747474"/>
<path d="M141.381 66.6913V61.5172H141.987L145.408 65.7674H145.09V61.5172H145.83V66.6913H145.223L141.803 62.4412H142.12V66.6913H141.381Z" fill="#747474"/>
<path d="M148.859 66.0463H151.875V66.6913H148.124V61.5172H151.774V62.1622H148.863V66.0498L148.859 66.0463ZM148.793 63.7451H151.453V64.3727H148.793V63.7451Z" fill="#747474"/>
<path d="M155.316 66.7505C154.923 66.7505 154.546 66.6912 154.187 66.5692C153.828 66.4507 153.542 66.2938 153.336 66.0985L153.612 65.5232C153.807 65.6941 154.061 65.8405 154.365 65.9521C154.671 66.0637 154.989 66.1229 155.316 66.1229C155.616 66.1229 155.86 66.0881 156.049 66.0183C156.237 65.9486 156.373 65.8545 156.464 65.7324C156.554 65.6139 156.596 65.4744 156.596 65.3245C156.596 65.1467 156.537 65.0037 156.422 64.8957C156.307 64.7876 156.157 64.7004 155.972 64.6342C155.787 64.5679 155.585 64.5086 155.362 64.4598C155.139 64.411 154.916 64.3517 154.692 64.2855C154.466 64.2193 154.264 64.1356 154.079 64.031C153.894 63.9264 153.744 63.7869 153.632 63.6126C153.517 63.4383 153.465 63.2116 153.465 62.9362C153.465 62.6608 153.535 62.4237 153.674 62.2005C153.814 61.9774 154.03 61.7961 154.323 61.6601C154.616 61.5241 154.989 61.4579 155.442 61.4579C155.742 61.4579 156.042 61.4962 156.335 61.5764C156.631 61.6566 156.885 61.7682 157.105 61.9181L156.861 62.5108C156.638 62.3644 156.404 62.2563 156.16 62.1901C155.913 62.1238 155.676 62.089 155.442 62.089C155.153 62.089 154.912 62.1273 154.724 62.2005C154.535 62.2737 154.4 62.3714 154.312 62.4969C154.225 62.6189 154.183 62.7584 154.183 62.9118C154.183 63.0931 154.243 63.2395 154.358 63.3476C154.473 63.4557 154.623 63.5429 154.807 63.6056C154.992 63.6719 155.194 63.7276 155.418 63.7799C155.641 63.8322 155.864 63.888 156.087 63.9543C156.31 64.0205 156.516 64.1007 156.701 64.2053C156.885 64.3099 157.035 64.4459 157.147 64.6202C157.262 64.7911 157.318 65.0142 157.318 65.2861C157.318 65.5581 157.248 65.7882 157.105 66.0148C156.962 66.238 156.743 66.4193 156.443 66.5553C156.143 66.6912 155.766 66.7575 155.313 66.7575L155.316 66.7505Z" fill="#747474"/>
<path d="M160.647 66.7505C160.254 66.7505 159.877 66.6912 159.518 66.5692C159.159 66.4507 158.873 66.2938 158.667 66.0985L158.939 65.5232C159.134 65.6941 159.389 65.8405 159.692 65.9521C159.999 66.0637 160.316 66.1229 160.644 66.1229C160.944 66.1229 161.188 66.0881 161.376 66.0183C161.564 65.9486 161.7 65.8545 161.791 65.7324C161.882 65.6139 161.924 65.4744 161.924 65.3245C161.924 65.1467 161.864 65.0037 161.749 64.8957C161.634 64.7876 161.481 64.7004 161.296 64.6342C161.111 64.5679 160.909 64.5086 160.686 64.4598C160.463 64.411 160.243 64.3517 160.016 64.2855C159.793 64.2193 159.588 64.1356 159.403 64.031C159.218 63.9264 159.068 63.7869 158.957 63.6126C158.841 63.4383 158.786 63.2116 158.786 62.9362C158.786 62.6608 158.855 62.4237 158.995 62.2005C159.134 61.9774 159.354 61.7961 159.643 61.6601C159.936 61.5241 160.309 61.4579 160.763 61.4579C161.062 61.4579 161.362 61.4962 161.655 61.5764C161.951 61.6566 162.206 61.7682 162.426 61.9181L162.182 62.5108C161.958 62.3644 161.725 62.2563 161.481 62.1901C161.233 62.1238 160.996 62.089 160.763 62.089C160.473 62.089 160.233 62.1273 160.044 62.2005C159.856 62.2737 159.72 62.3714 159.633 62.4969C159.546 62.6189 159.504 62.7584 159.504 62.9118C159.504 63.0931 159.563 63.2395 159.678 63.3476C159.793 63.4557 159.943 63.5429 160.128 63.6056C160.313 63.6719 160.518 63.7276 160.738 63.7799C160.961 63.8322 161.181 63.888 161.404 63.9543C161.627 64.0205 161.833 64.1007 162.018 64.2053C162.203 64.3099 162.352 64.4459 162.464 64.6202C162.579 64.7911 162.631 65.0142 162.631 65.2861C162.631 65.5581 162.562 65.7882 162.419 66.0148C162.276 66.238 162.056 66.4193 161.756 66.5553C161.456 66.6912 161.08 66.7575 160.63 66.7575L160.647 66.7505Z" fill="#747474"/>
<path d="M44.0389 57.7447L48.5645 47.4941H51.42L55.9595 57.7447H52.9437L49.4013 48.9132H50.5449L47.0025 57.7447H44.0459H44.0389ZM46.5144 55.7538L47.2605 53.6166H52.2673L53.0134 55.7538H46.5109H46.5144Z" fill="#212129"/>
<path d="M61.287 57.9504C59.7738 57.9504 58.5919 57.5355 57.7446 56.7057C56.8939 55.8759 56.472 54.7009 56.472 53.1773V47.4941H59.3729V53.0866C59.3729 53.9652 59.5472 54.5963 59.8924 54.9763C60.2375 55.3564 60.7152 55.5481 61.3184 55.5481C61.9216 55.5481 62.3957 55.3564 62.7374 54.9763C63.0791 54.5963 63.25 53.9652 63.25 53.0866V47.4941H66.1055V53.1773C66.1055 54.7009 65.6801 55.8759 64.8329 56.7057C63.9821 57.5355 62.8037 57.9504 61.2905 57.9504H61.287Z" fill="#212129"/>
<path d="M68.0684 57.7447V47.4941H72.9148C74.0479 47.4941 75.0416 47.7033 75.9028 48.1252C76.7605 48.5436 77.4334 49.1363 77.9145 49.8964C78.3991 50.6565 78.6397 51.5665 78.6397 52.6194C78.6397 53.6724 78.3991 54.5684 77.9145 55.3355C77.4299 56.1025 76.7605 56.6952 75.9028 57.1136C75.0451 57.532 74.0479 57.7447 72.9148 57.7447H68.0684ZM70.9693 55.4296H72.7997C73.3855 55.4296 73.8945 55.3215 74.3303 55.1018C74.7661 54.8822 75.1043 54.5614 75.3484 54.1361C75.5925 53.7107 75.7145 53.2052 75.7145 52.6194C75.7145 52.0337 75.5925 51.5177 75.3484 51.0958C75.1043 50.6774 74.7661 50.3566 74.3303 50.137C73.8945 49.9173 73.3855 49.8057 72.7997 49.8057H70.9693V55.4296Z" fill="#212129"/>
<path d="M80.1633 57.7447V47.4941H83.0642V57.7447H80.1633Z" fill="#212129"/>
<path d="M90.2953 57.9504C89.476 57.9504 88.7194 57.8179 88.0256 57.5564C87.3317 57.2914 86.7286 56.9184 86.216 56.4372C85.7035 55.9526 85.306 55.3912 85.0236 54.7462C84.7412 54.1012 84.5983 53.3934 84.5983 52.6229C84.5983 51.8524 84.7412 51.1446 85.0236 50.4996C85.306 49.8546 85.7035 49.2932 86.216 48.8086C86.7286 48.324 87.3317 47.9509 88.0256 47.6894C88.7194 47.4244 89.476 47.2954 90.2953 47.2954C91.1147 47.2954 91.8852 47.4279 92.5721 47.6894C93.2589 47.9544 93.8586 48.3274 94.3677 48.8086C94.8767 49.2932 95.2742 49.8546 95.5601 50.4996C95.8494 51.1446 95.9924 51.8524 95.9924 52.6229C95.9924 53.3934 95.8494 54.1047 95.5601 54.7532C95.2707 55.4017 94.8732 55.9665 94.3677 56.4442C93.8586 56.9219 93.2624 57.2949 92.5721 57.5564C91.8852 57.8214 91.1251 57.9504 90.2953 57.9504ZM90.2953 55.5481C90.6858 55.5481 91.0484 55.4784 91.3866 55.3424C91.7248 55.2065 92.0177 55.0077 92.2653 54.7497C92.5128 54.4917 92.708 54.1814 92.851 53.8188C92.9939 53.4562 93.0637 53.0587 93.0637 52.6194C93.0637 52.1801 92.9939 51.7687 92.851 51.4131C92.708 51.0574 92.5128 50.7506 92.2653 50.4891C92.0177 50.2311 91.7248 50.0324 91.3866 49.8964C91.0484 49.7604 90.6858 49.6907 90.2953 49.6907C89.9048 49.6907 89.5422 49.7604 89.204 49.8964C88.8658 50.0324 88.573 50.2311 88.3254 50.4891C88.0779 50.7471 87.8826 51.0539 87.7397 51.4131C87.5967 51.7687 87.527 52.1731 87.527 52.6194C87.527 53.0657 87.5967 53.4597 87.7397 53.8188C87.8826 54.1814 88.0779 54.4917 88.3254 54.7497C88.573 55.0077 88.8658 55.2065 89.204 55.3424C89.5422 55.4784 89.9048 55.5481 90.2953 55.5481Z" fill="#212129"/>
<path d="M101.194 57.9504C100.354 57.9504 99.5452 57.8458 98.7712 57.6366C97.9937 57.4274 97.3626 57.1555 96.8745 56.8242L97.8263 54.687C98.2866 54.9798 98.8131 55.2204 99.4162 55.4122C100.016 55.6039 100.616 55.6981 101.212 55.6981C101.613 55.6981 101.934 55.6632 102.178 55.59C102.422 55.5168 102.599 55.4192 102.711 55.2971C102.823 55.1751 102.878 55.0321 102.878 54.8648C102.878 54.6312 102.77 54.4464 102.558 54.3069C102.341 54.171 102.066 54.0594 101.724 53.9687C101.383 53.8816 101.003 53.7944 100.588 53.7038C100.173 53.6166 99.7579 53.505 99.343 53.3656C98.9281 53.2296 98.5481 53.0518 98.2099 52.8321C97.8682 52.6125 97.5893 52.3231 97.3766 51.9674C97.1604 51.6118 97.0558 51.1586 97.0558 50.6112C97.0558 49.9975 97.2232 49.4397 97.5614 48.9411C97.8996 48.4425 98.4051 48.0415 99.078 47.7417C99.7509 47.4384 100.591 47.2885 101.595 47.2885C102.268 47.2885 102.931 47.3652 103.579 47.5151C104.228 47.665 104.806 47.8881 105.316 48.181L104.423 50.3322C103.935 50.0673 103.45 49.872 102.973 49.7395C102.495 49.607 102.031 49.5408 101.581 49.5408C101.18 49.5408 100.86 49.5826 100.616 49.6663C100.372 49.75 100.197 49.8581 100.089 49.9975C99.9811 50.1335 99.9287 50.2904 99.9287 50.4647C99.9287 50.6879 100.033 50.8657 100.243 50.9982C100.452 51.1307 100.731 51.2387 101.076 51.3189C101.421 51.4026 101.805 51.4863 102.219 51.5735C102.634 51.6606 103.049 51.7722 103.464 51.9047C103.879 52.0372 104.259 52.2115 104.601 52.4312C104.942 52.6508 105.218 52.9402 105.427 53.2958C105.636 53.6515 105.741 54.0977 105.741 54.6347C105.741 55.2309 105.574 55.7783 105.235 56.2803C104.901 56.7824 104.395 57.1868 103.726 57.4902C103.056 57.7935 102.216 57.9434 101.201 57.9434L101.194 57.9504Z" fill="#212129"/>
<path d="M109.102 57.7447V49.7918H105.954V47.4941H115.134V49.7918H111.999V57.7447H109.098H109.102Z" fill="#212129"/>
<path d="M120.789 57.9504C119.276 57.9504 118.094 57.5355 117.247 56.7057C116.396 55.8759 115.974 54.7009 115.974 53.1773V47.4941H118.875V53.0866C118.875 53.9652 119.049 54.5963 119.394 54.9763C119.74 55.3564 120.217 55.5481 120.82 55.5481C121.424 55.5481 121.898 55.3564 122.239 54.9763C122.581 54.5963 122.752 53.9652 122.752 53.0866V47.4941H125.607V53.1773C125.607 54.7009 125.182 55.8759 124.335 56.7057C123.484 57.5355 122.306 57.9504 120.792 57.9504H120.789Z" fill="#212129"/>
<path d="M127.567 57.7447V47.4941H132.413C133.546 47.4941 134.54 47.7033 135.401 48.1252C136.259 48.5436 136.932 49.1363 137.413 49.8964C137.898 50.6565 138.138 51.5665 138.138 52.6194C138.138 53.6724 137.898 54.5684 137.413 55.3355C136.928 56.1025 136.259 56.6952 135.401 57.1136C134.544 57.532 133.546 57.7447 132.413 57.7447H127.567ZM130.468 55.4296H132.298C132.884 55.4296 133.393 55.3215 133.829 55.1018C134.265 54.8822 134.603 54.5614 134.847 54.1361C135.091 53.7107 135.213 53.2052 135.213 52.6194C135.213 52.0337 135.091 51.5177 134.847 51.0958C134.603 50.6774 134.265 50.3566 133.829 50.137C133.393 49.9173 132.884 49.8057 132.298 49.8057H130.468V55.4296Z" fill="#212129"/>
<path d="M139.665 57.7447V47.4941H142.566V57.7447H139.665Z" fill="#212129"/>
<path d="M149.797 57.9504C148.978 57.9504 148.221 57.8179 147.528 57.5564C146.834 57.2949 146.231 56.9184 145.718 56.4372C145.205 55.9526 144.808 55.3912 144.526 54.7462C144.243 54.1012 144.1 53.3934 144.1 52.6229C144.1 51.8524 144.243 51.1446 144.526 50.4996C144.808 49.8546 145.205 49.2932 145.718 48.8086C146.231 48.324 146.834 47.9509 147.528 47.6894C148.221 47.4279 148.978 47.2954 149.797 47.2954C150.617 47.2954 151.387 47.4279 152.074 47.6894C152.761 47.9544 153.361 48.3274 153.87 48.8086C154.379 49.2932 154.776 49.8546 155.062 50.4996C155.351 51.1446 155.494 51.8524 155.494 52.6229C155.494 53.3934 155.351 54.1047 155.062 54.7532C154.773 55.4017 154.375 55.9665 153.87 56.4442C153.361 56.9219 152.764 57.2949 152.074 57.5564C151.387 57.8214 150.627 57.9504 149.797 57.9504ZM149.797 55.5481C150.188 55.5481 150.55 55.4784 150.889 55.3424C151.227 55.2065 151.52 55.0077 151.767 54.7497C152.015 54.4917 152.21 54.1814 152.353 53.8188C152.496 53.4562 152.566 53.0587 152.566 52.6194C152.566 52.1801 152.496 51.7687 152.353 51.4131C152.21 51.0574 152.015 50.7506 151.767 50.4891C151.52 50.2311 151.227 50.0324 150.889 49.8964C150.55 49.7604 150.188 49.6907 149.797 49.6907C149.407 49.6907 149.044 49.7604 148.706 49.8964C148.368 50.0324 148.075 50.2311 147.827 50.4891C147.58 50.7471 147.385 51.0539 147.242 51.4131C147.099 51.7687 147.029 52.1731 147.029 52.6194C147.029 53.0657 147.099 53.4597 147.242 53.8188C147.385 54.1814 147.58 54.4917 147.827 54.7497C148.075 55.0077 148.368 55.2065 148.706 55.3424C149.044 55.4784 149.407 55.5481 149.797 55.5481Z" fill="#212129"/>
<path d="M160.62 57.9504C159.779 57.9504 158.97 57.8458 158.196 57.6366C157.419 57.4274 156.788 57.1555 156.3 56.8242L157.252 54.687C157.712 54.9798 158.238 55.2204 158.841 55.4122C159.441 55.6039 160.041 55.6981 160.637 55.6981C161.038 55.6981 161.359 55.6632 161.603 55.59C161.847 55.5168 162.025 55.4192 162.136 55.2971C162.248 55.1751 162.304 55.0321 162.304 54.8648C162.304 54.6312 162.196 54.4464 161.983 54.3069C161.767 54.171 161.491 54.0594 161.15 53.9687C160.808 53.8816 160.428 53.7944 160.016 53.7038C159.602 53.6166 159.187 53.505 158.772 53.3656C158.357 53.2296 157.977 53.0518 157.639 52.8321C157.297 52.6125 157.018 52.3231 156.805 51.9674C156.589 51.6118 156.485 51.1586 156.485 50.6112C156.485 49.9975 156.652 49.4397 156.99 48.9411C157.328 48.4425 157.834 48.0415 158.507 47.7417C159.18 47.4384 160.02 47.2885 161.024 47.2885C161.697 47.2885 162.359 47.3652 163.008 47.5151C163.656 47.665 164.235 47.8881 164.744 48.181L163.852 50.3322C163.364 50.0673 162.879 49.872 162.401 49.7395C161.924 49.607 161.46 49.5408 161.01 49.5408C160.609 49.5408 160.288 49.5826 160.044 49.6663C159.8 49.75 159.626 49.8581 159.518 49.9975C159.41 50.1335 159.357 50.2904 159.357 50.4647C159.357 50.6879 159.462 50.8657 159.671 50.9982C159.88 51.1307 160.159 51.2387 160.505 51.3189C160.85 51.4026 161.233 51.4863 161.648 51.5735C162.063 51.6606 162.478 51.7722 162.893 51.9047C163.308 52.0372 163.684 52.2115 164.026 52.4312C164.368 52.6508 164.643 52.9402 164.852 53.2958C165.062 53.6515 165.166 54.0977 165.166 54.6347C165.166 55.2309 164.999 55.7783 164.661 56.2803C164.322 56.7824 163.82 57.1868 163.151 57.4902C162.481 57.7935 161.641 57.9434 160.627 57.9434L160.62 57.9504Z" fill="#212129"/>
</g>
<defs>
<clipPath id="clip0_1100_7068">
<rect width="210" height="72.085" fill="white"/>
</clipPath>
</defs>
</svg>
