<svg width="210" height="73" viewBox="0 0 210 73" fill="none" xmlns="http://www.w3.org/2000/svg">
<g clip-path="url(#clip0_1274_8833)">
<path d="M193.442 42.1785L190.139 52.773L185.462 22.4595C185.252 21.1102 184.154 20.1232 182.789 20.0602C181.419 20.0025 180.243 20.8792 179.912 22.2075L172.583 51.744L169.754 33.222C169.565 31.9725 168.599 31.0222 167.344 30.8437C166.094 30.6705 164.903 31.3215 164.378 32.4712L159.931 42.1785H148.187C147.394 18.837 128.195 0.08925 104.68 0C104.654 0 104.627 0 104.601 0H104.522C81.0075 0.08925 61.8083 18.837 60.9998 42.1837H49.2555L44.8088 32.4765C44.2838 31.332 43.092 30.6757 41.8425 30.849C40.593 31.0222 39.627 31.9777 39.4328 33.2272L36.603 51.7492L29.274 22.2127C28.9433 20.8897 27.7673 20.0077 26.397 20.0655C25.032 20.1285 23.9348 21.1155 23.7248 22.4648L19.0523 52.7782L15.75 42.1837H0V45.2392H13.503L16.422 54.6052C16.8 55.818 17.8658 56.595 19.11 56.595C19.1835 56.595 19.2623 56.595 19.3358 56.5845C20.6798 56.4847 21.7192 55.524 21.924 54.1905L26.5755 24.0187L33.9045 53.5605C34.23 54.8835 35.4113 55.7655 36.7763 55.7077C38.1465 55.65 39.2595 54.579 39.4695 53.2245L42.3413 34.4242L47.292 45.234H63.9555L64.0553 45.087V42.1785C64.8585 20.496 82.7348 3.09225 104.601 3.05025C126.467 3.09225 144.344 20.4907 145.147 42.1785V45.087L145.247 45.234H161.91L166.861 34.4242L169.732 53.2245C169.937 54.579 171.05 55.65 172.421 55.7077C173.786 55.7655 174.962 54.8835 175.292 53.5605L182.621 24.0187L187.273 54.1905C187.478 55.524 188.517 56.4847 189.861 56.5845C189.94 56.5897 190.013 56.595 190.087 56.595C191.336 56.595 192.397 55.818 192.775 54.6052L195.694 45.2392H209.202V42.1837H193.447L193.442 42.1785Z" fill="white"/>
<path d="M104.596 5.49677C83.7796 5.49677 66.8536 22.1393 66.3916 42.8453H142.795C142.333 22.1393 125.407 5.49677 104.591 5.49677H104.596ZM80.5246 33.789C80.5246 34.5713 80.0311 35.238 79.3381 35.4953V41.4435C79.3381 41.7953 79.0546 42.0788 78.7029 42.0788C78.3511 42.0788 78.0676 41.7953 78.0676 41.4435V35.4953C77.3746 35.238 76.8811 34.5713 76.8811 33.789V31.605C76.8811 30.8228 77.3746 30.156 78.0676 29.8988V22.4385C78.1201 22.3755 78.1726 22.3125 78.2199 22.2495C78.5926 21.7875 79.3381 22.0553 79.3381 22.6485V29.8988C80.0311 30.156 80.5246 30.8228 80.5246 31.605V33.789ZM87.7276 23.8298C87.7276 24.612 87.2341 25.2788 86.5411 25.536V41.4435C86.5411 41.7953 86.2576 42.0788 85.9059 42.0788C85.5541 42.0788 85.2706 41.7953 85.2706 41.4435V25.536C84.5776 25.2788 84.0841 24.612 84.0841 23.8298V21.6458C84.0841 20.8635 84.5776 20.1968 85.2706 19.9395V16.065C85.2706 15.855 85.3756 15.6555 85.5489 15.54H85.5594C85.9794 15.2513 86.5464 15.5505 86.5464 16.0598V19.9448C87.2394 20.202 87.7329 20.8688 87.7329 21.651V23.835L87.7276 23.8298ZM94.9306 34.7865C94.9306 35.5688 94.4371 36.2355 93.7441 36.4928V41.4435C93.7441 41.7953 93.4606 42.0788 93.1089 42.0788C92.7571 42.0788 92.4736 41.7953 92.4736 41.4435V36.4928C91.7806 36.2355 91.2871 35.5688 91.2871 34.7865V32.6025C91.2871 31.8203 91.7806 31.1535 92.4736 30.8963V12.3638C92.4736 12.1013 92.6364 11.865 92.8831 11.7758H92.8936C93.3031 11.6183 93.7441 11.9228 93.7441 12.3638V30.891C94.4371 31.1483 94.9306 31.815 94.9306 32.5973V34.7813V34.7865ZM102.134 27.0375C102.134 27.8198 101.64 28.4865 100.947 28.7438V41.4435C100.947 41.7953 100.664 42.0788 100.312 42.0788C99.9601 42.0788 99.6766 41.7953 99.6766 41.4435V28.7438C98.9836 28.4865 98.4901 27.8198 98.4901 27.0375V24.8535C98.4901 24.0713 98.9836 23.4045 99.6766 23.1473V10.605C99.6766 10.29 99.9076 10.0275 100.223 9.98552H100.238C100.616 9.93301 100.947 10.227 100.947 10.6103V23.1473C101.64 23.4045 102.134 24.0713 102.134 24.8535V27.0375ZM108.371 42.084H104.601V38.8185H108.371V42.084ZM108.371 37.2488H104.601V33.9833H108.371V37.2488ZM108.371 32.4135H104.601V29.148H108.371V32.4135ZM108.371 27.5783H104.601V24.3128H108.371V27.5783ZM108.371 22.743H104.601V19.4775H108.371V22.743ZM108.371 17.9078H104.601V14.6423H108.371V17.9078ZM108.371 13.0725H104.601V9.80701H108.371V13.0725ZM118.23 42.084H110.691V38.8185H118.23V42.084ZM118.23 37.2488H110.691V33.9833H118.23V37.2488ZM118.23 32.4135H110.691V29.148H118.23V32.4135ZM118.23 27.5783H110.691V24.3128H118.23V27.5783ZM118.23 22.743H110.691V19.4775H118.23V22.743ZM128.09 42.084H120.551V38.8185H128.09V42.084ZM128.09 37.2488H120.551V33.9833H128.09V37.2488ZM128.09 32.4135H120.551V29.148H128.09V32.4135ZM137.949 42.084H130.41V38.8185H137.949V42.084ZM130.41 37.2488V33.9833H137.949V37.2488H130.41Z" fill="#30CEC0"/>
<path d="M46.5463 66.6907V61.5195H48.5623C49.0138 61.5195 49.4023 61.5877 49.7225 61.7347C50.0428 61.8765 50.2895 62.0865 50.4628 62.3542C50.636 62.6272 50.72 62.9475 50.72 63.3202C50.72 63.693 50.636 64.0185 50.4628 64.2862C50.2895 64.554 50.0428 64.7587 49.7225 64.9057C49.4023 65.0475 49.0138 65.121 48.5623 65.121H46.9505L47.2813 64.7797V66.696H46.541L46.5463 66.6907ZM47.2865 64.8532L46.9558 64.491H48.5465C49.019 64.491 49.376 64.3912 49.6228 64.1865C49.8643 63.9817 49.9903 63.693 49.9903 63.3255C49.9903 62.958 49.8695 62.6692 49.6228 62.4697C49.3813 62.2702 49.019 62.1652 48.5465 62.1652H46.9558L47.2865 61.7977V64.8585V64.8532ZM50.006 66.6907L48.6935 64.8165H49.4863L50.8145 66.6907H50.006Z" fill="#30CEC0"/>
<path d="M53.3975 66.045H56.411V66.6907H52.6572V61.5195H56.306V62.1652H53.3922V66.0502L53.3975 66.045ZM53.3292 63.7455H55.991V64.3755H53.3292V63.7455Z" fill="#30CEC0"/>
<path d="M60.6532 66.7485C60.2595 66.7485 59.8972 66.6855 59.5612 66.5542C59.2305 66.423 58.9417 66.2392 58.695 65.9977C58.4535 65.7615 58.2592 65.478 58.1227 65.1577C57.9862 64.8375 57.918 64.4857 57.918 64.1025C57.918 63.7192 57.9862 63.3675 58.1227 63.0472C58.2592 62.727 58.4535 62.4487 58.7002 62.2072C58.947 61.971 59.2357 61.782 59.5665 61.6507C59.8972 61.5195 60.2647 61.4565 60.6585 61.4565C61.0522 61.4565 61.425 61.5247 61.7662 61.6612C62.1022 61.7977 62.391 61.9972 62.6272 62.265L62.1495 62.7322C61.95 62.5275 61.7295 62.37 61.4827 62.2702C61.236 62.1705 60.9735 62.118 60.69 62.118C60.4065 62.118 60.1282 62.1652 59.8815 62.265C59.6295 62.3647 59.4142 62.5012 59.2357 62.6797C59.052 62.8582 58.9102 63.0682 58.8105 63.3097C58.7107 63.5512 58.6582 63.819 58.6582 64.1025C58.6582 64.386 58.7107 64.6537 58.8105 64.8952C58.9102 65.1367 59.052 65.352 59.2357 65.5252C59.4195 65.7037 59.6347 65.8402 59.8815 65.94C60.1282 66.0397 60.4012 66.087 60.69 66.087C60.9787 66.087 61.236 66.0345 61.4827 65.9347C61.7295 65.835 61.95 65.6775 62.1495 65.4675L62.6272 65.9347C62.391 66.2025 62.1022 66.402 61.7662 66.5437C61.4302 66.6802 61.0575 66.7485 60.6532 66.7485Z" fill="#30CEC0"/>
<path d="M66.6488 66.7485C66.2551 66.7485 65.8876 66.6802 65.5516 66.549C65.2156 66.4177 64.9216 66.2287 64.6748 65.9925C64.4281 65.7562 64.2338 65.4727 64.0973 65.1525C63.9608 64.8322 63.8926 64.4805 63.8926 64.1025C63.8926 63.7245 63.9608 63.3727 64.0973 63.0525C64.2338 62.7322 64.4281 62.454 64.6748 62.2125C64.9216 61.9762 65.2103 61.7872 65.5463 61.656C65.8823 61.5247 66.2498 61.4565 66.6488 61.4565C67.0478 61.4565 67.4048 61.5195 67.7408 61.6507C68.0768 61.782 68.3656 61.9657 68.6123 62.2072C68.8591 62.4435 69.0533 62.727 69.1898 63.0472C69.3263 63.3675 69.3946 63.7192 69.3946 64.1025C69.3946 64.4857 69.3263 64.8375 69.1898 65.1577C69.0533 65.478 68.8643 65.7562 68.6123 65.9977C68.3603 66.234 68.0716 66.423 67.7408 66.5542C67.4101 66.6855 67.0426 66.7485 66.6488 66.7485ZM66.6488 66.0922C66.9376 66.0922 67.2001 66.045 67.4416 65.9452C67.6831 65.8455 67.8983 65.709 68.0768 65.5305C68.2553 65.352 68.3971 65.142 68.4968 64.9005C68.5966 64.659 68.6491 64.3965 68.6491 64.1077C68.6491 63.819 68.5966 63.5565 68.4968 63.315C68.3971 63.0735 68.2553 62.8635 68.0768 62.685C67.8983 62.5065 67.6883 62.3647 67.4416 62.2702C67.2001 62.1705 66.9323 62.1232 66.6488 62.1232C66.3653 62.1232 66.0923 62.1705 65.8456 62.2702C65.6041 62.37 65.3888 62.5065 65.2051 62.685C65.0213 62.8635 64.8796 63.0735 64.7798 63.315C64.6801 63.5565 64.6276 63.819 64.6276 64.1077C64.6276 64.3965 64.6801 64.659 64.7798 64.9005C64.8796 65.142 65.0213 65.352 65.2051 65.5305C65.3888 65.709 65.5988 65.8507 65.8456 65.9452C66.0871 66.045 66.3548 66.0922 66.6488 66.0922Z" fill="#30CEC0"/>
<path d="M71.2582 66.6907V61.5195H73.2742C73.7257 61.5195 74.1142 61.5877 74.4344 61.7347C74.7547 61.8765 75.0014 62.0865 75.1747 62.3542C75.3479 62.6272 75.4319 62.9475 75.4319 63.3202C75.4319 63.693 75.3479 64.0185 75.1747 64.2862C75.0014 64.554 74.7547 64.7587 74.4344 64.9057C74.1142 65.0475 73.7257 65.121 73.2742 65.121H71.6624L71.9932 64.7797V66.696H71.2529L71.2582 66.6907ZM71.9984 64.8532L71.6677 64.491H73.2584C73.7309 64.491 74.0879 64.3912 74.3347 64.1865C74.5762 63.9817 74.7022 63.693 74.7022 63.3255C74.7022 62.958 74.5814 62.6692 74.3347 62.4697C74.0932 62.2702 73.7309 62.1652 73.2584 62.1652H71.6677L71.9984 61.7977V64.8585V64.8532ZM74.7179 66.6907L73.4054 64.8165H74.1982L75.5264 66.6907H74.7179Z" fill="#30CEC0"/>
<path d="M77.3691 66.6907V61.5195H79.5479C80.0991 61.5195 80.5874 61.6297 81.0074 61.845C81.4274 62.0602 81.7581 62.3647 81.9891 62.7532C82.2254 63.1417 82.3409 63.5932 82.3409 64.1025C82.3409 64.6117 82.2254 65.0685 81.9891 65.4517C81.7529 65.8402 81.4274 66.1447 81.0074 66.36C80.5874 66.5752 80.0991 66.6855 79.5479 66.6855H77.3691V66.6907ZM78.1094 66.0502H79.5059C79.9364 66.0502 80.3039 65.9662 80.6189 65.8087C80.9339 65.646 81.1754 65.4202 81.3486 65.1262C81.5219 64.8322 81.6059 64.4962 81.6059 64.1077C81.6059 63.7192 81.5219 63.378 81.3486 63.0892C81.1754 62.8005 80.9339 62.5695 80.6189 62.4067C80.3039 62.244 79.9364 62.1652 79.5059 62.1652H78.1094V66.0502Z" fill="#30CEC0"/>
<path d="M88.1315 66.6907L86.4043 61.5195H87.1655L88.7563 66.2917H88.373L90.0215 61.5195H90.704L92.3158 66.2917H91.9483L93.56 61.5195H94.2635L92.5363 66.6907H91.7593L90.2525 62.265H90.452L88.9348 66.6907H88.1473H88.1315Z" fill="#30CEC0"/>
<path d="M95.8906 66.6907V61.5195H96.6309V66.6907H95.8906Z" fill="#30CEC0"/>
<path d="M99.9444 66.6907V62.16H98.1699V61.5142H102.449V62.16H100.674V66.6907H99.9444Z" fill="#30CEC0"/>
<path d="M104.732 66.6907H103.992V61.5195H104.732V66.6907ZM107.772 64.386H104.659V63.7402H107.772V64.386ZM107.704 61.5195H108.444V66.6907H107.704V61.5195Z" fill="#30CEC0"/>
<path d="M114.203 66.6907H113.463V61.5195H114.203V66.6907ZM117.243 64.386H114.13V63.7402H117.243V64.386ZM117.175 61.5195H117.915V66.6907H117.175V61.5195Z" fill="#30CEC0"/>
<path d="M119.416 66.6907L121.758 61.5195H122.487L124.839 66.6907H124.062L121.973 61.9342H122.267L120.177 66.6907H119.416ZM120.414 65.3992L120.613 64.806H123.527L123.742 65.3992H120.419H120.414Z" fill="#30CEC0"/>
<path d="M126.352 66.6907V61.5195H128.368C128.819 61.5195 129.208 61.5877 129.528 61.7347C129.848 61.8765 130.095 62.0865 130.268 62.3542C130.442 62.6272 130.526 62.9475 130.526 63.3202C130.526 63.693 130.436 64.0185 130.268 64.2862C130.095 64.554 129.848 64.764 129.528 64.9057C129.208 65.0527 128.819 65.1262 128.368 65.1262H126.756L127.087 64.7797V66.696H126.347L126.352 66.6907ZM127.092 64.8532L126.761 64.4857H128.352C128.825 64.4857 129.182 64.386 129.428 64.1812C129.67 63.9817 129.796 63.693 129.796 63.3255C129.796 62.958 129.675 62.6692 129.428 62.4697C129.187 62.2702 128.825 62.1652 128.352 62.1652H126.761L127.092 61.7977V64.8585V64.8532Z" fill="#30CEC0"/>
<path d="M132.352 66.6907V61.5195H134.368C134.819 61.5195 135.208 61.5877 135.528 61.7347C135.848 61.8765 136.095 62.0865 136.268 62.3542C136.442 62.6272 136.526 62.9475 136.526 63.3202C136.526 63.693 136.436 64.0185 136.268 64.2862C136.095 64.554 135.848 64.764 135.528 64.9057C135.208 65.0527 134.819 65.1262 134.368 65.1262H132.756L133.087 64.7797V66.696H132.347L132.352 66.6907ZM133.092 64.8532L132.761 64.4857H134.352C134.825 64.4857 135.182 64.386 135.428 64.1812C135.67 63.9817 135.796 63.693 135.796 63.3255C135.796 62.958 135.675 62.6692 135.428 62.4697C135.187 62.2702 134.825 62.1652 134.352 62.1652H132.761L133.092 61.7977V64.8585V64.8532Z" fill="#30CEC0"/>
<path d="M138.348 66.6907V61.5195H139.088V66.6907H138.348Z" fill="#30CEC0"/>
<path d="M141.382 66.6907V61.5195H141.991L145.414 65.7667H145.099V61.5195H145.839V66.6907H145.23L141.812 62.4435H142.127V66.6907H141.387H141.382Z" fill="#30CEC0"/>
<path d="M148.858 66.045H151.872V66.6907H148.118V61.5195H151.767V62.1652H148.853V66.0502L148.858 66.045ZM148.795 63.7455H151.457V64.3755H148.795V63.7455Z" fill="#30CEC0"/>
<path d="M155.316 66.7485C154.922 66.7485 154.544 66.6907 154.187 66.5647C153.825 66.444 153.542 66.2865 153.337 66.0975L153.61 65.52C153.804 65.6932 154.056 65.835 154.366 65.9505C154.67 66.0607 154.991 66.1185 155.321 66.1185C155.621 66.1185 155.867 66.087 156.051 66.0135C156.24 65.9452 156.377 65.8507 156.466 65.73C156.555 65.6092 156.597 65.4727 156.597 65.3205C156.597 65.142 156.539 65.0002 156.424 64.89C156.308 64.7797 156.156 64.6957 155.972 64.6275C155.789 64.5592 155.584 64.5015 155.363 64.4542C155.143 64.407 154.917 64.344 154.697 64.281C154.471 64.2127 154.266 64.1287 154.082 64.0237C153.899 63.9187 153.746 63.7822 153.636 63.609C153.521 63.4357 153.468 63.21 153.468 62.9317C153.468 62.6535 153.536 62.4225 153.678 62.1967C153.82 61.971 154.035 61.7925 154.329 61.656C154.623 61.5195 154.996 61.4512 155.447 61.4512C155.747 61.4512 156.046 61.4932 156.34 61.572C156.634 61.6507 156.891 61.7662 157.106 61.9132L156.865 62.5065C156.644 62.3595 156.408 62.2492 156.161 62.1862C155.915 62.118 155.678 62.0865 155.442 62.0865C155.153 62.0865 154.912 62.1232 154.723 62.1967C154.534 62.2702 154.397 62.37 154.313 62.4907C154.229 62.6115 154.182 62.7532 154.182 62.9055C154.182 63.0892 154.24 63.231 154.355 63.3412C154.471 63.4515 154.623 63.5355 154.807 63.5985C154.991 63.6615 155.195 63.7192 155.416 63.7717C155.636 63.8242 155.862 63.882 156.083 63.945C156.303 64.008 156.513 64.092 156.697 64.197C156.881 64.302 157.033 64.4385 157.143 64.6117C157.259 64.785 157.311 65.0055 157.311 65.2785C157.311 65.5515 157.243 65.7825 157.096 66.0082C156.954 66.234 156.734 66.4125 156.434 66.549C156.135 66.6855 155.757 66.7537 155.306 66.7537L155.316 66.7485Z" fill="#30CEC0"/>
<path d="M160.644 66.7485C160.251 66.7485 159.873 66.6907 159.516 66.5647C159.153 66.444 158.87 66.2865 158.665 66.0975L158.938 65.52C159.138 65.6932 159.384 65.835 159.694 65.9505C159.999 66.0607 160.319 66.1185 160.65 66.1185C160.949 66.1185 161.196 66.087 161.379 66.0135C161.568 65.9452 161.705 65.8507 161.794 65.73C161.883 65.6092 161.925 65.4727 161.925 65.3205C161.925 65.142 161.868 65.0002 161.752 64.89C161.637 64.7797 161.484 64.6957 161.301 64.6275C161.117 64.5592 160.912 64.5015 160.692 64.4542C160.471 64.407 160.245 64.344 160.025 64.281C159.799 64.2127 159.6 64.1287 159.411 64.0237C159.227 63.9187 159.08 63.7822 158.964 63.609C158.849 63.4357 158.796 63.21 158.796 62.9317C158.796 62.6535 158.865 62.4225 159.006 62.1967C159.148 61.971 159.363 61.7925 159.657 61.656C159.951 61.5195 160.324 61.4512 160.776 61.4512C161.075 61.4512 161.374 61.4932 161.668 61.572C161.962 61.6507 162.219 61.7662 162.435 61.9132L162.193 62.5065C161.973 62.3595 161.736 62.2492 161.49 62.1862C161.243 62.118 161.007 62.0865 160.77 62.0865C160.482 62.0865 160.24 62.1232 160.051 62.1967C159.862 62.2702 159.726 62.37 159.642 62.4907C159.552 62.6115 159.51 62.7532 159.51 62.9055C159.51 63.0892 159.568 63.231 159.684 63.3412C159.799 63.4515 159.951 63.5355 160.135 63.5985C160.319 63.6615 160.524 63.7192 160.744 63.7717C160.965 63.8242 161.19 63.882 161.411 63.945C161.637 64.008 161.841 64.092 162.025 64.197C162.209 64.302 162.361 64.4385 162.471 64.6117C162.587 64.785 162.639 65.0055 162.639 65.2785C162.639 65.5515 162.571 65.7825 162.424 66.0082C162.282 66.234 162.062 66.4125 161.763 66.549C161.463 66.6855 161.085 66.7537 160.634 66.7537L160.644 66.7485Z" fill="#30CEC0"/>
<path d="M44.0371 57.7447L48.5626 47.4967H51.4186L55.9599 57.7447H52.9411L49.3974 48.9142H50.5419L46.9981 57.7447H44.0424H44.0371ZM46.5099 55.755L47.2554 53.6182H52.2639L53.0094 55.755H46.5099Z" fill="white"/>
<path d="M61.2882 57.9495C59.7762 57.9495 58.595 57.5347 57.7445 56.7052C56.894 55.8757 56.4688 54.6997 56.4688 53.1772V47.4967H59.3668V53.088C59.3668 53.9647 59.54 54.5947 59.8865 54.978C60.233 55.3612 60.7108 55.5502 61.3145 55.5502C61.9183 55.5502 62.3908 55.3612 62.7373 54.978C63.0785 54.5947 63.2518 53.97 63.2518 53.088V47.4967H66.1077V53.1772C66.1077 54.6997 65.6825 55.8757 64.832 56.7052C63.9815 57.5347 62.8003 57.9495 61.2882 57.9495Z" fill="white"/>
<path d="M68.0664 57.7447V47.4967H72.9122C74.0462 47.4967 75.0384 47.7067 75.8994 48.1267C76.7604 48.5467 77.4272 49.1347 77.9154 49.9012C78.3984 50.6625 78.6399 51.5707 78.6399 52.626C78.6399 53.6812 78.3984 54.5737 77.9154 55.3402C77.4324 56.1067 76.7604 56.7 75.8994 57.12C75.0384 57.54 74.0462 57.75 72.9122 57.75H68.0664V57.7447ZM70.9644 55.4295H72.7967C73.3847 55.4295 73.8939 55.3192 74.3244 55.0987C74.7602 54.8782 75.0962 54.558 75.3429 54.1327C75.5844 53.7075 75.7104 53.2035 75.7104 52.6155C75.7104 52.0275 75.5897 51.513 75.3429 51.093C75.0962 50.673 74.7602 50.3527 74.3244 50.1322C73.8887 49.9117 73.3794 49.8015 72.7967 49.8015H70.9644V55.4242V55.4295Z" fill="white"/>
<path d="M80.1621 57.7447V47.4967H83.0601V57.7447H80.1621Z" fill="white"/>
<path d="M90.2945 57.9495C89.4755 57.9495 88.7195 57.8182 88.0265 57.5557C87.3335 57.2932 86.7298 56.9205 86.2205 56.4375C85.706 55.9545 85.3123 55.3927 85.0288 54.747C84.7453 54.1012 84.6035 53.3925 84.6035 52.626C84.6035 51.8595 84.7453 51.1455 85.0288 50.505C85.3123 49.8592 85.7113 49.2975 86.2205 48.8145C86.735 48.3315 87.3335 47.9587 88.0265 47.6962C88.7195 47.4337 89.4755 47.3025 90.2945 47.3025C91.1135 47.3025 91.8853 47.4337 92.573 47.6962C93.2608 47.9587 93.8593 48.3315 94.3685 48.8145C94.8778 49.2975 95.2715 49.8592 95.5603 50.505C95.849 51.1507 95.9908 51.8595 95.9908 52.626C95.9908 53.3925 95.849 54.1065 95.5603 54.7575C95.2715 55.4085 94.8725 55.9702 94.3685 56.448C93.8593 56.9257 93.2608 57.2985 92.573 57.561C91.8853 57.8235 91.124 57.9547 90.2945 57.9547V57.9495ZM90.2945 55.5502C90.683 55.5502 91.0505 55.482 91.3865 55.3455C91.7225 55.209 92.0165 55.0095 92.2633 54.7522C92.51 54.495 92.7095 54.1852 92.8513 53.823C92.993 53.4607 93.0613 53.0617 93.0613 52.6207C93.0613 52.1797 92.9878 51.7702 92.8513 51.4132C92.7095 51.0562 92.5153 50.7517 92.2633 50.4892C92.0165 50.232 91.7225 50.0325 91.3865 49.896C91.0505 49.7595 90.6883 49.6912 90.2945 49.6912C89.9008 49.6912 89.5385 49.7595 89.2025 49.896C88.8665 50.0325 88.5725 50.232 88.3258 50.4892C88.079 50.7465 87.8795 51.0562 87.7378 51.4132C87.596 51.7702 87.5278 52.1745 87.5278 52.6207C87.5278 53.067 87.596 53.4607 87.7378 53.823C87.8795 54.1852 88.0738 54.495 88.3258 54.7522C88.5725 55.0095 88.8665 55.209 89.2025 55.3455C89.5385 55.482 89.9008 55.5502 90.2945 55.5502Z" fill="white"/>
<path d="M101.194 57.9495C100.354 57.9495 99.5453 57.8445 98.7683 57.6345C97.9913 57.4245 97.3613 57.1515 96.873 56.8207L97.8233 54.684C98.28 54.978 98.8103 55.2195 99.414 55.4085C100.013 55.5975 100.611 55.692 101.21 55.692C101.609 55.692 101.934 55.6552 102.176 55.5817C102.417 55.5082 102.596 55.4085 102.711 55.2877C102.821 55.167 102.879 55.02 102.879 54.8572C102.879 54.621 102.774 54.4372 102.559 54.3007C102.344 54.1642 102.065 54.054 101.724 53.9647C101.383 53.8755 101.005 53.7915 100.59 53.7022C100.175 53.613 99.7605 53.5027 99.3458 53.3662C98.931 53.2297 98.553 53.0512 98.2118 52.8307C97.8705 52.6102 97.5923 52.3215 97.377 51.9645C97.1618 51.6075 97.0568 51.156 97.0568 50.61C97.0568 49.9957 97.2248 49.4392 97.5608 48.9405C97.8968 48.4417 98.4008 48.0427 99.078 47.7382C99.75 47.4337 100.59 47.2867 101.598 47.2867C102.27 47.2867 102.932 47.3602 103.583 47.5125C104.234 47.6647 104.811 47.8852 105.32 48.1792L104.428 50.3317C103.94 50.0692 103.457 49.8697 102.979 49.7385C102.501 49.6072 102.039 49.539 101.588 49.539C101.189 49.539 100.863 49.581 100.622 49.665C100.375 49.749 100.202 49.8592 100.097 49.9957C99.9915 50.1322 99.9338 50.2897 99.9338 50.463C99.9338 50.6887 100.039 50.8672 100.249 50.9985C100.459 51.1297 100.737 51.24 101.084 51.3187C101.43 51.4027 101.808 51.4867 102.228 51.576C102.643 51.6652 103.058 51.7755 103.472 51.9067C103.887 52.038 104.265 52.2165 104.606 52.4317C104.948 52.647 105.226 52.941 105.436 53.298C105.646 53.655 105.751 54.1012 105.751 54.6367C105.751 55.23 105.583 55.7812 105.247 56.2852C104.911 56.7892 104.407 57.1935 103.74 57.4927C103.073 57.7972 102.228 57.9442 101.215 57.9442L101.194 57.9495Z" fill="white"/>
<path d="M109.1 57.7447V49.791H105.95V47.4915H115.132V49.791H111.998V57.7447H109.1Z" fill="white"/>
<path d="M120.787 57.9495C119.275 57.9495 118.094 57.5347 117.244 56.7052C116.393 55.8757 115.968 54.6997 115.968 53.1772V47.4967H118.866V53.088C118.866 53.9647 119.039 54.5947 119.386 54.978C119.732 55.3612 120.21 55.5502 120.814 55.5502C121.417 55.5502 121.89 55.3612 122.236 54.978C122.578 54.5947 122.751 53.97 122.751 53.088V47.4967H125.607V53.1772C125.607 54.6997 125.182 55.8757 124.331 56.7052C123.481 57.5347 122.299 57.9495 120.787 57.9495Z" fill="white"/>
<path d="M127.57 57.7447V47.4967H132.416C133.55 47.4967 134.542 47.7067 135.403 48.1267C136.264 48.5467 136.931 49.1347 137.414 49.9012C137.897 50.6625 138.139 51.5707 138.139 52.626C138.139 53.6812 137.897 54.5737 137.414 55.3402C136.931 56.1067 136.259 56.7 135.403 57.12C134.542 57.54 133.55 57.75 132.416 57.75H127.57V57.7447ZM130.468 55.4295H132.301C132.889 55.4295 133.398 55.3192 133.828 55.0987C134.259 54.8782 134.6 54.558 134.847 54.1327C135.088 53.7075 135.214 53.2035 135.214 52.6155C135.214 52.0275 135.094 51.513 134.847 51.093C134.6 50.673 134.264 50.3527 133.828 50.1322C133.393 49.9117 132.883 49.8015 132.301 49.8015H130.468V55.4242V55.4295Z" fill="white"/>
<path d="M139.666 57.7447V47.4967H142.564V57.7447H139.666Z" fill="white"/>
<path d="M149.798 57.9495C148.979 57.9495 148.223 57.8182 147.53 57.5557C146.837 57.2932 146.234 56.9205 145.724 56.4375C145.21 55.9545 144.816 55.3927 144.533 54.747C144.249 54.1012 144.107 53.3925 144.107 52.626C144.107 51.8595 144.249 51.1455 144.533 50.505C144.816 49.8592 145.215 49.2975 145.724 48.8145C146.239 48.3315 146.837 47.9587 147.53 47.6962C148.223 47.4337 148.979 47.3025 149.798 47.3025C150.617 47.3025 151.389 47.4337 152.077 47.6962C152.765 47.9587 153.363 48.3315 153.872 48.8145C154.382 49.2975 154.775 49.8592 155.064 50.505C155.353 51.1507 155.495 51.8595 155.495 52.626C155.495 53.3925 155.353 54.1065 155.064 54.7575C154.775 55.4085 154.376 55.9702 153.872 56.448C153.363 56.9257 152.765 57.2985 152.077 57.561C151.389 57.8235 150.628 57.9547 149.798 57.9547V57.9495ZM149.798 55.5502C150.187 55.5502 150.554 55.482 150.89 55.3455C151.226 55.209 151.52 55.0095 151.767 54.7522C152.014 54.495 152.213 54.1852 152.355 53.823C152.497 53.4607 152.565 53.0617 152.565 52.6207C152.565 52.1797 152.497 51.7702 152.355 51.4132C152.213 51.0562 152.019 50.7517 151.767 50.4892C151.52 50.232 151.226 50.0325 150.89 49.896C150.554 49.7595 150.192 49.6912 149.798 49.6912C149.405 49.6912 149.042 49.7595 148.706 49.896C148.37 50.0325 148.076 50.232 147.83 50.4892C147.583 50.7465 147.383 51.0562 147.242 51.4132C147.1 51.7702 147.032 52.1745 147.032 52.6207C147.032 53.067 147.1 53.4607 147.242 53.823C147.383 54.1852 147.578 54.495 147.83 54.7522C148.076 55.0095 148.37 55.209 148.706 55.3455C149.042 55.482 149.405 55.5502 149.798 55.5502Z" fill="white"/>
<path d="M160.619 57.9495C159.779 57.9495 158.97 57.8445 158.193 57.6345C157.416 57.4245 156.786 57.1515 156.298 56.8207L157.248 54.684C157.705 54.978 158.235 55.2195 158.839 55.4085C159.437 55.5975 160.036 55.692 160.634 55.692C161.033 55.692 161.359 55.6552 161.6 55.5817C161.842 55.5082 162.02 55.4085 162.136 55.2877C162.246 55.167 162.304 55.02 162.304 54.8572C162.304 54.621 162.199 54.4372 161.984 54.3007C161.768 54.1642 161.49 54.054 161.149 53.9647C160.808 53.8755 160.43 53.7915 160.015 53.7022C159.6 53.613 159.185 53.5027 158.771 53.3662C158.356 53.2297 157.978 53.0512 157.637 52.8307C157.295 52.6102 157.017 52.3215 156.802 51.9645C156.587 51.6075 156.482 51.156 156.482 50.61C156.482 49.9957 156.65 49.4392 156.986 48.9405C157.322 48.4417 157.826 48.0427 158.503 47.7382C159.175 47.4337 160.015 47.2867 161.023 47.2867C161.695 47.2867 162.356 47.3602 163.007 47.5125C163.658 47.6647 164.236 47.8852 164.745 48.1792L163.853 50.3317C163.364 50.0692 162.881 49.8697 162.404 49.7385C161.926 49.6072 161.464 49.539 161.012 49.539C160.613 49.539 160.288 49.581 160.046 49.665C159.8 49.749 159.626 49.8592 159.521 49.9957C159.416 50.1322 159.359 50.2897 159.359 50.463C159.359 50.6887 159.464 50.8672 159.674 50.9985C159.884 51.1297 160.162 51.24 160.508 51.3187C160.855 51.4027 161.238 51.4867 161.653 51.576C162.068 51.6652 162.482 51.7755 162.897 51.9067C163.312 52.038 163.69 52.2165 164.031 52.4317C164.372 52.647 164.651 52.941 164.861 53.298C165.071 53.655 165.176 54.1012 165.176 54.6367C165.176 55.23 165.008 55.7812 164.672 56.2852C164.336 56.7892 163.832 57.1935 163.165 57.4927C162.498 57.7972 161.653 57.9442 160.64 57.9442L160.619 57.9495Z" fill="white"/>
</g>
<defs>
<clipPath id="clip0_1274_8833">
<rect width="210" height="72.0877" fill="white"/>
</clipPath>
</defs>
</svg>
