<?xml version="1.0" encoding="UTF-8"?>
<svg id="Layer_2" data-name="Layer 2" xmlns="http://www.w3.org/2000/svg" viewBox="0 0 602.31 206.75">
  <defs>
    <style>
      .cls-1 {
        fill: #fff;
      }

      .cls-2 {
        fill: #30cec0;
      }

      .cls-3 {
        fill: none;
      }

      .cls-4 {
        fill: #2d2d2d;
      }
    </style>
  </defs>
  <g id="Layer_2-2" data-name="Layer 2">
    <g id="Layer_1-2" data-name="Layer 1-2">
      <g>
        <path class="cls-1" d="m554.82,120.98l-9.47,30.39-13.41-86.95c-.6-3.87-3.75-6.7-7.66-6.88-3.92-.17-7.31,2.35-8.25,6.16l-21.01,84.71-8.11-53.12c-.55-3.58-3.32-6.32-6.91-6.82-3.58-.5-7,1.37-8.51,4.66l-12.75,27.84h-33.69C422.75,54.03,367.68.25,300.23,0h-.46c-67.45.25-122.52,54.03-124.82,120.98h-33.69l-12.75-27.84c-1.5-3.29-4.92-5.16-8.51-4.66-3.58.5-6.36,3.24-6.9,6.82l-8.11,53.12-21.01-84.71c-.94-3.8-4.32-6.33-8.25-6.16-3.91.18-7.06,3.01-7.66,6.88l-13.41,86.95-9.47-30.39H0v8.76h38.74l8.37,26.87c1.08,3.48,4.14,5.71,7.71,5.71.22,0,.43,0,.65-.02,3.85-.29,6.83-3.05,7.42-6.86l13.34-86.53,21.02,84.72c.94,3.8,4.31,6.33,8.23,6.16,3.93-.17,7.12-3.24,7.72-7.13l8.24-53.92,14.2,31.01h47.79l.28-.41v-8.35c2.31-62.19,53.57-112.1,116.29-112.22,62.72.12,113.98,50.03,116.29,112.22v8.35l.28.41h47.79l14.2-31.01,8.24,53.92c.59,3.89,3.79,6.96,7.72,7.13,3.92.17,7.29-2.36,8.23-6.16l21.02-84.72,13.34,86.53c.59,3.82,3.57,6.57,7.42,6.86.22.02.43.02.65.02,3.58,0,6.63-2.23,7.71-5.71l8.37-26.87h38.74v-8.76h-45.18Z"/>
        <path class="cls-2" d="m300,15.76c-59.7,0-108.25,47.73-109.57,107.12h219.14c-1.32-59.38-49.87-107.12-109.57-107.12Zm-69.03,81.14c0,2.25-1.42,4.16-3.41,4.9v17.06c0,1.01-.82,1.82-1.82,1.82s-1.82-.82-1.82-1.82v-17.06c-1.99-.74-3.41-2.65-3.41-4.9v-6.26c0-2.25,1.42-4.16,3.41-4.9v-21.4c.15-.18.29-.36.44-.55,1.07-1.32,3.21-.55,3.21,1.15v20.8c1.99.74,3.41,2.65,3.41,4.9v6.26h0Zm20.65-28.56c0,2.25-1.42,4.16-3.41,4.9v45.62c0,1.01-.82,1.82-1.82,1.82s-1.82-.82-1.82-1.82v-45.62c-1.99-.74-3.41-2.65-3.41-4.9v-6.26c0-2.25,1.42-4.16,3.41-4.9v-11.11c0-.61.3-1.17.8-1.51l.02-.02c1.2-.82,2.83.05,2.83,1.5v11.14c1.99.74,3.41,2.65,3.41,4.9v6.26h0Zm20.65,31.42c0,2.25-1.42,4.16-3.41,4.9v14.2c0,1.01-.82,1.82-1.82,1.82s-1.82-.82-1.82-1.82v-14.2c-1.99-.74-3.41-2.65-3.41-4.9v-6.26c0-2.25,1.42-4.16,3.41-4.9v-53.13c0-.75.47-1.43,1.17-1.69h.04c1.18-.45,2.44.43,2.44,1.69v53.13c1.99.74,3.41,2.65,3.41,4.9v6.26h-.01Zm20.65-22.23c0,2.25-1.42,4.16-3.41,4.89v36.43c0,1.01-.82,1.82-1.82,1.82s-1.82-.82-1.82-1.82v-36.43c-1.99-.74-3.41-2.65-3.41-4.89v-6.26c0-2.25,1.42-4.16,3.41-4.9V30.41c0-.9.67-1.66,1.56-1.78h.05c1.08-.15,2.04.7,2.04,1.79v35.95c1.99.74,3.41,2.65,3.41,4.9v6.26h0Zm17.89,43.15h-10.81v-9.36h10.81v9.36Zm0-13.87h-10.81v-9.36h10.81v9.36Zm0-13.87h-10.81v-9.36h10.81v9.36Zm0-13.87h-10.81v-9.36h10.81v9.36Zm0-13.87h-10.81v-9.36h10.81v9.36Zm0-13.87h-10.81v-9.36h10.81v9.36Zm0-13.87h-10.81v-9.36h10.81v9.36Zm28.28,83.21h-21.63v-9.36h21.63v9.36Zm0-13.87h-21.63v-9.36h21.63v9.36Zm0-13.87h-21.63v-9.36h21.63v9.36Zm0-13.87h-21.63v-9.36h21.63v9.36Zm0-13.87h-21.63v-9.36h21.63v9.36Zm28.28,55.47h-21.63v-9.36h21.63v9.36Zm0-13.87h-21.63v-9.36h21.63v9.36Zm0-13.87h-21.63v-9.36h21.63v9.36Zm28.28,27.74h-21.63v-9.36h21.63v9.36Zm-21.63-13.87v-9.36h21.63v9.36h-21.63Z"/>
        <path class="cls-4" d="m192.51,125.36h-.03v.02l.03-.02h0Z"/>
        <g>
          <path class="cls-2" d="m133.5,191.28v-14.84h5.78c1.3,0,2.41.2,3.33.61s1.62,1,2.12,1.78c.49.78.74,1.7.74,2.78s-.25,2-.74,2.76c-.49.77-1.2,1.36-2.12,1.77s-2.03.61-3.33.61h-4.62l.95-.98v5.49h-2.12v.02Zm2.13-5.27l-.95-1.04h4.56c1.36,0,2.38-.29,3.08-.88.7-.59,1.05-1.41,1.05-2.47s-.35-1.88-1.05-2.46-1.73-.87-3.08-.87h-4.56l.95-1.06v8.77h0Zm7.8,5.29l-3.77-5.38h2.27l3.82,5.38h-2.32Z"/>
          <path class="cls-2" d="m153.15,189.43h8.65v1.85h-10.77v-14.84h10.47v1.85h-8.35v11.15h0Zm-.19-6.61h7.63v1.8h-7.63v-1.8Z"/>
          <path class="cls-2" d="m173.96,191.45c-1.13,0-2.17-.19-3.13-.56-.95-.38-1.78-.91-2.48-1.59s-1.25-1.49-1.64-2.41c-.4-.92-.59-1.93-.59-3.03s.2-2.11.59-3.03c.4-.92.94-1.72,1.65-2.41.71-.68,1.54-1.21,2.49-1.59.95-.38,2-.56,3.13-.56s2.2.19,3.17.58,1.79.96,2.47,1.73l-1.38,1.33c-.57-.59-1.2-1.03-1.91-1.32-.71-.29-1.46-.43-2.27-.43s-1.61.14-2.32.42c-.72.28-1.33.68-1.85,1.19-.52.51-.93,1.11-1.22,1.81-.29.7-.43,1.46-.43,2.28s.15,1.58.43,2.28c.29.7.7,1.3,1.22,1.81s1.14.91,1.85,1.19c.72.28,1.49.42,2.32.42s1.56-.15,2.27-.43c.71-.29,1.34-.74,1.91-1.35l1.38,1.33c-.68.76-1.5,1.34-2.47,1.74-.97.4-2.03.59-3.19.59h0Z"/>
          <path class="cls-2" d="m191.15,191.45c-1.13,0-2.18-.19-3.15-.57s-1.81-.91-2.51-1.6c-.71-.68-1.26-1.49-1.65-2.41-.4-.92-.59-1.92-.59-3.01s.2-2.09.59-3.01c.4-.92.95-1.72,1.65-2.41.71-.68,1.54-1.22,2.5-1.6s2.01-.57,3.16-.57,2.17.19,3.13.56,1.79.91,2.5,1.59c.72.68,1.26,1.49,1.65,2.41s.58,1.93.58,3.03-.19,2.11-.58,3.03-.94,1.72-1.65,2.41c-.72.68-1.55,1.21-2.5,1.59-.95.38-2,.56-3.13.56h0Zm0-1.88c.82,0,1.58-.14,2.28-.42s1.31-.68,1.82-1.2c.52-.52.92-1.12,1.21-1.81.29-.69.43-1.45.43-2.27s-.15-1.58-.43-2.27c-.29-.69-.69-1.3-1.21-1.81-.52-.52-1.12-.91-1.82-1.2-.7-.28-1.46-.42-2.28-.42s-1.6.14-2.3.42-1.31.68-1.83,1.2-.93,1.12-1.22,1.81c-.29.69-.43,1.45-.43,2.27s.15,1.58.43,2.27c.29.69.7,1.3,1.22,1.81.52.52,1.14.91,1.83,1.2.7.28,1.47.42,2.3.42Z"/>
          <path class="cls-2" d="m204.38,191.28v-14.84h5.78c1.3,0,2.41.2,3.33.61s1.63,1,2.12,1.78c.49.78.74,1.7.74,2.78s-.25,2-.74,2.76c-.49.77-1.2,1.36-2.12,1.77s-2.03.61-3.33.61h-4.62l.95-.98v5.49h-2.12v.02Zm2.13-5.27l-.95-1.04h4.56c1.36,0,2.38-.29,3.08-.88.7-.59,1.05-1.41,1.05-2.47s-.35-1.88-1.05-2.46-1.73-.87-3.08-.87h-4.56l.95-1.06v8.77h0Zm7.8,5.29l-3.77-5.38h2.27l3.82,5.38h-2.32Z"/>
          <path class="cls-2" d="m221.91,191.28v-14.84h6.25c1.58,0,2.98.31,4.19.93s2.15,1.49,2.82,2.61c.67,1.12,1.01,2.41,1.01,3.88s-.34,2.76-1.01,3.88c-.67,1.12-1.61,1.99-2.82,2.61s-2.61.93-4.19.93h-6.25Zm2.12-1.84h4c1.23,0,2.29-.23,3.19-.7.9-.47,1.59-1.12,2.09-1.96.49-.84.74-1.81.74-2.91s-.25-2.09-.74-2.92-1.19-1.48-2.09-1.95-1.96-.7-3.19-.7h-4v11.15h0Z"/>
          <path class="cls-2" d="m252.77,191.28l-4.96-14.84h2.18l4.56,13.69h-1.1l4.72-13.69h1.95l4.62,13.69h-1.06l4.62-13.69h2.01l-4.96,14.84h-2.23l-4.32-12.69h.57l-4.35,12.69h-2.27.02Z"/>
          <path class="cls-2" d="m275.03,191.28v-14.84h2.12v14.84h-2.12Z"/>
          <path class="cls-2" d="m286.66,191.28v-12.99h-5.09v-1.85h12.27v1.85h-5.09v12.99h-2.1.01Z"/>
          <path class="cls-2" d="m300.39,191.28h-2.12v-14.84h2.12v14.84Zm8.71-6.61h-8.92v-1.85h8.92v1.85Zm-.19-8.22h2.12v14.84h-2.12v-14.84Z"/>
          <path class="cls-2" d="m327.55,191.28h-2.12v-14.84h2.12v14.84Zm8.71-6.61h-8.92v-1.85h8.92v1.85Zm-.19-8.22h2.12v14.84h-2.12v-14.84Z"/>
          <path class="cls-2" d="m342.51,191.28l6.72-14.84h2.1l6.74,14.84h-2.23l-6-13.65h.85l-5.99,13.65h-2.19Zm2.86-3.71l.57-1.7h8.35l.61,1.7h-9.54.01Z"/>
          <path class="cls-2" d="m362.39,191.28v-14.84h5.79c1.3,0,2.41.2,3.33.61.92.41,1.63,1,2.12,1.78s.74,1.7.74,2.78-.25,2-.74,2.76c-.49.77-1.2,1.36-2.12,1.78-.92.42-2.03.63-3.33.63h-4.62l.96-1v5.49h-2.13Zm2.12-5.26l-.96-1.06h4.56c1.36,0,2.39-.29,3.08-.87.7-.58,1.05-1.4,1.05-2.46s-.35-1.88-1.05-2.46c-.7-.58-1.73-.87-3.08-.87h-4.56l.96-1.06v8.77h0Z"/>
          <path class="cls-2" d="m379.6,191.28v-14.84h5.79c1.3,0,2.41.2,3.33.61.92.41,1.62,1,2.12,1.78.49.78.74,1.7.74,2.78s-.25,2-.74,2.76c-.5.77-1.2,1.36-2.12,1.78-.92.42-2.03.63-3.33.63h-4.62l.95-1v5.49h-2.12Zm2.12-5.26l-.95-1.06h4.56c1.36,0,2.38-.29,3.08-.87.7-.58,1.05-1.4,1.05-2.46s-.35-1.88-1.05-2.46c-.7-.58-1.73-.87-3.08-.87h-4.56l.95-1.06v8.77h0Z"/>
          <path class="cls-2" d="m396.81,191.28v-14.84h2.12v14.84h-2.12Z"/>
          <path class="cls-2" d="m405.5,191.28v-14.84h1.74l9.81,12.19h-.91v-12.19h2.12v14.84h-1.74l-9.81-12.19h.91v12.19h-2.12Z"/>
          <path class="cls-2" d="m426.95,189.43h8.65v1.85h-10.76v-14.84h10.47v1.85h-8.35v11.15h0Zm-.19-6.61h7.63v1.8h-7.63v-1.8Z"/>
          <path class="cls-2" d="m445.47,191.45c-1.13,0-2.21-.17-3.24-.52-1.03-.34-1.85-.79-2.44-1.35l.79-1.65c.56.49,1.29.91,2.16,1.23.88.32,1.79.49,2.73.49.86,0,1.56-.1,2.1-.3s.93-.47,1.19-.82c.26-.34.38-.74.38-1.17,0-.51-.17-.92-.5-1.23s-.76-.56-1.29-.75-1.11-.36-1.75-.5-1.28-.31-1.92-.5c-.65-.19-1.23-.43-1.76-.73s-.96-.7-1.28-1.2c-.33-.5-.48-1.15-.48-1.94s.2-1.47.6-2.11,1.02-1.16,1.86-1.55,1.91-.58,3.21-.58c.86,0,1.72.11,2.56.34.85.23,1.58.55,2.21.98l-.7,1.7c-.64-.42-1.31-.73-2.01-.92-.71-.19-1.39-.29-2.06-.29-.83,0-1.52.11-2.06.32s-.93.49-1.18.85c-.25.35-.37.75-.37,1.19,0,.52.17.94.5,1.25s.76.56,1.29.74c.53.19,1.11.35,1.75.5s1.28.31,1.92.5,1.23.42,1.76.72.96.69,1.28,1.19c.33.49.49,1.13.49,1.91s-.2,1.44-.61,2.09c-.41.64-1.04,1.16-1.9,1.55s-1.94.58-3.24.58v-.02Z"/>
          <path class="cls-2" d="m460.76,191.45c-1.13,0-2.21-.17-3.24-.52-1.03-.34-1.85-.79-2.44-1.35l.78-1.65c.56.49,1.29.91,2.16,1.23.88.32,1.79.49,2.73.49.86,0,1.56-.1,2.1-.3s.93-.47,1.19-.82c.26-.34.38-.74.38-1.17,0-.51-.17-.92-.5-1.23s-.77-.56-1.3-.75-1.11-.36-1.75-.5-1.27-.31-1.92-.5c-.64-.19-1.23-.43-1.76-.73s-.96-.7-1.28-1.2c-.33-.5-.49-1.15-.49-1.94s.2-1.47.6-2.11,1.03-1.16,1.86-1.55c.84-.39,1.91-.58,3.21-.58.86,0,1.72.11,2.56.34.85.23,1.58.55,2.21.98l-.7,1.7c-.64-.42-1.31-.73-2.01-.92-.71-.19-1.39-.29-2.06-.29-.83,0-1.52.11-2.06.32s-.93.49-1.18.85c-.25.35-.37.75-.37,1.19,0,.52.17.94.5,1.25s.76.56,1.29.74c.53.19,1.12.35,1.75.5.64.15,1.27.31,1.91.5s1.23.42,1.76.72.96.69,1.28,1.19c.33.49.48,1.13.48,1.91s-.2,1.44-.61,2.09c-.41.64-1.04,1.16-1.9,1.55s-1.94.58-3.23.58l.05-.02Z"/>
        </g>
        <rect class="cls-3" x="2.31" width="600" height="206.75"/>
        <g>
          <path class="cls-1" d="m126.31,165.62l12.98-29.4h8.19l13.02,29.4h-8.65l-10.16-25.33h3.28l-10.16,25.33h-8.5Zm7.1-5.71l2.14-6.13h14.36l2.14,6.13h-18.65,0Z"/>
          <path class="cls-1" d="m175.78,166.21c-4.34,0-7.73-1.19-10.16-3.57-2.44-2.38-3.65-5.75-3.65-10.12v-16.3h8.32v16.04c0,2.52.5,4.33,1.49,5.42s2.36,1.64,4.09,1.64,3.09-.55,4.07-1.64c.98-1.09,1.47-2.9,1.47-5.42v-16.04h8.19v16.3c0,4.37-1.22,7.74-3.65,10.12-2.44,2.38-5.82,3.57-10.16,3.57h-.01Z"/>
          <path class="cls-1" d="m195.23,165.62v-29.4h13.9c3.25,0,6.1.6,8.57,1.81,2.46,1.2,4.39,2.9,5.77,5.08,1.39,2.18,2.08,4.79,2.08,7.81s-.69,5.59-2.08,7.79-3.31,3.9-5.77,5.1c-2.46,1.2-5.32,1.81-8.57,1.81h-13.9,0Zm8.32-6.64h5.25c1.68,0,3.14-.31,4.39-.94s2.22-1.55,2.92-2.77,1.05-2.67,1.05-4.35-.35-3.16-1.05-4.37c-.7-1.2-1.67-2.12-2.92-2.75s-2.71-.95-4.39-.95h-5.25v16.13Z"/>
          <path class="cls-1" d="m229.92,165.62v-29.4h8.32v29.4h-8.32,0Z"/>
          <path class="cls-1" d="m258.98,166.21c-2.35,0-4.52-.38-6.51-1.13-1.99-.76-3.72-1.83-5.19-3.21-1.47-1.39-2.61-3-3.42-4.85s-1.22-3.88-1.22-6.09.41-4.24,1.22-6.09c.81-1.85,1.95-3.46,3.42-4.85s3.2-2.46,5.19-3.21c1.99-.76,4.16-1.13,6.51-1.13s4.56.38,6.53,1.13c1.97.76,3.69,1.83,5.15,3.21,1.46,1.39,2.6,3,3.42,4.85.83,1.85,1.24,3.88,1.24,6.09s-.41,4.25-1.24,6.11-1.97,3.48-3.42,4.85c-1.46,1.37-3.17,2.44-5.15,3.19-1.97.76-4.15,1.13-6.53,1.13Zm0-6.89c1.12,0,2.16-.2,3.13-.59s1.81-.96,2.52-1.7c.71-.74,1.27-1.63,1.68-2.67s.61-2.18.61-3.44-.2-2.44-.61-3.46c-.41-1.02-.97-1.9-1.68-2.65-.71-.74-1.55-1.31-2.52-1.7s-2.01-.59-3.13-.59-2.16.2-3.13.59-1.81.96-2.52,1.7c-.71.74-1.27,1.62-1.68,2.65-.41,1.02-.61,2.18-.61,3.46s.2,2.41.61,3.44c.41,1.04.97,1.93,1.68,2.67.71.74,1.55,1.31,2.52,1.7s2.01.59,3.13.59Z"/>
          <path class="cls-1" d="m290.24,166.21c-2.41,0-4.73-.3-6.95-.9-2.23-.6-4.04-1.38-5.44-2.33l2.73-6.13c1.32.84,2.83,1.53,4.56,2.08,1.72.55,3.44.82,5.15.82,1.15,0,2.07-.1,2.77-.31.7-.21,1.21-.49,1.53-.84.32-.35.48-.76.48-1.24,0-.67-.31-1.2-.92-1.6-.62-.39-1.41-.71-2.39-.97-.98-.25-2.07-.5-3.26-.76-1.19-.25-2.38-.57-3.57-.97-1.19-.39-2.28-.9-3.25-1.53-.98-.63-1.78-1.46-2.39-2.48-.62-1.02-.92-2.32-.92-3.89,0-1.76.48-3.36,1.45-4.79s2.42-2.58,4.35-3.44c1.93-.87,4.34-1.3,7.22-1.3,1.93,0,3.83.22,5.69.65,1.86.43,3.52,1.07,4.98,1.91l-2.56,6.17c-1.4-.76-2.79-1.32-4.16-1.7-1.37-.38-2.7-.57-3.99-.57-1.15,0-2.07.12-2.77.36-.7.24-1.2.55-1.51.95-.31.39-.46.84-.46,1.34,0,.64.3,1.15.9,1.53s1.4.69,2.39.92c.99.24,2.09.48,3.28.73s2.38.57,3.57.95c1.19.38,2.28.88,3.26,1.51s1.77,1.46,2.37,2.48c.6,1.02.9,2.3.9,3.84,0,1.71-.48,3.28-1.45,4.72-.96,1.44-2.41,2.6-4.33,3.47-1.92.87-4.33,1.3-7.24,1.3l-.02.02Z"/>
          <path class="cls-1" d="m312.92,165.62v-22.81h-9.03v-6.59h26.33v6.59h-8.99v22.81h-8.32.01Z"/>
          <path class="cls-1" d="m346.44,166.21c-4.34,0-7.73-1.19-10.16-3.57-2.44-2.38-3.65-5.75-3.65-10.12v-16.3h8.32v16.04c0,2.52.5,4.33,1.49,5.42s2.36,1.64,4.09,1.64,3.09-.55,4.07-1.64,1.47-2.9,1.47-5.42v-16.04h8.19v16.3c0,4.37-1.22,7.74-3.65,10.12-2.44,2.38-5.82,3.57-10.16,3.57h-.01Z"/>
          <path class="cls-1" d="m365.88,165.62v-29.4h13.9c3.25,0,6.1.6,8.57,1.81,2.46,1.2,4.39,2.9,5.77,5.08,1.39,2.18,2.08,4.79,2.08,7.81s-.69,5.59-2.08,7.79c-1.39,2.2-3.31,3.9-5.77,5.1-2.46,1.2-5.32,1.81-8.57,1.81h-13.9Zm8.32-6.64h5.25c1.68,0,3.14-.31,4.39-.94s2.22-1.55,2.92-2.77,1.05-2.67,1.05-4.35-.35-3.16-1.05-4.37c-.7-1.2-1.67-2.12-2.92-2.75s-2.71-.95-4.39-.95h-5.25v16.13Z"/>
          <path class="cls-1" d="m400.58,165.62v-29.4h8.32v29.4h-8.32Z"/>
          <path class="cls-1" d="m429.64,166.21c-2.35,0-4.52-.38-6.51-1.13s-3.72-1.83-5.19-3.21c-1.47-1.39-2.61-3-3.42-4.85-.81-1.85-1.22-3.88-1.22-6.09s.41-4.24,1.22-6.09c.81-1.85,1.95-3.46,3.42-4.85s3.2-2.46,5.19-3.21,4.16-1.13,6.51-1.13,4.56.38,6.53,1.13c1.97.76,3.69,1.83,5.15,3.21,1.46,1.39,2.6,3,3.42,4.85.83,1.85,1.24,3.88,1.24,6.09s-.41,4.25-1.24,6.11-1.97,3.48-3.42,4.85c-1.46,1.37-3.17,2.44-5.15,3.19-1.97.76-4.15,1.13-6.53,1.13Zm0-6.89c1.12,0,2.16-.2,3.13-.59s1.81-.96,2.52-1.7c.71-.74,1.27-1.63,1.68-2.67s.61-2.18.61-3.44-.2-2.44-.61-3.46c-.41-1.02-.97-1.9-1.68-2.65-.71-.74-1.55-1.31-2.52-1.7s-2.01-.59-3.13-.59-2.16.2-3.13.59-1.81.96-2.52,1.7c-.71.74-1.27,1.62-1.68,2.65-.41,1.02-.61,2.18-.61,3.46s.2,2.41.61,3.44c.41,1.04.97,1.93,1.68,2.67s1.55,1.31,2.52,1.7,2.01.59,3.13.59Z"/>
          <path class="cls-1" d="m460.68,166.21c-2.41,0-4.73-.3-6.95-.9-2.23-.6-4.04-1.38-5.44-2.33l2.73-6.13c1.32.84,2.83,1.53,4.56,2.08,1.72.55,3.44.82,5.15.82,1.15,0,2.07-.1,2.77-.31.7-.21,1.21-.49,1.53-.84.32-.35.48-.76.48-1.24,0-.67-.31-1.2-.92-1.6-.62-.39-1.41-.71-2.39-.97-.98-.25-2.07-.5-3.25-.76-1.19-.25-2.38-.57-3.57-.97-1.19-.39-2.28-.9-3.25-1.53-.98-.63-1.78-1.46-2.39-2.48-.62-1.02-.92-2.32-.92-3.89,0-1.76.48-3.36,1.45-4.79s2.42-2.58,4.35-3.44c1.93-.87,4.34-1.3,7.22-1.3,1.93,0,3.83.22,5.69.65,1.86.43,3.52,1.07,4.98,1.91l-2.56,6.17c-1.4-.76-2.79-1.32-4.16-1.7s-2.7-.57-3.99-.57c-1.15,0-2.07.12-2.77.36-.7.24-1.2.55-1.51.95-.31.39-.46.84-.46,1.34,0,.64.3,1.15.9,1.53s1.4.69,2.39.92c.99.24,2.09.48,3.28.73s2.38.57,3.57.95c1.19.38,2.27.88,3.25,1.51s1.77,1.46,2.37,2.48c.6,1.02.9,2.3.9,3.84,0,1.71-.48,3.28-1.45,4.72s-2.41,2.6-4.33,3.47c-1.92.87-4.33,1.3-7.24,1.3l-.02.02Z"/>
        </g>
        <g>
          <path class="cls-1" d="m559.91,115.28v-9.81h-4.36v-1.39h10.52v1.39h-4.36v9.81h-1.8Z"/>
          <path class="cls-1" d="m568.05,115.28v-11.2h1.49l5.7,8.46h-.8l5.63-8.46h1.49l.02,11.2h-1.74l-.02-8.78h.42l-5.01,7.42h-.83l-5.05-7.42h.45v8.78h-1.75Z"/>
        </g>
      </g>
    </g>
  </g>
</svg>